<svg xmlns="http://www.w3.org/2000/svg" width="7.204" height="73.28" viewBox="0 0 14.407 146.56"><path id="_50_access_sub_heading_sm.svg" data-name="50% access_sub_heading_sm.svg" d="M661.485 9956.81v1.74a.6.6 0 00.4.58l2.16.98v5.98l-2.16.98a.575.575 0 00-.4.58v1.74a.354.354 0 00.521.34l13.462-6.16a.34.34 0 00.22-.34v-.2a.359.359 0 00-.22-.34l-13.462-6.22a.354.354 0 00-.521.34zm4.781 4.28l4.4 1.96v.06l-4.4 2v-4.02zm2.2 11.34a7.171 7.171 0 00-7.182 7.22 6.865 6.865 0 001.941 4.86.381.381 0 00.54.02l1.28-1.24a.368.368 0 000-.5 4.8 4.8 0 01-1.14-3.06 4.644 4.644 0 019.282-.02 4.732 4.732 0 01-1.18 3.08.32.32 0 000 .5l1.26 1.22a.372.372 0 00.56-.02 6.769 6.769 0 001.86-4.84 7.2 7.2 0 00-7.22-7.22zm0 15.62a7.171 7.171 0 00-7.182 7.22 6.746 6.746 0 001.941 4.83.4.4 0 00.54.1l1.28-1.29a.368.368 0 000-.5 4.8 4.8 0 01-1.14-3.06 4.644 4.644 0 019.282-.02 4.732 4.732 0 01-1.18 3.08.32.32 0 000 .5l1.26 1.19a.336.336 0 00.56 0 6.728 6.728 0 001.86-4.83 7.2 7.2 0 00-7.22-7.22zm-6.6 16.75a.331.331 0 00-.381.3v8.2a.412.412 0 00.381.4h1.64a.412.412 0 00.38-.4v-5.9h3.5v4.9a.4.4 0 00.38.4h1.66a.412.412 0 00.38-.4v-4.9h3.281v5.9a.412.412 0 00.38.4h1.64a.412.412 0 00.38-.4v-8.2a.33.33 0 00-.38-.3h-13.241zm.98 13a6.482 6.482 0 00-1.561 4.4c0 2.8 1.9 4.6 3.961 4.6 2.581 0 3.741-2.2 4.521-4.2.66-1.6 1.3-2.3 2.241-2.3a1.557 1.557 0 011.4 1.7 6.946 6.946 0 01-1.1 2.8.547.547 0 00.24.7l1.14.8a.569.569 0 00.66-.2 6.85 6.85 0 001.34-4c0-3.1-2.06-4.5-3.84-4.5-2.361 0-3.561 1.9-4.321 3.8-.68 1.7-1.381 2.5-2.4 2.5a1.616 1.616 0 01-1.54-1.8 6.515 6.515 0 011.24-3 .488.488 0 00-.14-.7l-1.24-.7a.372.372 0 00-.601.1zm0 12.8a6.482 6.482 0 00-1.561 4.4c0 2.9 1.9 4.6 3.961 4.6 2.581 0 3.741-2.2 4.521-4.1.66-1.7 1.3-2.4 2.241-2.4a1.6 1.6 0 011.4 1.8 5.812 5.812 0 01-1.1 2.7.494.494 0 00.24.7l1.14.8a.539.539 0 00.66-.1 7.173 7.173 0 001.34-4c0-3.2-2.06-4.5-3.84-4.5-2.361 0-3.561 1.9-4.321 3.7-.68 1.7-1.381 2.6-2.4 2.6a1.675 1.675 0 01-1.54-1.8 7.071 7.071 0 011.24-3.1.384.384 0 00-.14-.6l-1.24-.8a.593.593 0 00-.601.1zm-.98 20a.412.412 0 00-.381.4v1.9a.331.331 0 00.381.3h13.242a.33.33 0 00.38-.3v-1.9a.412.412 0 00-.38-.4h-13.242zm0 8.3a.412.412 0 00-.381.4v1.8a.412.412 0 00.381.4h8.6l-9.182 8.3v.5a.4.4 0 00.36.4h13.463a.412.412 0 00.38-.4v-1.8a.412.412 0 00-.38-.4h-8.261l8.841-8.3v-.5a.4.4 0 00-.36-.4h-13.461zm0 17.4a.412.412 0 00-.381.4v1.9a.331.331 0 00.381.3h5.061v5a.412.412 0 00.38.4h1.64a.412.412 0 00.38-.4v-5h3.761v6a.33.33 0 00.38.3h1.64a.33.33 0 00.38-.3v-8.2a.412.412 0 00-.38-.4h-13.242zm6.6 12.3a7.2 7.2 0 107.221 7.2 7.154 7.154 0 00-7.22-7.2zm0 2.6a4.6 4.6 0 11-4.581 4.6 4.658 4.658 0 014.582-4.6z" transform="translate(-661.281 -9956.44)" fill="#f0af49" fill-rule="evenodd"/></svg>