<svg xmlns="http://www.w3.org/2000/svg" width="28.016" height="178.705" viewBox="0 0 56.032 357.41"><path data-name="50% access_heading_sm.svg" d="M9.782 7.55c8.459-.9 30.058-1.2 31.318-1.2.36 0 .6.12.6.3 0 .3-3.66 5.94-10.619 11.28a.621.621 0 00-.3.42.521.521 0 00.3.42c.9.54 2.58 1.08 3.419 2.1a1.071 1.071 0 00.72.54 1.311 1.311 0 00.72-.42C42.42 16.25 46.2 10.55 48.9 6.83c.96-1.26 2.46-1.5 2.46-2.34 0-1.08-4.5-4.5-5.04-4.5a2.088 2.088 0 00-.84.36c-.9.54-5.64 1.02-19.619 1.02-5.46 0-10.92-.06-16.379-.6h-.18c-.66 0-.72.66-.72 1.98 0 3.84.12 4.8 1.02 4.8h.18zm13.679 4.5c0 13.5-9.24 23.22-17.1 27.36a.728.728 0 00-.48.48.633.633 0 00.48.48c1.14.48 3.779 1.04 5.759 2.54a1.222 1.222 0 00.9.4c1.38 0 13.62-10.26 16.62-26.64a3.429 3.429 0 011.62-2.4 2.584 2.584 0 001.26-1.68 1.255 1.255 0 00-1.08-1.02A46.665 46.665 0 0024 10.25c-.54 0-.54.12-.54.6v1.2zm7.32 52.76l.42-.5a7.475 7.475 0 011.98-1.7c.78-.5 1.439-1 1.439-1.5 0-1.1-6.119-4.2-6.959-4.2-.24 0-.36.1-.48.5-2.1 6.8-11.1 17.9-20.339 23.2a.362.362 0 00-.24.3.551.551 0 00.36.4 34.615 34.615 0 014.2 2.2 1.718 1.718 0 00.78.2c1.68 0 7.98-5.1 15.06-14.1 3.9 0 9.179-.1 10.979-.1.36 0 .54 0 .54.3s-10.379 21.9-32.278 28.6a1.029 1.029 0 00-.72.5 1.35 1.35 0 00.6.6c1.02.6 3.66 1.7 5.1 3.2a.62.62 0 00.54.2c.24 0 18.36-4.6 33.719-32.5.78-1.5 2.22-2 2.22-2.7 0-.9-4.68-3.9-5.28-3.9a2.019 2.019 0 00-.84.3c-.9.6-4.8.7-8.759.7h-2.04zm15.839 88.3a.184.184 0 00-.18-.2h-.18a95.232 95.232 0 01-13.979 1.3c-7.2 0-7.38-2.1-7.38-5.3 0-2.5.12-6.4.3-10.3l14.819-3.9a1.983 1.983 0 01.66-.1c.06 0 .12 0 .12.1 0 .5-2.4 5-8.039 10.8a.656.656 0 00-.24.5.376.376 0 00.42.3c.96.3 2.759.1 4.439 1a2.851 2.851 0 00.72.2c.36 0 2.88-1.7 9.78-14.3.72-1.3 1.86-1.8 1.86-2.5 0-.9-4.32-3.3-5.52-3.3a1.169 1.169 0 00-.78.6c-1.02.9-12.419 4-18.059 5.4.24-6.8.3-7.5 1.14-8.5a4.941 4.941 0 001.38-2.2c0-1.5-7.08-2.5-8.34-2.5-.36 0-.48.1-.48.4a3.556 3.556 0 01.06.4 55.27 55.27 0 01.42 7.1c0 1.4 0 3.9-.06 6.8-4.56 1-9.12 2.1-13.8 2.8a.572.572 0 00-.48.5c0 .5 1.14 5.8 2.52 5.8a.656.656 0 00.42-.1c2.579-.9 7.259-2.4 11.219-3.6-.12 4.2-.24 8.4-.36 10.7v.5c0 8.3 7.86 8.3 15.12 8.3a96.639 96.639 0 0010.439-.5 1.137 1.137 0 00.84-.8c.18-1.6 1.08-4.4 1.2-5.2v-.2zm-34.259 36c6.24-.7 19.8-.7 20.28-.7h.18c0 .2-8.46 17.8-29.339 25.1a.555.555 0 00-.48.4.636.636 0 00.42.5c1.5.6 4.5 2 5.28 3.2a.626.626 0 00.6.2c.659 0 10.2-4.3 19.079-13.8 4.32 2.6 11.939 7.9 16.619 13.2a.518.518 0 00.48.2c.6 0 4.56-3.8 4.56-4.6 0-1.1-9.3-8.3-18-13a122.284 122.284 0 008.1-11.6c.84-1.3 2.34-1.5 2.34-2.3 0-1.1-4.02-4-4.8-4a1.7 1.7 0 00-.72.4c-1.68.9-13.319.9-15.359.9a84.139 84.139 0 01-9.54-.3h-.117c-.36 0-.54.3-.54 2.4 0 3.3.36 3.8.9 3.8h.06zm31.379 92.5c0 1.4-.96 1.9-2.76 1.9a33.019 33.019 0 01-3.84-.4c-.12 0-.24-.1-.36-.1a.222.222 0 00-.18.1.6.6 0 00.18.4c1.26 1.4 3.18 3.3 3.42 4.5a.8.8 0 00.78.8c6.66-.2 8.16-2.9 8.16-6.5 0-3.3-.42-4.9-.42-9.7a116.781 116.781 0 01.36-12v-.2c0-.4-.12-.5-.54-.5h-.18c-3.66.2-8.7.3-11.58.3-3 0-7.619-.1-10.979-.3h-.357c-.42 0-.48.1-.48.3v.4c.36 4.4.36 9.9.36 11.7a140.713 140.713 0 01-.66 15.6v.1c0 .4.18.7 2.88.7.9 0 2.82-.1 2.82-.7-.06-3.4-.18-5.2-.18-9.9 2.22-.1 5.4-.1 6.539-.1 1.32 0 5.16.1 7.02.1v3.5zm-4.56-30.9c2.4 0 4.92.1 9.42.4.48 0 .66 0 .66-1.9a19.121 19.121 0 00-.06-2 .524.524 0 00-.6-.4c-4.56.3-7.08.4-9.42.4v-2.7c3.48 0 7.38.1 13.5.5a.612.612 0 00.54-.4 18.532 18.532 0 00.12-2c0-2.2-.12-2.3-.72-2.3-6.3.4-9.84.5-13.38.5.06-2 .24-2.1.72-2.8a4.378 4.378 0 00.96-1.6c0-1.1-5.58-2-6.959-2.1a.387.387 0 00-.48.4c0 .1.06.2.06.3a29.926 29.926 0 01.66 5.8c-2.82 0-5.82-.1-12-.5-.72 0-.72 0-.72 2.4 0 2 .12 2.3.72 2.3 6.24-.4 9.18-.5 12.06-.5v2.7c-2.04 0-4.44-.1-8.94-.4-.54 0-.72.1-.72 2.2 0 .6.06 1.2.06 1.7a.712.712 0 00.72.4c4.44-.3 6.84-.4 8.88-.4v3c-3.66-.1-9.06-.3-12.12-.4-.54-3.4-2.58-7.6-2.94-7.6h-.24s-3.66.6-3.66 1.1a1.946 1.946 0 00.12.4 29.349 29.349 0 012.1 7.8.382.382 0 00.42.3h.12l1.62-.4c0 .8 0 1.9.06 2.5a.6.6 0 00.66.6c3.6-.1 12.3-.6 16.259-.6 4.32 0 9.72 0 17.52.6a.7.7 0 00.6-.4 18.95 18.95 0 00.12-2.1c0-2.2-.24-2.4-.78-2.4-6.54.5-10.98.6-14.94.6v-3zm-30.536 36.6c0 .4.12.6 3.6.6 3 0 3.12-.2 3.12-.5-.54-7.4-.78-24.6-.78-33.3 0-4.9.06-11.8.6-14 .36-1.4.9-2.3.9-2.8a.71.71 0 00-.6-.7 30.206 30.206 0 00-6.419-1c-.18 0-.24 0-.24.2a1.5 1.5 0 01.06.3c.6 3.2.72 9.8.72 15.2 0 3.4-.06 6.3-.06 7.7-.001 4.9-.063 18.6-.901 28.3zm-3.12-26.3c.72 0 1.44-4 2.22-9.5a3.121 3.121 0 01.54-1.7 3.71 3.71 0 00.78-1.3c0-.9-5.4-1.4-5.88-1.4a.2.2 0 00-.24.2c0 .1.06.3.06.5 0 .3.06.6.06 1a26.833 26.833 0 01-3 11.5c-.06 0-.06.1-.06.1 0 .3.24.3.6.3h1.68a9.446 9.446 0 013.06.3h.18zm38.158 13.1c-1.92.1-5.82.1-6.96.1h-6.539v-3.1c2.04-.1 5.339-.1 6.539-.1 1.32 0 5.1.1 6.96.1v3zm-.06-7.1c-1.98.1-5.82.2-6.96.2-1.02 0-4.259 0-6.359-.1.06-1.6.06-3 .06-3s4.379-.1 6.3-.1 6.9.1 6.9.1zm-7.92 88.4a7.9 7.9 0 012.7 1.2.5.5 0 00.36.1c.24 0 2.22-1.4 5.1-6.1a25.448 25.448 0 006.48 5.6.812.812 0 00.42.2.643.643 0 00.42-.2 21.472 21.472 0 014.56-3.2.577.577 0 00.3-.5.362.362 0 00-.24-.3 21.515 21.515 0 01-9.36-6.7 63.8 63.8 0 004.56-16.4 4.241 4.241 0 01.66-1.9 1.974 1.974 0 00.6-.9c0-.6-2.94-2.3-3.42-2.3a5.436 5.436 0 01-1.5.4s-4.44.2-6.6.2h-5.58c0-4.8.06-12.3.06-12.3h10.322a20.789 20.789 0 01-.18 2.7c-.3 1.7-.66 2.3-1.98 2.3a28.083 28.083 0 01-3.12-.4c-.12 0-.24-.1-.36-.1a.184.184 0 00-.18.2.41.41 0 00.18.3 15.439 15.439 0 012.58 4.5.824.824 0 00.78.7c5.34 0 7.08-2.5 7.5-6.4.24-2.4.12-4.2.42-7.8v-.2a.6.6 0 00-.6-.7h-.12c-4.44.3-7.38.4-10.26.4a96.342 96.342 0 01-9.839-.5h-.3c-.42 0-.54.1-.54.4 0 .1.06.3.06.4.24 2.4.6 8 .6 29 0 6.9-.06 12.4-.48 19.8a.479.479 0 00.54.5h.84c1.32 0 3.06-.1 3.959-.1a.61.61 0 00.72-.5zm-9.239-8.7c.48 0 .6-.5.6-2.3 0-.9 0-1.9-.06-2.4a.667.667 0 00-.66-.5 64.274 64.274 0 01-7.98.5v-2.8a1.7 1.7 0 01.42-1.3 1.339 1.339 0 00.48-.8v-.1c1.86.1 3.42.2 8.7.5a.561.561 0 00.6-.4 18.95 18.95 0 00.12-2.1c0-2.4-.24-2.7-.78-2.7l-6.72.4c1.26-2.1 1.92-3.6 2.4-4.2.54-.6 1.68-1.1 1.68-1.6 0-1-5.82-2.7-6.06-2.7-.36 0-.3.3-.36.6a26.2 26.2 0 01-2.34 8.1h-.24c-1.68 0-2.88 0-4.32-.1 2.7-1.4 2.88-1.4 2.88-1.8 0-1.1-3.6-6.6-4.26-6.6-.06 0-.12.1-.18.1 0 0-2.879 1-3.479 1.3a.566.566 0 00-.36.4 1.534 1.534 0 00.24.5 22.213 22.213 0 013 6c-1.62 0-3.66-.1-6.66-.4h-.24c-.42 0-.48.3-.48 2.7 0 2.2.06 2.5.72 2.5 5.64-.4 7.919-.5 10.2-.5v5c-2.28 0-4.979-.2-8.4-.5-.66 0-.78.4-.78 2.6 0 2 0 2.6.78 2.6 3.36-.3 6.119-.5 8.4-.5-.06 2.4-.18 5-.54 10.4 0 .5.06.8 2.88.8 2.28 0 3.3 0 3.3-.7-.36-5.4-.48-8-.54-10.6 2.34.1 4.32.2 7.92.6h.12zm-.66-31.2c.42 0 .54-.3.54-2.3 0-.9 0-1.9-.06-2.4a.6.6 0 00-.6-.5 56.365 56.365 0 01-7.32.5c.06-2.2.24-2.2.78-3.2a6.774 6.774 0 00.9-1.7c0-.9-5.46-1.9-7.08-2-.3 0-.48.1-.48.3 0 .1.06.2.06.3a38.72 38.72 0 01.78 6.3c-1.98-.1-4.2-.2-7.439-.5-.6 0-.78 0-.78 2.2 0 2.8 0 2.9.78 2.9 3.24-.2 5.519-.4 7.559-.5v4.6c-2.28 0-4.559-.1-10.319-.5h-.24c-.42 0-.48.3-.48 2.7 0 2.2.06 2.5.72 2.5 7.919-.5 9.239-.5 13.139-.5 4.2 0 4.08 0 11.7.5a.7.7 0 00.6-.4 18.95 18.95 0 00.12-2.1c0-1.7-.06-2.7-.78-2.7-4.86.4-6.42.4-7.98.5h-1.62v-4.6c2.16.1 3.9.2 7.38.6h.12zm14.579 14.5c-.18 0-3.9.1-3.9.9a44.335 44.335 0 004.38 15.1 28.353 28.353 0 01-5.28 6.7c-.36-9.4-.42-14.7-.42-23.8 1.5 0 4.62-.1 5.82-.1h4.92a47.023 47.023 0 01-2.52 11.6 32.683 32.683 0 01-2.34-10.1.345.345 0 00-.42-.3h-.24z" fill="#573001" fill-rule="evenodd"/></svg>