<svg xmlns="http://www.w3.org/2000/svg" width="7.203" height="51.655" viewBox="0 0 14.407 103.31"><path id="_50_concept_sub_heading_sm.svg" data-name="50% concept_sub_heading_sm.svg" d="M183.467 2039.27a7.171 7.171 0 00-7.182 7.22 6.865 6.865 0 001.941 4.86.381.381 0 00.54.02l1.28-1.24a.368.368 0 000-.5 4.8 4.8 0 01-1.14-3.06 4.644 4.644 0 019.282-.02 4.732 4.732 0 01-1.18 3.08.32.32 0 000 .5l1.26 1.22a.372.372 0 00.56-.02 6.769 6.769 0 001.86-4.84 7.2 7.2 0 00-7.221-7.22zm0 15.64a7.19 7.19 0 107.221 7.18 7.137 7.137 0 00-7.221-7.18zm0 2.6a4.59 4.59 0 11-4.581 4.58 4.627 4.627 0 014.581-4.58zm-6.6 16.4a.394.394 0 00-.381.38v1.82a.38.38 0 00.381.38h8.6v.02l-9.182 8.36v.48a.376.376 0 00.36.38h13.463a.393.393 0 00.38-.38v-1.84a.38.38 0 00-.38-.38h-8.261v-.02l8.841-8.32v-.5a.376.376 0 00-.36-.38h-13.462zm6.6 16.44a7.171 7.171 0 00-7.182 7.22 6.865 6.865 0 001.941 4.86.381.381 0 00.54.02l1.28-1.24a.368.368 0 000-.5 4.8 4.8 0 01-1.14-3.06 4.644 4.644 0 019.282-.02 4.732 4.732 0 01-1.18 3.08.32.32 0 000 .5l1.26 1.22a.372.372 0 00.56-.02 6.769 6.769 0 001.86-4.84 7.2 7.2 0 00-7.221-7.22zm-6.6 16.7a.38.38 0 00-.381.38v8.14a.38.38 0 00.381.38h1.64a.38.38 0 00.38-.38v-5.92h3.5v4.94a.38.38 0 00.38.38h1.66a.393.393 0 00.38-.38v-4.94h3.281v5.92a.38.38 0 00.38.38h1.64a.38.38 0 00.38-.38v-8.14a.38.38 0 00-.38-.38h-13.242zm0 13.76a.38.38 0 00-.381.38v1.84a.394.394 0 00.381.38h4.7v2.5a4.461 4.461 0 108.921-.02v-4.7a.38.38 0 00-.38-.38h-13.242zm7.141 2.6h4.021v2.32a2 2 0 01-1.941 2.06 2.061 2.061 0 01-2.08-2.06v-2.32zm-7.141 13.12a.394.394 0 00-.381.38v1.86a.394.394 0 00.381.38h11.222v3.06a.38.38 0 00.38.38h1.64a.38.38 0 00.38-.38v-8.74a.38.38 0 00-.38-.38h-1.64a.38.38 0 00-.38.38v3.06h-11.223z" transform="translate(-176.281 -2039.28)" fill="#f0af49" fill-rule="evenodd"/></svg>