<svg xmlns="http://www.w3.org/2000/svg" width="25.594" height="152.28" viewBox="0 0 51.188 304.56"><path data-name="50% concept_heading.svg" d="M39.66 45.77c.72-.18.9-.36.9-3.3s-.18-3.72-.72-3.72a1.321 1.321 0 00-.48.06 68.848 68.848 0 01-15.479 2.34c-6.42 0-11.1-1.86-12.84-6.78a1 1 0 00-.84-.84 29.263 29.263 0 00-4.2 1.98.689.689 0 00-.36.66.652.652 0 00.06.3c2.58 7.92 10.02 10.92 19.74 10.92a72.782 72.782 0 0014.219-1.62zM11.344 10.61c-1.02 0-1.74 4.68-1.74 5.22 0 .42.18.84 4.32.84 1.92 0 3.96-.12 6.48-.12a61.5 61.5 0 0114.039 1.62 2.6 2.6 0 01.3.06.584.584 0 00.6-.48 35.1 35.1 0 00.54-4.98c0-.72-.06-.84-.84-.96a86.3 86.3 0 00-13.379-1.14c-2.88 0-5.1.18-6.96.18a18.006 18.006 0 01-3.18-.24h-.18zm33.179-.12c0-1.2-6.12-7.08-6.54-7.08-.12 0-3.06 1.44-3.06 2.22a.388.388 0 00.12.3 62.218 62.218 0 015.58 6.84.611.611 0 00.54.42c.597 0 3.357-1.92 3.357-2.7zm6.66-3.42c0-.66-5.7-7.08-6.48-7.08-.12 0-3.06 1.44-3.06 2.22a.388.388 0 00.12.3 62.218 62.218 0 015.58 6.84.611.611 0 00.54.42c.361 0 3.297-1.74 3.297-2.7zm-16.38 72.48a22.344 22.344 0 00-.48-3.78.525.525 0 00-.54-.48.761.761 0 00-.36.06 62.555 62.555 0 01-10.739 3.48l.48-2.1c.3-1.38 1.74-2.16 1.74-2.88 0-1.32-6.36-2.16-6.96-2.16-.24 0-.3.06-.3.36v1.08c0 1.44-.3 3.84-.6 6.72a40.844 40.844 0 01-4.68.3 32.423 32.423 0 01-5.46-.48h-.3a.475.475 0 00-.54.6c0 4.38.9 4.74 1.38 4.8a23.945 23.945 0 003.66.24c1.74 0 3.6-.18 5.4-.36-.24 2.28-.48 4.8-.66 7.32-5.58 2.7-13.319 7.86-13.319 16.98 0 3.36 1.62 6.12 5.219 6.12 1.32 0 4.26-.36 9-3.66.66 3.12.9 3.42 1.26 3.42a.761.761 0 00.36-.06c.84-.24 3.24-1.74 4.14-2.16a.8.8 0 00.48-.6.22.22 0 00-.06-.18 19.309 19.309 0 01-1.5-4.32 56.056 56.056 0 0010.019-13.56c8.46 1.68 8.46 8.1 8.46 8.64 0 5.16-5.04 11.16-18.359 12.72-.48.06-.6.12-.6.24a.636.636 0 00.24.36 15.5 15.5 0 013 3.36 1.047 1.047 0 001.08.54c4.8 0 20.939-4.56 20.939-17.04 0-4.74-2.76-10.98-12.6-13.32.36-.3 1.38-.84 1.38-1.38 0-1.02-5.579-3.12-6.3-3.12-.3 0-.3.36-.36.6a24.535 24.535 0 01-.78 3.36 26.174 26.174 0 00-6.72 1.08c.24-2.16.54-4.2.84-6.12a85.466 85.466 0 0012.3-3.24 1.2 1.2 0 00.84-1.14v-.24zm-19.2 20.34c0 2.16.06 4.26.24 6.3-2.58 2.22-5.16 3.66-6.24 3.66-1.02 0-1.38-.84-1.38-1.92 0-5.04 4.38-8.04 7.38-10.02v1.98zm10.14-5.82a45.681 45.681 0 01-5.46 8.4c-.06-1.02-.12-2.1-.12-3.12 0-1.26.06-2.58.12-3.84a22.257 22.257 0 015.461-1.44zm-10.5 83.22c4.74 0 7.98-6.42 7.98-8.58a1.341 1.341 0 00-.54-1.02 14.7 14.7 0 01-2.76-3.78 1.068 1.068 0 00-.42-.54 1.011 1.011 0 00-.24.48c-1.98 5.52-3.24 6.78-4.38 6.78-.72 0-6.84-2.1-6.84-15.48 0-1.68.12-3.42.24-5.1.18-1.92 1.26-2.94 1.26-3.66 0-1.2-6.179-1.56-6.6-1.56-.66 0-.9.42-.9 7.62.001 24.66 12.958 24.84 13.201 24.84zm17.879-28.02a.583.583 0 00-.18.96c1.56 1.74 7.5 9.3 9.12 16.08a.683.683 0 00.6.6c.78 0 5.82-2.4 5.82-3.18 0-2.58-9.96-16.5-11.46-16.5a.97.97 0 00-.6.24zm-6.359 65.82a50.9 50.9 0 005.219 8.76c-1.26-.12-3.479-.24-6.119-.24a46 46 0 00-10.92 1.14c-5.28 1.38-7.92 4.8-7.92 8.4 0 6.6 7.5 11.82 18.36 11.82 6.839 0 7.439-1.14 7.619-2.1.24-1.14.96-3.06 1.26-4.32a3.918 3.918 0 00.12-.66.159.159 0 00-.18-.18 2.446 2.446 0 00-.42.12 37.9 37.9 0 01-8.879 1.2c-6.66 0-11.46-2.34-11.46-5.58 0-3.96 5.76-4.68 10.62-4.68a34.262 34.262 0 019 1.14 8.325 8.325 0 013.18 1.56 1.264 1.264 0 00.66.24c.6 0 4.92-1.5 4.92-2.28a.441.441 0 00-.12-.36 99.117 99.117 0 01-9.78-15.24c7.02-2.1 7.26-2.82 7.26-3.24 0-.72-2.28-4.92-2.82-4.92a.853.853 0 00-.36.12 41.47 41.47 0 01-6.479 2.46 16.736 16.736 0 01-1.2-5.34c0-.84.18-1.56.18-2.04 0-.54-.12-.96-2.28-.96-.12 0-4.74 0-4.74.72a40.065 40.065 0 002.76 8.94 48.267 48.267 0 01-8.82.84 38.747 38.747 0 01-8.4-.9 1.351 1.351 0 00-.42-.06c-.3 0-.42.12-.42 2.1 0 3.96.42 4.26 1.02 4.38a41.475 41.475 0 006.78.48 66.493 66.493 0 0012.777-1.32zm9.179 84.9c7.26-4.08 10.14-9.36 10.14-14.34 0-2.28-1.38-14.64-17.219-14.64a50.178 50.178 0 00-15.72 3c-4.74 1.62-10.139 3.96-12.659 4.44a.465.465 0 00-.48.42c0 .84 4.2 5.34 4.86 5.34a2.253 2.253 0 001.079-.42c12.36-6.9 20.28-7.26 22.68-7.26 8.639 0 10.859 5.58 10.859 8.88 0 5.82-6.6 12.42-25.739 14.1-.54.06-.84.12-.84.36a2 2 0 00.48.78c1.44 1.62 1.26.96 2.58 3.06a1.439 1.439 0 001.5.84c2.218 0 12.058-.96 18.481-4.56z" fill="#573001" fill-rule="evenodd"/></svg>