<svg xmlns="http://www.w3.org/2000/svg" width="62.453" height="8.6" viewBox="0 0 124.906 17.2"><path data-name="50% footer_pagetop_sm.svg" d="M.009 16.5a.458.458 0 00.456.5h2.208a.472.472 0 00.456-.5v-5.6h3A5.35 5.35 0 106.105.2H.465a.437.437 0 00-.456.4v15.9zM3.129 8V3.1h2.784a2.4 2.4 0 012.472 2.4A2.487 2.487 0 015.913 8H3.129zm10.776 9h2.088a.8.8 0 00.7-.5l1.176-2.6h7.177l1.176 2.6a.755.755 0 00.7.5h2.088a.409.409 0 00.408-.6L22.026.2a.5.5 0 00-.409-.3h-.24a.543.543 0 00-.408.3l-7.464 16.2a.409.409 0 00.4.6zm5.136-5.8L21.393 6h.072l2.4 5.2H19.04zm13.632-2.6a8.565 8.565 0 008.617 8.6 11.908 11.908 0 005.952-1.6.394.394 0 00.192-.4V9.1a.524.524 0 00-.432-.5h-4.608a.458.458 0 00-.456.5V11a.437.437 0 00.456.4h1.92v2.1a7.355 7.355 0 01-2.856.6 5.448 5.448 0 01-5.4-5.5 5.384 5.384 0 019-4.2.4.4 0 00.624 0l1.488-1.6a.385.385 0 00-.024-.6A9.1 9.1 0 0041.29-.1a8.65 8.65 0 00-8.617 8.7zm20.688 7.9a.458.458 0 00.456.5h9.769a.458.458 0 00.456-.5v-1.9a.458.458 0 00-.456-.5h-7.105V9.9h5.929a.472.472 0 00.456-.5v-2a.454.454 0 00-.456-.4h-5.929V3.1h7.105a.524.524 0 00.456-.5v-2a.437.437 0 00-.456-.4h-9.769a.437.437 0 00-.456.4v15.9zm26.472 0a.472.472 0 00.456.5h2.232a.472.472 0 00.456-.5V3.1h3.672a.524.524 0 00.456-.5v-2a.437.437 0 00-.456-.4H76.161a.437.437 0 00-.457.4v2a.524.524 0 00.457.5h3.672v13.4zm10.8-7.9a8.629 8.629 0 0017.257 0 8.629 8.629 0 10-17.257 0zm3.12 0a5.509 5.509 0 115.5 5.5 5.53 5.53 0 01-5.497-5.5zm19.679 7.9a.458.458 0 00.456.5h2.209a.472.472 0 00.456-.5v-5.6h3a5.35 5.35 0 10-.024-10.7h-5.641a.437.437 0 00-.456.4v15.9zm3.121-8.5V3.1h2.784a2.4 2.4 0 012.472 2.4 2.487 2.487 0 01-2.472 2.5h-2.781z" fill="#573001" fill-rule="evenodd"/></svg>