<svg xmlns="http://www.w3.org/2000/svg" width="190.688" height="7.2" viewBox="0 0 381.375 14.4"><path data-name="50% footer_copyright_sm.svg" d="M-.009 7.2A7.192 7.192 0 107.172 0 7.244 7.244 0 00-.009 7.2zm1.56 0a5.622 5.622 0 115.621 5.6 5.609 5.609 0 01-5.621-5.6zm2.061 0a3.773 3.773 0 003.74 3.8 3.362 3.362 0 002.281-.9.335.335 0 00.02-.5l-.72-.8a.343.343 0 00-.5-.1 2.027 2.027 0 01-1.06.3 1.79 1.79 0 01-1.841-1.8 1.814 1.814 0 011.841-1.9 2.1 2.1 0 011.08.3.453.453 0 00.5 0l.68-.8a.419.419 0 00-.04-.6 3.635 3.635 0 00-2.241-.7 3.688 3.688 0 00-3.74 3.7zm22.838 0a7.188 7.188 0 007.222 7.2 6.6 6.6 0 004.861-2 .335.335 0 00.02-.5l-1.24-1.3a.453.453 0 00-.5 0 4.747 4.747 0 01-3.061 1.2 4.6 4.6 0 01-4.481-4.7 4.488 4.488 0 017.542-3.4.454.454 0 00.5 0l1.22-1.3a.417.417 0 00-.02-.6A6.812 6.812 0 0033.672 0a7.188 7.188 0 00-7.222 7.2zm16.22 7h1.741a.6.6 0 00.58-.4l.98-2.2h5.981l.98 2.2a.553.553 0 00.581.4h1.74a.35.35 0 00.34-.5L49.432.2a.355.355 0 00-.34-.2h-.2a.378.378 0 00-.341.2L42.33 13.7a.35.35 0 00.34.5zm4.281-4.8L48.912 5h.06l2 4.4h-4.021zm13.459 4.4a.4.4 0 00.38.4h1.841a.412.412 0 00.38-.4V8.7h4.941a.33.33 0 00.38-.3V6.7a.412.412 0 00-.38-.4h-4.941V2.6h5.921a.4.4 0 00.38-.4V.6a.4.4 0 00-.38-.4H60.79a.4.4 0 00-.38.4v13.2zm14.08-4.9a5.572 5.572 0 0011.143 0V.6a.412.412 0 00-.38-.4h-1.9a.4.4 0 00-.38.4v8.2a2.914 2.914 0 11-5.821-.1V.6a.4.4 0 00-.38-.4h-1.9a.412.412 0 00-.38.4v8.3zm17.38 0a5.572 5.572 0 0011.143 0V.6a.413.413 0 00-.381-.4h-1.9a.4.4 0 00-.38.4v8.2a2.914 2.914 0 11-5.821-.1V.6a.4.4 0 00-.38-.4h-1.9a.412.412 0 00-.38.4v8.3zm23.52 5.3h1.74a.6.6 0 00.58-.4l.98-2.2h5.982l.98 2.2a.553.553 0 00.58.4h1.74a.35.35 0 00.34-.5L122.151.2a.355.355 0 00-.34-.2h-.2a.377.377 0 00-.34.2l-6.221 13.5a.35.35 0 00.34.5zm4.281-4.8l1.96-4.4h.06l2 4.4h-4.02zm13.459 4.4a.4.4 0 00.38.4h7.321a.4.4 0 00.381-.4v-1.6a.4.4 0 00-.381-.4h-5.1V.6a.412.412 0 00-.38-.4h-1.84a.4.4 0 00-.38.4v13.2zm13.1 0a.4.4 0 00.38.4h7.321a.4.4 0 00.38-.4v-1.6a.4.4 0 00-.38-.4h-5.1V.6a.412.412 0 00-.38-.4h-1.84a.4.4 0 00-.38.4v13.2zm20.519 0a.4.4 0 00.38.4h1.841a.412.412 0 00.38-.4V8.7h2.22l2.661 5.3a.324.324 0 00.32.2h2.1a.386.386 0 00.34-.6l-2.74-5.1a4.4 4.4 0 002.961-4 4.32 4.32 0 00-4.361-4.3h-5.722a.4.4 0 00-.38.4v13.2zm2.621-7.2v-4h3.261a2 2 0 011.98 1.9 2.105 2.105 0 01-1.98 2.1h-3.261zm13.7 7.2a.412.412 0 00.38.4h1.86a.413.413 0 00.381-.4V.6a.413.413 0 00-.381-.4h-1.86a.412.412 0 00-.38.4v13.2zm8.26-6.6a7.166 7.166 0 007.181 7.2 10.107 10.107 0 004.961-1.3.57.57 0 00.16-.4V7.6a.4.4 0 00-.36-.4h-3.842a.4.4 0 00-.38.4v1.6a.4.4 0 00.38.4h1.6v1.7a7.719 7.719 0 01-2.381.5 4.555 4.555 0 01-4.5-4.6 4.639 4.639 0 014.481-4.7 4.388 4.388 0 013.021 1.2.3.3 0 00.52 0l1.24-1.3a.436.436 0 00-.02-.6A7.839 7.839 0 00198.51 0a7.166 7.166 0 00-7.181 7.2zm18.24 6.6a.412.412 0 00.38.4h1.86a.4.4 0 00.38-.4V8.3h6.521v5.5a.4.4 0 00.381.4h1.84a.412.412 0 00.38-.4V.6a.412.412 0 00-.38-.4h-1.84a.4.4 0 00-.381.4v5.3h-6.521V.6a.4.4 0 00-.38-.4h-1.86a.412.412 0 00-.38.4v13.2zm20.26 0a.412.412 0 00.38.4h1.86a.412.412 0 00.38-.4V2.6h3.061a.4.4 0 00.38-.4V.6a.4.4 0 00-.38-.4h-8.742a.4.4 0 00-.38.4v1.6a.4.4 0 00.38.4h3.061v11.2zm10.419-1a6.3 6.3 0 004.4 1.6c2.821 0 4.6-1.9 4.6-4 0-2.6-2.24-3.7-4.181-4.5-1.62-.7-2.36-1.3-2.36-2.2a1.555 1.555 0 011.76-1.4 6.585 6.585 0 012.781 1.1.557.557 0 00.7-.3l.76-1.1a.543.543 0 00-.12-.7 7.1 7.1 0 00-4-1.3c-3.181 0-4.5 2-4.5 3.8 0 2.4 1.881 3.6 3.761 4.3 1.68.7 2.54 1.4 2.54 2.4a1.689 1.689 0 01-1.82 1.6 6.113 6.113 0 01-3.021-1.3.5.5 0 00-.68.2l-.72 1.2a.4.4 0 00.099.6zm21.98 1a.4.4 0 00.38.4h1.841a.412.412 0 00.38-.4V8.7h2.22l2.661 5.3a.324.324 0 00.32.2h2.1a.386.386 0 00.34-.6l-2.74-5.1a4.4 4.4 0 002.96-4A4.319 4.319 0 00268.33.2h-5.721a.4.4 0 00-.38.4v13.2zm2.621-7.2v-4h3.26a2 2 0 011.981 1.9 2.106 2.106 0 01-1.981 2.1h-3.26zm13.7 7.2a.4.4 0 00.38.4h8.142a.4.4 0 00.38-.4v-1.6a.4.4 0 00-.38-.4h-5.922V8.3h4.941a.412.412 0 00.38-.4V6.2a.33.33 0 00-.38-.3h-4.941V2.6h5.922a.4.4 0 00.38-.4V.6a.4.4 0 00-.38-.4h-8.142a.4.4 0 00-.38.4v13.2zm14.04-1a6.3 6.3 0 004.4 1.6c2.821 0 4.6-1.9 4.6-4 0-2.6-2.24-3.7-4.18-4.5-1.621-.7-2.361-1.3-2.361-2.2a1.555 1.555 0 011.76-1.4 6.579 6.579 0 012.781 1.1.557.557 0 00.7-.3l.76-1.1a.543.543 0 00-.12-.7 7.1 7.1 0 00-4-1.3c-3.18 0-4.5 2-4.5 3.8 0 2.4 1.881 3.6 3.761 4.3 1.681.7 2.541 1.4 2.541 2.4a1.689 1.689 0 01-1.821 1.6 6.108 6.108 0 01-3.02-1.3.5.5 0 00-.68.2l-.72 1.2a.4.4 0 00.097.6zm14.56 1a.4.4 0 00.38.4h8.141a.4.4 0 00.38-.4v-1.6a.4.4 0 00-.38-.4h-5.921V8.3h4.941a.412.412 0 00.38-.4V6.2a.33.33 0 00-.38-.3h-4.941V2.6h5.921a.4.4 0 00.38-.4V.6a.4.4 0 00-.38-.4h-8.141a.4.4 0 00-.38.4v13.2zm14.759 0a.4.4 0 00.381.4h1.84a.412.412 0 00.38-.4V8.7h2.221l2.66 5.3a.324.324 0 00.32.2h2.1a.386.386 0 00.34-.6l-2.741-5.1a4.4 4.4 0 002.961-4A4.32 4.32 0 00328.01.2h-5.721a.4.4 0 00-.381.4v13.2zm2.621-7.2v-4h3.261a2 2 0 011.98 1.9 2.105 2.105 0 01-1.98 2.1h-3.261zm18.06 7.6a.377.377 0 00.34.2h.2a.377.377 0 00.34-.2l6.2-13.5a.333.333 0 00-.34-.5h-2.041a.355.355 0 00-.34.2L343.108 9h-.14L339.127.4a.355.355 0 00-.34-.2h-2.04a.333.333 0 00-.34.5zm11.9-.4a.4.4 0 00.38.4h8.142a.4.4 0 00.38-.4v-1.6a.4.4 0 00-.38-.4h-5.921V8.3h4.941a.412.412 0 00.38-.4V6.2a.33.33 0 00-.38-.3h-4.941V2.6h5.921a.4.4 0 00.38-.4V.6a.4.4 0 00-.38-.4h-8.142a.4.4 0 00-.38.4v13.2zm14.76 0a.4.4 0 00.36.4h4.741a7 7 0 100-14h-4.741a.4.4 0 00-.36.4v13.2zm2.581-2.1V2.6h2.28a4.444 4.444 0 014.5 4.6 4.361 4.361 0 01-4.5 4.5h-2.28z" fill="#fff" fill-rule="evenodd"/></svg>