<svg xmlns="http://www.w3.org/2000/svg" width="75.39" height="7.205" viewBox="0 0 150.781 14.41"><path id="_50_fv_recommendation_sub_heading.svg" data-name="50% fv_recommendation_sub_heading.svg" d="M403.944 1307.45a.393.393 0 00.38.38h1.862a.393.393 0 00.38-.38v-11.23h3.063a.381.381 0 00.381-.38v-1.64a.381.381 0 00-.381-.38h-8.748a.38.38 0 00-.38.38v1.64a.38.38 0 00.38.38h3.063v11.23zm9-6.61a7.2 7.2 0 107.187-7.22 7.148 7.148 0 00-7.188 7.22zm2.6 0a4.594 4.594 0 114.584 4.58 4.628 4.628 0 01-4.582-4.58zm16.4 6.61a.377.377 0 00.361.38h4.744a7.005 7.005 0 100-14.01h-4.744a.377.377 0 00-.361.38v13.25zm2.583-2.07v-9.14h2.282a4.57 4.57 0 010 9.14h-2.282zm12.578 2.45h1.742a.6.6 0 00.58-.4l.981-2.17h5.992l.981 2.17a.575.575 0 00.58.4h1.739a.353.353 0 00.34-.52l-6.165-13.47a.341.341 0 00-.341-.22h-.2a.359.359 0 00-.34.22l-6.226 13.47a.353.353 0 00.339.52zm4.284-4.79l1.962-4.4h.06l2 4.4h-4.024zm14.1 4.41a.381.381 0 00.381.38h1.841a.394.394 0 00.381-.38v-6.39l4.624-6.66a.37.37 0 00-.32-.58h-2.062a.4.4 0 00-.32.18l-3.2 4.6-3.2-4.6a.4.4 0 00-.321-.18h-2.042a.37.37 0 00-.32.58l4.564 6.68v6.37zm10.539-8.09a.305.305 0 00.46.02 4.83 4.83 0 001.8-3.62c0-1.64-.941-2.14-1.661-2.14a1.361 1.361 0 00-1.422 1.34 1.324 1.324 0 001.341 1.32 2.182 2.182 0 00.6-.1 3.231 3.231 0 01-1.361 2.44.306.306 0 00-.04.46zm5.56 7.93a4.54 4.54 0 002.663.74c2.022 0 3.183-1.12 3.183-2.45 0-1.56-1.161-2.22-2.7-2.82-.74-.3-1.1-.42-1.1-.78 0-.26.2-.46.681-.46a4.749 4.749 0 011.662.42.383.383 0 00.48-.14l.5-1.02a.425.425 0 00-.18-.54 4.607 4.607 0 00-2.462-.62c-2.042 0-2.943 1.14-2.943 2.36s.721 2.04 2.262 2.64c1.061.42 1.342.64 1.342 1.01a.558.558 0 01-.681.5 4.466 4.466 0 01-1.822-.48.293.293 0 00-.46.14l-.541 1.08a.344.344 0 00.12.42zm16.643.16a.394.394 0 00.381.38h1.861a.394.394 0 00.381-.38v-13.25a.394.394 0 00-.381-.38h-1.861a.394.394 0 00-.381.38v13.25zm8.261 0a.381.381 0 00.381.38h1.841a.394.394 0 00.381-.38v-4.71h2.5a4.46 4.46 0 10-.02-8.92h-4.7a.381.381 0 00-.381.38v13.25zm2.6-7.15v-4.02h2.322a2 2 0 012.062 1.94 2.062 2.062 0 01-2.062 2.08H509.1zm11.239 7.15a.38.38 0 00.381.38h1.841a.394.394 0 00.381-.38v-4.71h2.5a4.46 4.46 0 10-.02-8.92h-4.7a.38.38 0 00-.381.38v13.25zm2.6-7.15v-4.02h2.322a2 2 0 012.062 1.94 2.062 2.062 0 01-2.062 2.08h-2.322zm8.978 7.53h1.742a.6.6 0 00.58-.4l.981-2.17h5.986l.98 2.17a.577.577 0 00.581.4h1.742a.353.353 0 00.34-.52l-6.166-13.47a.34.34 0 00-.34-.22h-.2a.361.361 0 00-.341.22l-6.225 13.47a.353.353 0 00.35.52zm4.284-4.79l1.962-4.4h.06l2 4.4H536.2zm12.459 4.41a.394.394 0 00.381.38h1.862a.393.393 0 00.38-.38v-13.25a.393.393 0 00-.38-.38h-1.862a.394.394 0 00-.381.38v13.25z" transform="translate(-400.5 -1293.62)" fill="#f0af49" fill-rule="evenodd"/></svg>