<svg xmlns="http://www.w3.org/2000/svg" width="183.922" height="27.175" viewBox="0 0 367.844 54.35"><path data-name="50% gallery_heading.svg" d="M16.253 22.14a38.328 38.328 0 007.079-2.76.973.973 0 00.48-.96c0-.12-1.08-4.5-1.98-4.5a.853.853 0 00-.36.12 29.809 29.809 0 01-5.1 2.64c.06-1.44.18-2.88.36-4.26s1.08-2.28 1.08-2.94c0-1.2-4.8-1.56-6.36-1.56h-.36c-.48 0-.6 0-.6.36a2.067 2.067 0 00.06.54c.36 2.1.66 8.64.66 9.24a32.711 32.711 0 01-6.06.66 19.417 19.417 0 01-3.84-.36h-.3c-.36 0-.42.12-.42.42a20.371 20.371 0 001.26 4.8c.3.48.9.66 2.58.66a34.655 34.655 0 006.9-.84c.06 1.26.06 2.58.06 3.96 0 1.32 0 2.64-.06 3.96C-.008 37.5-.008 42.24-.008 42.9c0 4.68 7.5 7.44 10.74 7.44s5.94-1.74 5.94-6.78c0-.12 0-.78-.3-8.94a26.3 26.3 0 0110.979-2.52c3.42 0 8.46.96 8.46 4.8 0 3.78-4.8 7.38-8.16 7.38-2.16 0-3.9-1.32-4.38-3.96-.12-.6-.18-.78-.3-.78a.913.913 0 00-.36.24 30.469 30.469 0 01-3.24 2.52 1.009 1.009 0 00-.6.9c0 1.44 1.8 6.72 8.819 6.72 7.38 0 14.64-6.96 14.64-13.02 0-7.26-7.86-10.02-14.52-10.02a29.632 29.632 0 00-11.459 2.52v-7.26zm27.059 1.5c.719 0 2.519-4.8 2.519-5.22s-5.459-3.9-14.4-4.38a.523.523 0 00-.6.42 32.121 32.121 0 00-1.44 4.26.442.442 0 00.48.48 23.182 23.182 0 0113.14 4.32.388.388 0 00.301.12zM11.333 36.9c.06 1.2.06 2.4.06 3.54 0 4.08-.18 4.86-1.74 4.86-1.08 0-3.78-.78-3.78-2.58a3.2 3.2 0 01.96-2.04 28.774 28.774 0 014.5-3.78zm86.279 15.72c0 .48.3.66 2.16.66 2.88 0 3.9-.18 3.9-.66 0-.12-.06-.3-.06-.48-.36-4.02-.36-7.02-.36-10.08 0-2.1.06-4.98.3-7.98v-.18a.538.538 0 00-.6-.6h-.18c-3.54.18-8.58.3-11.94.3 0-2.1-.06-4.68-.06-6.9 4.08 0 7.86.06 15.06.6a.538.538 0 00.6-.42c.06-.48.06-1.38.06-2.28s0-1.8-.06-2.34a.538.538 0 00-.6-.6c-7.44.54-10.86.6-15.06.6v-.54c.12-3.72.24-2.94.96-4.14a2.849 2.849 0 00.6-1.44c0-1.38-6.24-1.86-7.2-1.92-.36 0-.42.06-.42.3v.3a61.937 61.937 0 01.659 8.64V33.6c-3.659-.06-8.159-.12-10.019-.24h-.42c-.36 0-.48.06-.48.24 0 .12.06.3.06.48.24 2.82.24 5.82.24 9.36a76.551 76.551 0 01-.48 9.36v.3c0 .66.54.78 3 .78 3.12 0 3.12-.24 3.12-.96 0-.78-.06-1.56-.06-2.28 2.04-.06 7.379-.12 8.879-.12s6.54.06 8.46.12c0 .6 0 1.2-.06 1.86v.12zm10.92-44.22a.513.513 0 00-.6-.48h-.12c-8.7.54-14.94.54-18.42.54a16.546 16.546 0 01.42-2.7c.3-.96 1.26-1.98 1.26-2.64a.879.879 0 00-.78-.72 43.16 43.16 0 00-7.079-1.14c-.18 0-.3.06-.3.18s.06.18.06.3a38.3 38.3 0 01.66 6.72c-5.88-.06-14.16-.24-17.88-.6h-.3c-.3 0-.48.06-.48.36a1.171 1.171 0 00.06.42 65.671 65.671 0 011.02 12.18c0 9.78-1.74 22.02-8.1 28.86a1.074 1.074 0 00-.3.42c0 .18.18.24.48.3a22.3 22.3 0 015.1 1.32 1.78 1.78 0 00.66.24.682.682 0 00.6-.42c5.7-8.58 7.2-20.76 7.2-32.22 0-2.1-.06-4.14-.12-6.12 2.52 0 13.2-.06 16.379-.06 3.3 0 10.68.06 19.86.54a.583.583 0 00.66-.6c.06-.84.06-2.22.06-3.36V8.4zm-10.74 37.56c-1.92.06-7.26.12-8.64.12-1.32 0-6.9-.06-8.879-.12v-2.7c0-2.1.06-5.1.06-5.1l8.819-.06c2.1 0 8.58.06 8.58.06s.06 3.36.06 4.98v2.82zm53.46 3.54c15.18-1.56 21.3-10.44 21.3-18.9 0-11.04-9.72-18.06-21.419-18.06-13.26 0-23.46 9.3-23.46 20.88 0 8.88 6.24 13.08 9.24 13.08a4.137 4.137 0 003.48-2.1c6.42-9.48 12.719-24.6 13.379-26.04a1 1 0 01.96-.78h.18c7.44 1.62 11.52 7.14 11.52 12.66 0 6.96-6.48 13.98-20.279 14.28-.36 0-.66.06-.66.3a1.153 1.153 0 00.42.6 14.183 14.183 0 012.88 3.06 2.176 2.176 0 002.04 1.02h.419zm-3.719-31.98c-1.02 2.94-5.88 14.7-10.56 21.36a1.022 1.022 0 01-.78.48c-1.5 0-3-3.48-3-6.24 0-6.9 6.18-14.1 14.34-15.6zm76.2 30.96c.72-.18.9-.36.9-3.3s-.18-3.72-.72-3.72a1.321 1.321 0 00-.48.06 68.856 68.856 0 01-15.48 2.34c-6.419 0-11.1-1.86-12.839-6.78a1 1 0 00-.84-.84 29.263 29.263 0 00-4.2 1.98.689.689 0 00-.36.66.652.652 0 00.06.3c2.58 7.92 10.02 10.92 19.739 10.92a72.791 72.791 0 0014.22-1.62zm-28.319-35.16c-1.02 0-1.74 4.68-1.74 5.22 0 .42.18.84 4.32.84 1.92 0 3.96-.12 6.48-.12a61.51 61.51 0 0114.039 1.62 2.6 2.6 0 01.3.06.584.584 0 00.6-.48 35.1 35.1 0 00.54-4.98c0-.72-.06-.84-.84-.96a86.323 86.323 0 00-13.379-1.14c-2.88 0-5.1.18-6.96.18a18.006 18.006 0 01-3.18-.24h-.18zm33.179-.12c0-1.2-6.12-7.08-6.54-7.08-.12 0-3.06 1.44-3.06 2.22a.388.388 0 00.12.3 62.218 62.218 0 015.58 6.84.611.611 0 00.54.42c.6 0 3.36-1.92 3.36-2.7zm6.659-3.42c0-.66-5.7-7.08-6.479-7.08-.12 0-3.06 1.44-3.06 2.22a.388.388 0 00.12.3 62.218 62.218 0 015.58 6.84.611.611 0 00.54.42c.359 0 3.299-1.74 3.299-2.7zm51.54 16.98c4.98 0 7.26-1.32 8.82-5.34 1.92-4.8 1.68-13.62 2.1-16.38 0-.12.06-.24.06-.36 0-.24-.12-.3-.42-.3h-.24a106.347 106.347 0 01-12.24.66c-2.159 0-8.759-.06-13.619-.6h-.18c-.54 0-.66.42-.66 2.46 0 2.94.12 3.12.66 3.12 3.18-.24 6.12-.36 8.34-.48 0 3.78-2.22 11.64-11.28 15.42-.36-.54-2.58-4.32-3.12-4.32-.48 0-3.54 1.2-3.54 1.62a33.9 33.9 0 001.8 3.12c-1.62.18-3.6.3-5.639.48 2.639-4.02 6.359-10.02 7.739-12.36a3.846 3.846 0 011.26-1.5 2.294 2.294 0 001.2-1.26c0-1.38-5.4-3.18-5.76-3.18s-.3.3-.36.6c-.36 1.74-2.1 5.46-4.139 9.3a27.663 27.663 0 00-2.76-2.16c1.5-2.58 3.66-6.54 4.559-8.46a5.3 5.3 0 011.08-1.68 2.444 2.444 0 001.14-1.38c0-1.38-5.159-2.94-5.879-2.94-.36 0-.3.3-.36.66a41.178 41.178 0 01-4.26 11.4l-1.5-.84c-.42 0-2.7 2.88-2.7 3.06a.513.513 0 00.36.36 49.417 49.417 0 017.86 6.42c-.96 1.62-1.92 3.12-2.7 4.26-1.38.06-2.64.06-3.78.06h-1.38c-.66 0-.66.18-.66.3 0 .72 1.26 5.52 2.16 5.52.42 0 .96-.54 1.68-.72.48-.12 3.06-.54 5.94-.96-.12 8.82 0 12.18-.72 22.56 0 .6.36.78 3 .78 2.7 0 3.24 0 3.24-.66-.66-9.84-.72-13.68-.78-21.48a1.437 1.437 0 01.42-1.14.974.974 0 00.48-.66.22.22 0 00-.06-.18l3.18-.48a18.725 18.725 0 01.9 2.34.505.505 0 00.42.42c.36 0 3.9-1.92 3.9-2.4a18.542 18.542 0 00-1.68-3.6 12.1 12.1 0 013.96 2.28.33.33 0 00.3.12 1.54 1.54 0 00.72-.3 23.978 23.978 0 0010.559-15.42c.3-1.08.48-1.32 1.08-1.62a1.156 1.156 0 00.78-.84.81.81 0 00-.72-.54l-.48-.12h6.96c0 2.58-.42 7.86-1.38 9.96a3.006 3.006 0 01-3.18 2.1 17.54 17.54 0 01-3.96-.6 2.573 2.573 0 01-.3-.06.151.151 0 00-.18.12.8.8 0 00.18.42c.719 1.08 2.159 2.88 2.459 4.68a.869.869 0 00.96.72h.36zm3.3 25.62c0 .54.42.6 2.46.6 3.3 0 3.42-.3 3.42-.6 0-.12-.06-.3-.06-.48-.36-3.9-.42-9.78-.42-11.4 0-1.8 0-4.92.3-8.7v-.18a.456.456 0 00-.54-.54h-.18c-3.9.18-7.74.3-10.68.3-3.059 0-8.279-.06-10.8-.24h-.42c-.36 0-.42.06-.42.18s.06.24.06.48c.06.36.18 2.04.18 8.4 0 1.74 0 8.22-.42 12v.24c0 .54.18.72 2.82.72 2.76 0 3.06 0 3.06-.84 0-.54-.06-1.2-.06-1.86 1.5-.06 4.8-.06 6.179-.06 1.32 0 4.2 0 5.58.06 0 .66-.06 1.26-.06 1.8v.12zm.18-6.54c-1.38.06-4.56.06-5.76.06s-4.679 0-6.179-.06v-5.82c0-1.98.06-4.26.06-4.26s4.14-.06 6.119-.06 5.7.06 5.7.06.06 2.64.06 4.14v5.94zm-39.418 3.3c1.02 0 2.76-8.28 3.24-10.74a3.751 3.751 0 01.6-1.68 4.72 4.72 0 00.78-1.26c0-.6-5.04-1.5-5.46-1.5-.24 0-.3.12-.3.72a32.057 32.057 0 01-4.02 13.62.855.855 0 00-.12.24c0 .18.24.24.6.24h1.14a11.311 11.311 0 013.36.36h.18zm20.519-3.18a.455.455 0 00-.12-.24 48.447 48.447 0 01-4.5-11.7c-.06-.24-.12-.3-.3-.3 0 0-3.78.6-3.78 1.14 0 1.32 2.64 10.38 3.48 12.42a.5.5 0 00.48.36.22.22 0 00.18-.06 18.383 18.383 0 014.08-1.26.54.54 0 00.48-.36zm67.44-37.26c7.5 10.14 21.359 19.14 22.379 19.14a.938.938 0 00.72-.36c1.32-1.68 4.14-3.24 5.34-4.02a1.275 1.275 0 00.6-.54.918.918 0 00-.6-.24c-11.52-4.02-20.759-11.94-25.079-17.76.72-.24 1.62-.66 1.62-1.2 0-1.26-6.12-3.72-6.48-3.72-.3 0-.3.24-.42.54-.84 3.72-10.92 18.24-26.219 24.9a1.011 1.011 0 00-.6.36.867.867 0 00.66.42c1.32.54 4.5 2.16 5.7 3.6a.545.545 0 00.42.18c1.02 0 12.419-8.4 21.959-21.3zm-20.279 45.66c12.179-4.26 15.539-13.08 15.839-20.94.06-1.86.24-8.22.9-9.12a3.372 3.372 0 00.66-1.56.629.629 0 00-.54-.66 30.024 30.024 0 00-6.42-1.14c-.3 0-.42.06-.42.3v.18a33.093 33.093 0 01.48 6.54c0 2.22-.12 4.26-.12 4.86-.24 5.94-3.36 14.46-16.319 16.2a.329.329 0 00-.3.24.548.548 0 00.18.3c1.32.9 3.9 2.34 5.28 4.5a.609.609 0 00.6.3h.18zm31.378-1.5a174.4 174.4 0 01-1.2-21.84c0-3.06.06-6.24.6-6.96a2.909 2.909 0 00.72-1.32c0-1.26-7.019-1.8-7.2-1.8-.24 0-.42.06-.42.24 0 .06.06.18.06.24.48 1.86.66 3.9.66 13.5 0 3.66-.18 12.36-.66 17.88 0 .66 0 .84 3.66.84s3.779-.24 3.779-.72v-.06z" fill="#573001" fill-rule="evenodd"/></svg>