<svg xmlns="http://www.w3.org/2000/svg" width="90.063" height="7.205" viewBox="0 0 180.125 14.41"><path id="_50_gallery_sub_heading_sm.svg" data-name="50% gallery_sub_heading_sm.svg" d="M469.958 6477.94a.38.38 0 00.38.38h1.841a.393.393 0 00.38-.38v-4.7h2.5a4.46 4.46 0 10-.02-8.92h-4.7a.38.38 0 00-.38.38v13.24zm2.6-7.14v-4.02h2.32a2 2 0 012.061 1.94 2.062 2.062 0 01-2.061 2.08h-2.32zm11.239 7.14a.393.393 0 00.38.38h1.861a.38.38 0 00.38-.38v-5.52h6.521v5.52a.38.38 0 00.38.38h1.841a.393.393 0 00.38-.38v-13.24a.393.393 0 00-.38-.38h-1.84a.38.38 0 00-.38.38v5.3h-6.521v-5.3a.38.38 0 00-.38-.38h-1.861a.393.393 0 00-.38.38v13.24zm16.38-6.6a7.192 7.192 0 107.181-7.22 7.137 7.137 0 00-7.18 7.22zm2.6 0a4.591 4.591 0 114.581 4.58 4.627 4.627 0 01-4.58-4.58zm18.14 6.6a.394.394 0 00.381.38h1.86a.393.393 0 00.38-.38v-11.22h3.062a.38.38 0 00.38-.38v-1.64a.38.38 0 00-.38-.38h-8.742a.38.38 0 00-.38.38v1.64a.38.38 0 00.38.38h3.06v11.22zm9-6.6a7.192 7.192 0 107.181-7.22 7.137 7.137 0 00-7.18 7.22zm2.6 0a4.591 4.591 0 114.581 4.58 4.627 4.627 0 01-4.58-4.58zm21.82 0a7.132 7.132 0 007.181 7.16 10.107 10.107 0 004.961-1.3.385.385 0 00.16-.32v-5.12a.376.376 0 00-.36-.38h-3.841a.368.368 0 00-.38.38v1.58a.363.363 0 00.38.36h1.6v1.7a6.263 6.263 0 01-2.381.5 4.61 4.61 0 113-8.06.342.342 0 00.52 0l1.24-1.3a.387.387 0 00-.02-.56 7.563 7.563 0 00-4.881-1.86 7.183 7.183 0 00-7.178 7.22zm15.759 6.98h1.741a.6.6 0 00.58-.4l.98-2.16h5.981l.98 2.16a.576.576 0 00.581.4h1.74a.353.353 0 00.34-.52l-6.161-13.46a.34.34 0 00-.34-.22h-.2a.359.359 0 00-.34.22l-6.222 13.46a.353.353 0 00.344.52zm4.281-4.78l1.961-4.4h.06l2 4.4h-4.021zm12.459 4.4a.38.38 0 00.381.38h7.321a.38.38 0 00.38-.38v-1.64a.38.38 0 00-.38-.38h-5.1v-11.22a.393.393 0 00-.38-.38h-1.84a.38.38 0 00-.381.38v13.24zm12.1 0a.38.38 0 00.38.38h7.322a.38.38 0 00.38-.38v-1.64a.38.38 0 00-.38-.38h-5.1v-11.22a.393.393 0 00-.38-.38h-1.841a.38.38 0 00-.38.38v13.24zm12.1 0a.38.38 0 00.38.38h8.142a.38.38 0 00.38-.38v-1.64a.38.38 0 00-.38-.38h-5.921v-3.5h4.941a.38.38 0 00.38-.38v-1.66a.393.393 0 00-.38-.38h-4.941v-3.28h5.921a.38.38 0 00.38-.38v-1.64a.38.38 0 00-.38-.38h-8.142a.38.38 0 00-.38.38v13.24zm13.76 0a.38.38 0 00.38.38h1.84a.394.394 0 00.381-.38v-5.1h2.22l2.661 5.3a.343.343 0 00.32.18h2.1a.378.378 0 00.34-.58l-2.74-5.08a4.414 4.414 0 002.96-4.04 4.332 4.332 0 00-4.361-4.3h-5.721a.38.38 0 00-.38.38v13.24zm2.621-7.24v-3.98h3.26a1.991 1.991 0 011.981 1.94 2.038 2.038 0 01-1.981 2.04h-3.26zm15.379 7.24a.38.38 0 00.38.38h1.841a.393.393 0 00.38-.38v-6.38l4.621-6.66a.37.37 0 00-.32-.58h-2.061a.4.4 0 00-.32.18l-3.2 4.6-3.2-4.6a.4.4 0 00-.32-.18h-2.041a.37.37 0 00-.32.58l4.561 6.68v6.36z" transform="translate(-469.969 -6464.12)" fill="#f0af49" fill-rule="evenodd"/></svg>