<svg xmlns="http://www.w3.org/2000/svg" width="31.266" height="7.203" viewBox="0 0 62.532 14.406"><path data-name="50% header_menu_button_label_menu.svg" d="M-.015 13.741a.367.367 0 00.381.461h1.8a.387.387 0 00.361-.3l1.161-7.586h.06l3.543 7.866a.359.359 0 00.34.22h.361a.34.34 0 00.34-.22l3.5-7.866h.06l1.181 7.586a.436.436 0 00.381.3h1.822a.348.348 0 00.36-.461L13.274.291a.338.338 0 00-.361-.3h-.32a.345.345 0 00-.34.2l-4.4 9.447h-.06L3.393.191a.367.367 0 00-.341-.2h-.32a.337.337 0 00-.36.3zm20.384.08a.38.38 0 00.38.381h8.148a.38.38 0 00.38-.381V12.18a.38.38 0 00-.38-.38h-5.926V8.3h4.945a.38.38 0 00.38-.38V6.259a.394.394 0 00-.38-.381h-4.945V2.596h5.926a.38.38 0 00.38-.381V.575a.38.38 0 00-.38-.38h-8.148a.38.38 0 00-.38.38v13.25zm13.762 0a.394.394 0 00.38.381h1.822a.38.38 0 00.38-.381V5.215h.02l8.368 9.187h.48a.377.377 0 00.381-.36V.575a.394.394 0 00-.381-.38h-1.837a.38.38 0 00-.381.38v8.267h-.019L35.017-.005h-.5a.376.376 0 00-.38.36v13.47zm17.262-4.923a5.575 5.575 0 0011.15 0V.575a.393.393 0 00-.38-.38h-1.9a.38.38 0 00-.38.38v8.2a2.915 2.915 0 11-5.826-.02V.575a.38.38 0 00-.38-.38h-1.9a.393.393 0 00-.38.38v8.327z" fill="#573001" fill-rule="evenodd"/></svg>