<svg data-name="50% header_sns_anchor_label_sm.svg" xmlns="http://www.w3.org/2000/svg" width="75.5" height="14.188" viewBox="0 0 151 28.375"><path data-name="OFFICIAL SNS" d="M.061 7.216A7.2 7.2 0 107.248-.009 7.143 7.143 0 00.061 7.216zm2.6 0A4.594 4.594 0 117.245 11.8a4.63 4.63 0 01-4.581-4.584zm16.4 6.605a.38.38 0 00.38.381h1.842a.394.394 0 00.38-.381V8.758h4.945a.394.394 0 00.38-.381V6.736a.393.393 0 00-.38-.38h-4.945V2.593h5.925a.38.38 0 00.381-.381V.575a.38.38 0 00-.381-.38h-8.147a.38.38 0 00-.38.38v13.25zm13.281 0a.381.381 0 00.381.381h1.841a.394.394 0 00.381-.381V8.758h4.944a.394.394 0 00.381-.381V6.736a.394.394 0 00-.381-.38h-4.944V2.593h5.925a.38.38 0 00.381-.381V.575a.38.38 0 00-.381-.38h-8.147a.381.381 0 00-.381.38v13.25zm13.282 0a.394.394 0 00.381.381h1.861a.394.394 0 00.381-.381V.575a.394.394 0 00-.381-.38h-1.861a.394.394 0 00-.381.38v13.25zm7.24-6.605a7.177 7.177 0 007.227 7.186 6.87 6.87 0 004.864-1.942.379.379 0 00.02-.54l-1.241-1.281a.368.368 0 00-.5 0 4.809 4.809 0 01-3.063 1.141 4.647 4.647 0 01-.02-9.287 4.735 4.735 0 013.083 1.181.32.32 0 00.5 0l1.221-1.261a.371.371 0 00-.02-.561 6.773 6.773 0 00-4.844-1.861 7.21 7.21 0 00-7.223 7.225zm16.7 6.605a.394.394 0 00.381.381h1.861a.394.394 0 00.381-.381V.575a.394.394 0 00-.381-.38h-1.861a.394.394 0 00-.381.38v13.25zm6.78.381h1.741a.6.6 0 00.581-.4l.981-2.161h5.985l.981 2.161a.576.576 0 00.581.4h1.741a.354.354 0 00.341-.521L83.11.211a.34.34 0 00-.34-.22h-.2a.36.36 0 00-.341.22l-6.225 13.47a.353.353 0 00.347.521zm4.284-4.784l1.962-4.4h.06l2 4.4h-4.024zm12.459 4.4a.38.38 0 00.381.381h7.332a.38.38 0 00.381-.381v-1.641a.38.38 0 00-.381-.38h-5.1V.575a.394.394 0 00-.381-.38h-1.841a.38.38 0 00-.381.38v13.25zm17.8-.98a6.442 6.442 0 004.4 1.561c2.823 0 4.6-1.9 4.6-3.963 0-2.582-2.242-3.743-4.184-4.524-1.621-.66-2.362-1.3-2.362-2.241a1.6 1.6 0 011.762-1.4 6.583 6.583 0 012.797 1.104.527.527 0 00.7-.24l.761-1.141a.5.5 0 00-.12-.66 7.053 7.053 0 00-4-1.341c-3.183 0-4.5 2.061-4.5 3.843 0 2.362 1.882 3.562 3.763 4.323 1.682.681 2.543 1.381 2.543 2.4a1.671 1.671 0 01-1.822 1.541 6.632 6.632 0 01-3.023-1.241.463.463 0 00-.68.14l-.721 1.241a.4.4 0 00.099.601zm13.562.98a.394.394 0 00.381.381h1.821a.38.38 0 00.381-.381V5.215h.02l8.367 9.187h.481a.376.376 0 00.38-.36V.575a.393.393 0 00-.38-.38h-1.842a.38.38 0 00-.38.38v8.267h-.02L125.33-.005h-.5a.376.376 0 00-.381.36v13.47zm16.742-.98a6.442 6.442 0 004.4 1.561c2.823 0 4.6-1.9 4.6-3.963 0-2.582-2.242-3.743-4.183-4.524-1.622-.66-2.363-1.3-2.363-2.241a1.6 1.6 0 011.762-1.4 6.6 6.6 0 012.783 1.1.526.526 0 00.7-.24l.761-1.141a.5.5 0 00-.12-.66 7.053 7.053 0 00-4-1.341c-3.183 0-4.5 2.061-4.5 3.843 0 2.362 1.882 3.562 3.763 4.323 1.682.681 2.543 1.381 2.543 2.4a1.671 1.671 0 01-1.822 1.541 6.632 6.632 0 01-3.023-1.241.463.463 0 00-.68.14l-.721 1.241a.4.4 0 00.109.605z" fill-rule="evenodd" fill="#573001"/><rect data-name="長方形 1 のコピー 5" y="24.375" width="151" height="4" rx="2" ry="2" fill="#573001"/></svg>