<svg xmlns="http://www.w3.org/2000/svg" width="34.219" height="7.2" viewBox="0 0 68.438 14.4"><path data-name="50% header_menu_button_label_close.svg" d="M.01 7.2a7.19 7.19 0 007.227 7.2 6.918 6.918 0 004.864-1.9.455.455 0 00.02-.6l-1.241-1.2a.283.283 0 00-.5 0 5.268 5.268 0 01-3.063 1.1 4.514 4.514 0 01-4.484-4.6 4.584 4.584 0 014.464-4.7 4.981 4.981 0 013.083 1.2.283.283 0 00.5 0l1.221-1.3a.308.308 0 00-.02-.5A6.894 6.894 0 007.237 0 7.19 7.19 0 00.01 7.2zm16.7 6.6a.4.4 0 00.381.4h7.326a.4.4 0 00.381-.4v-1.6a.4.4 0 00-.381-.4h-5.1V.6a.412.412 0 00-.381-.4h-1.841a.4.4 0 00-.381.4v13.2zm10.961-6.6A7.2 7.2 0 1034.858 0a7.157 7.157 0 00-7.184 7.2zm2.6 0a4.594 4.594 0 119.188 0 4.594 4.594 0 11-9.182 0zm15.68 5.7a6.963 6.963 0 004.4 1.5c2.822 0 4.6-1.9 4.6-3.9 0-2.6-2.242-3.8-4.184-4.6-1.621-.6-2.362-1.3-2.362-2.2a1.621 1.621 0 011.762-1.4 6.585 6.585 0 012.782 1.1.512.512 0 00.7-.2L54.41 2a.419.419 0 00-.121-.6 6.962 6.962 0 00-4-1.4c-3.183 0-4.5 2.1-4.5 3.9 0 2.3 1.881 3.5 3.763 4.3 1.682.7 2.542 1.4 2.542 2.4a1.681 1.681 0 01-1.821 1.5 7.525 7.525 0 01-3.023-1.2.41.41 0 00-.681.1l-.72 1.3a.4.4 0 00.108.6zm13.562.9a.4.4 0 00.38.4h8.148a.4.4 0 00.38-.4v-1.6a.4.4 0 00-.38-.4h-5.925V8.3h4.953a.352.352 0 00.38-.4V6.3a.412.412 0 00-.38-.4h-4.944V2.6h5.925a.4.4 0 00.38-.4V.6a.4.4 0 00-.38-.4h-8.151a.4.4 0 00-.38.4v13.2z" fill="#573001" fill-rule="evenodd"/></svg>