<svg xmlns="http://www.w3.org/2000/svg" width="80.281" height="7.205" viewBox="0 0 160.563 14.41"><path id="_50_how-to-cook_sub_heading_sm.svg" data-name="50% how-to-cook_sub_heading_sm.svg" d="M100.078 3389.94a.393.393 0 00.38.38h1.86a.38.38 0 00.38-.38v-5.52h6.522v5.52a.38.38 0 00.38.38h1.84a.393.393 0 00.38-.38v-13.24a.393.393 0 00-.38-.38h-1.84a.38.38 0 00-.38.38v5.3h-6.52v-5.3a.38.38 0 00-.38-.38h-1.86a.393.393 0 00-.38.38v13.24zm16.38-6.6a7.192 7.192 0 107.181-7.22 7.136 7.136 0 00-7.181 7.22zm2.6 0a4.591 4.591 0 114.581 4.58 4.627 4.627 0 01-4.581-4.58zm18.84 6.9a.384.384 0 00.36.28h.32a.34.34 0 00.341-.22l3.54-9.06h.1l3.581 9.06a.34.34 0 00.34.22h.32a.384.384 0 00.36-.28l3.781-13.44a.349.349 0 00-.36-.48h-1.84a.411.411 0 00-.36.28l-2.041 7.98h-.08l-3.2-8.24a.323.323 0 00-.34-.22h-.36a.323.323 0 00-.34.22l-3.18 8.24h-.08l-2.081-7.98a.411.411 0 00-.36-.28h-1.84a.349.349 0 00-.36.48zm25.74-.3a.393.393 0 00.38.38h1.86a.393.393 0 00.38-.38v-11.22h3.061a.38.38 0 00.38-.38v-1.64a.38.38 0 00-.38-.38h-8.742a.38.38 0 00-.38.38v1.64a.38.38 0 00.38.38h3.061v11.22zm9-6.6a7.192 7.192 0 107.182-7.22 7.137 7.137 0 00-7.183 7.22zm2.6 0a4.591 4.591 0 114.581 4.58 4.627 4.627 0 01-4.581-4.58zm21.8 0a7.171 7.171 0 007.221 7.18 6.865 6.865 0 004.861-1.94.381.381 0 00.02-.54l-1.24-1.28a.368.368 0 00-.5 0 4.8 4.8 0 01-3.061 1.14 4.643 4.643 0 01-.02-9.28 4.732 4.732 0 013.081 1.18.32.32 0 00.5 0l1.22-1.26a.372.372 0 00-.02-.56 6.77 6.77 0 00-4.841-1.86 7.2 7.2 0 00-7.222 7.22zm15.64 0a7.192 7.192 0 107.181-7.22 7.137 7.137 0 00-7.182 7.22zm2.6 0a4.591 4.591 0 114.581 4.58 4.627 4.627 0 01-4.582-4.58zm15.4 0a7.192 7.192 0 107.181-7.22 7.136 7.136 0 00-7.182 7.22zm2.6 0a4.591 4.591 0 114.581 4.58 4.627 4.627 0 01-4.582-4.58zm16.4 6.5a.474.474 0 00.48.48h1.76a.487.487 0 00.48-.48v-6.1l5.221 6.44a.434.434 0 00.36.14h2.181a.439.439 0 00.36-.7l-5.6-6.7 5.221-5.88a.425.425 0 00-.32-.72h-2a.478.478 0 00-.38.2l-5.041 5.68v-5.4a.487.487 0 00-.48-.48h-1.76a.474.474 0 00-.48.48v13.04z" transform="translate(-100.062 -3376.12)" fill="#f0af49" fill-rule="evenodd"/></svg>