<svg xmlns="http://www.w3.org/2000/svg" width="180.813" height="64.22" viewBox="0 0 361.625 128.44"><path data-name="50% how-to-cook_heading.svg" d="M39.373 41.69c-.06-.54-.36-4.44-.36-8.88a35.242 35.242 0 01.18-4.14 48.384 48.384 0 0011.88 6.54.95.95 0 00.72-.3 21.847 21.847 0 014.86-2.82.662.662 0 00.48-.6.509.509 0 00-.42-.48c-8.04-1.68-13.26-4.38-17.58-7.68 3.66.06 7.92.24 13.26.48a.451.451 0 00.54-.42 15.033 15.033 0 00.12-1.8c0-2.34-.3-2.4-.66-2.4-10.26.48-15.839.54-21.6.54-.06-.96-.12-1.98-.12-2.94 3.48 0 5.52.12 13.679.48a.34.34 0 00.42-.36 11.963 11.963 0 00.12-1.62c0-1.92-.12-2.16-.6-2.16-8.459.42-9.959.48-13.619.48 0-1.86.3-2.1.66-2.34a.93.93 0 00.48-.48c4.02 0 7.559.18 16.139.54a.428.428 0 00.48-.42 13.156 13.156 0 00.12-1.74c0-2.1-.12-2.22-.66-2.22-5.82.3-9.12.42-11.939.48a10.81 10.81 0 001.08-1.5 3.678 3.678 0 011.739-1.56c.72-.36 1.26-.66 1.26-1.02 0-1.32-5.819-3.36-6.119-3.36-.12 0-.18.12-.24.36a20.25 20.25 0 01-3.48 7.14h-6.36c1.5-1.08 1.68-1.26 1.68-1.5 0-1.44-4.38-5.82-4.86-5.82a.312.312 0 00-.24.12c-.6.18-3.66 1.92-3.66 2.34a.846.846 0 00.36.48 22.955 22.955 0 013.3 4.32c-2.88-.06-6.3-.18-12.3-.48-.66 0-.66 0-.66 2.16 0 .66.06 1.32.06 1.74a.437.437 0 00.54.48c9.659-.42 12.779-.54 17.459-.54.06.9.06 1.86.06 2.82-3.66 0-5.22-.06-13.859-.48-.48 0-.6.06-.6 2.1 0 .6.06 1.2.06 1.62.06.36.12.42.48.42 8.519-.42 10.259-.48 13.919-.48 0 1.08-.06 2.1-.06 2.94-5.58 0-10.44-.06-20.819-.54-.72 0-.72 0-.72 2.28 0 .72.06 1.38.06 1.8a.573.573 0 00.66.54c5.88-.24 10.019-.42 13.559-.48l-.18.24c-2.88 3.24-9.659 7.38-17.639 9.9a.516.516 0 00-.42.36.633.633 0 00.48.48 17.889 17.889 0 014.56 2.64.33.33 0 00.3.12c.48 0 6-2.34 11.759-6.66.12 1.74.18 3.36.18 4.26v1.38c0 2.76-.06 8.04-.18 11.4a105.617 105.617 0 01-11.579 1.38c-.42 0-.78 0-.78.3 0 .12 2.04 5.1 3.18 5.1.54 0 1.08-.6 1.98-.84 1.26-.36 10.019-1.8 18.359-3.72.72-.18.84-.36.84-.72a12.812 12.812 0 01.48-2.64c6.36 6.54 17.039 7.86 18.419 7.86a1.145 1.145 0 00.96-.36 23.071 23.071 0 014.92-3.72 1.153 1.153 0 00.6-.66c0-.18-.24-.3-.72-.3-6.24-.12-10.92-.72-14.58-1.92 2.1-.72 3.84-1.32 4.92-1.74a4.369 4.369 0 011.74-.24c.78-.06 1.56-.24 1.56-.72 0-.72-3.36-4.26-3.96-4.26a.455.455 0 00-.24.12 23.109 23.109 0 01-8.759 4.56 14.564 14.564 0 01-3.24-3.12h3v.24c0 .36.12.54 2.52.54 1.859 0 2.639-.12 2.639-.54v-.36zm-6.9-18.42c1.74 1.5 3.54 3.06 5.52 4.5-2.34.06-5.16.18-7.5.18a2.688 2.688 0 01.54-1.26 4.124 4.124 0 00.78-1.38c0-.42-.3-.48-6.18-1.2a1.361 1.361 0 01-.24-.06.1.1 0 00-.12.12v.18a15.382 15.382 0 01.66 3.6c-1.8 0-3.96-.06-5.7-.12a25.67 25.67 0 002.22-2.16c1.02-1.14 1.32-1.26 1.62-1.32a1 1 0 00.96-.54.856.856 0 00-.48-.54h7.92zm-10.38 13.08c1.38 0 4.44-.06 5.7-.06 1.32 0 5.1.06 6.54.06 0 .6-.06 1.32-.06 2.16-1.5 0-5.34.12-6.48.12-1.08 0-4.32-.06-5.7-.12v-2.16zm.06-5.1s3.84-.12 5.64-.12 6.48.12 6.48.12.06.9.06 1.92c-1.5 0-5.4.06-6.54.06-1.08 0-4.26-.06-5.64-.06v-1.92zm-.06 10.56c.9 0 2.64-.06 4.02-.06a23.189 23.189 0 002.64 3.6c-1.38.24-3.84.78-6.66 1.26v-4.8zm75.6-20.4c5.28 0 10.079.06 17.219.48.54 0 .72-.18.72-2.94s-.24-2.94-.72-2.94c-7.86.48-11.759.54-17.159.54v-5.82c.06-3.96.18-3.78.9-5.04a6.571 6.571 0 00.96-1.74c0-1.14-5.52-2.1-7.68-2.22-.36 0-.48.06-.48.36v.24a60.054 60.054 0 01.6 9c0 .48.06 2.4.06 5.22-1.38 0-2.34.06-3.48.06s-2.52-.06-4.8-.12l1.44-3.9a5.6 5.6 0 011.62-2.34 2.348 2.348 0 001.14-1.44 1.332 1.332 0 00-1.14-.9c-2.1-.72-5.28-1.92-5.7-1.92-.36 0-.54.12-.54.42 0 3.42-4.439 17.34-12 23.82a.434.434 0 00-.24.36.718.718 0 00.66.3 15.7 15.7 0 015.22 1.68.867.867 0 00.42.12c.72 0 3.9-4.56 7.019-11.28 1.92-.12 3.36-.12 4.62-.12 2.04 0 3.6.06 5.76.12 0 2.82.06 6 .06 9.24-3.18-.06-6.84-.18-12.3-.54-.78 0-.84 0-.84 2.94 0 2.82.12 2.82.84 2.82 5.4-.36 9.059-.48 12.3-.54 0 4.08-.06 8.1-.06 11.28-1.56 0-3.12.06-4.8.06-4.14 0-9-.12-16.379-.6-.66 0-.78 0-.78 3.06 0 2.46 0 2.82.78 2.82 11.279-.48 17.159-.54 23.519-.54 6.9 0 12.719.06 24.6.54.54 0 .72-.18.72-2.94 0-2.58-.18-2.94-.78-2.94-10.5.42-15.479.54-21.239.54 0-3.18-.06-7.2-.06-11.28 3.48 0 7.439.12 12.779.54.66 0 .72-.18.72-2.88 0-2.22-.12-2.88-.72-2.88-5.7.36-9.239.48-12.779.54v-9.24zm72.12 26.88c.72-.18.9-.36.9-3.3s-.18-3.72-.72-3.72a1.321 1.321 0 00-.48.06 68.848 68.848 0 01-15.479 2.34c-6.42 0-11.1-1.86-12.84-6.78a1 1 0 00-.84-.84 29.2 29.2 0 00-4.2 1.98.689.689 0 00-.36.66.652.652 0 00.06.3c2.579 7.92 10.019 10.92 19.739 10.92a72.782 72.782 0 0014.221-1.62zm-28.319-35.16c-1.02 0-1.74 4.68-1.74 5.22 0 .42.18.84 4.32.84 1.92 0 3.96-.12 6.48-.12a61.5 61.5 0 0114.039 1.62 2.6 2.6 0 01.3.06.584.584 0 00.6-.48 35.1 35.1 0 00.54-4.98c0-.72-.06-.84-.84-.96a86.3 86.3 0 00-13.379-1.14c-2.88 0-5.1.18-6.96.18a18.006 18.006 0 01-3.18-.24h-.18zm33.179-.12c0-1.2-6.12-7.08-6.54-7.08-.12 0-3.06 1.44-3.06 2.22a.388.388 0 00.12.3 62.218 62.218 0 015.58 6.84.611.611 0 00.54.42c.601 0 3.361-1.92 3.361-2.7zm6.66-3.42c0-.66-5.7-7.08-6.48-7.08-.12 0-3.06 1.44-3.06 2.22a.388.388 0 00.12.3 62.218 62.218 0 015.58 6.84.611.611 0 00.54.42c.361 0 3.301-1.74 3.301-2.7zm41.161 27a25.765 25.765 0 00-4.74-.42c-7.14 0-10.859 3.06-10.859 6.66 0 3.36 3.9 8.46 10.979 8.46 4.26 0 8.46-1.44 10.26-7.62a52.563 52.563 0 017.679 4.86.8.8 0 00.42.18c.84 0 3.36-4.5 3.36-4.92 0-.66-5.4-3.72-11.639-5.82-.18-2.4-.6-8.34-.6-14.1v-1.8c2.04-.12 4.14-.24 6.18-.24h1.319c.78 0 .9-.12.9-1.5 0-3.9-.18-4.26-1.02-4.26-.539 0-6.419.66-7.2.72.12-2.1.18-4.14.36-6.18.06-.84 1.02-1.74 1.02-2.4 0-1.32-4.86-1.38-5.46-1.38-1.32 0-1.8.06-1.8.6v.18a32.142 32.142 0 01.36 4.2l.12 5.64-7.68.96a54.106 54.106 0 01-7.019.54c-.54 0-.78.06-.78.42a36.848 36.848 0 001.26 4.2 1.124 1.124 0 001.08.72h.18c2.1-.18 7.079-1.08 13.019-1.74.06 4.68.12 9.18.3 13.14v.9zm-23.519.36a2.636 2.636 0 01-.6 1.14c-.06 0-.66-.72-.66-4.56a70.4 70.4 0 013.78-20.76c.42-1.26 1.86-1.98 1.86-2.64 0-1.08-6.42-3.06-7.14-3.06-.18 0-.24.18-.24.66a53.064 53.064 0 01-.96 6.6c-1.32 6.72-2.46 13.44-2.46 19.74 0 11.16 4.02 17.4 4.74 17.4.06 0 4.5-.6 4.5-1.68a.761.761 0 00-.06-.36 8.092 8.092 0 01-.72-3.42c0-2.04.54-5.16 2.34-10.14a1.907 1.907 0 00.18-.54.434.434 0 00-.24-.36 6.368 6.368 0 01-2.1-2.52 2.345 2.345 0 00-.3-.24.329.329 0 00-.24.3zm23.879 4.62c-.42 2.88-2.1 4.5-5.46 4.5-2.82 0-4.86-1.5-4.86-2.94 0-.96.78-2.34 5.28-2.34a18.364 18.364 0 015.041.78zm45.84-13.14c2.58-5.22 6-10.98 8.82-15.54.72-1.14 2.82-1.68 2.82-2.52 0-1.38-6.72-2.88-7.08-2.88-.24 0-.24.18-.54.78-6.359 13.62-14.819 28.5-19.739 40.8a.454.454 0 00-.06.24c0 1.08 4.86 1.62 6.06 1.62a.669.669 0 00.78-.48 92.8 92.8 0 014.2-11.88c1.74-4.02 5.219-5.94 7.739-5.94 2.94 0 2.94 2.22 2.94 3.6 0 2.16-.18 4.5-.18 6.6 0 7.86 5.82 8.7 8.4 8.7 5.7 0 15.059-4.5 18.479-18.12a1.661 1.661 0 00.06-.54 1.154 1.154 0 00-.48-.96 12.389 12.389 0 01-3.06-3.12 1.909 1.909 0 00-.66-.72.975.975 0 00-.48.9c-2.94 12.06-9.359 16.62-13.079 16.62-2.58 0-3.3-1.8-3.3-4.98 0-1.5.06-3.12.06-4.68 0-2.52-.06-8.4-7.14-8.4a12.824 12.824 0 00-4.559.9zm71.64 20.88c15.18-1.56 21.3-10.44 21.3-18.9 0-11.04-9.719-18.06-21.419-18.06-13.259 0-23.459 9.3-23.459 20.88 0 8.88 6.24 13.08 9.24 13.08a4.137 4.137 0 003.48-2.1c6.419-9.48 12.719-24.6 13.379-26.04a1 1 0 01.96-.78h.18c7.44 1.62 11.52 7.14 11.52 12.66 0 6.96-6.48 13.98-20.28 14.28-.36 0-.66.06-.66.3a1.153 1.153 0 00.42.6 14.183 14.183 0 012.88 3.06 2.176 2.176 0 002.04 1.02h.42zm-3.72-31.98c-1.02 2.94-5.879 14.7-10.559 21.36a1.022 1.022 0 01-.78.48c-1.5 0-3-3.48-3-6.24.001-6.9 6.181-14.1 14.34-15.6zM37.873 88.83c0-.48-.12-.54-1.14-.54-4.2 0-5.4.06-5.4.9a.652.652 0 00.06.3 30.273 30.273 0 011.8 10.2c0 10.56-5.28 21.96-14.22 21.96-3.72 0-7.5-2.52-7.5-9.06 0-7.98 5.7-19.5 12.359-22.2.54-.24 1.92-.3 1.92-1.2a24.107 24.107 0 00-1.2-3.48 1.041 1.041 0 00-.9-.66.541.541 0 00-.3.06 19.6 19.6 0 01-7.32 1.26c-2.4 0-4.739-.42-5.879-1.44a1.235 1.235 0 00-.54-.3c-.6 0-2.28 4.02-2.34 4.86v.12c0 .96 1.56 1.68 5.22 1.68a11.693 11.693 0 001.739-.12h.24c.12 0 .18 0 .18.06a.646.646 0 01-.24.3c-4.619 4.92-8.339 13.8-8.339 21.36 0 9.24 5.7 14.58 12.779 14.58 4.86 0 17.46-3.3 18.9-22.32a.924.924 0 01.18-.66 1.179 1.179 0 01.36.6c1.259 3.06 4.5 9.3 5.939 9.3 1.56 0 5.04-2.82 5.04-3.3a1.411 1.411 0 00-.54-.78c-6.9-6.18-10.859-16.32-10.859-20.76v-.72zm49.8.6a1.561 1.561 0 01-.18.42c-1.02 1.86-3.66 7.38-6.6 12.96-14.939.18-16.379 10.68-16.379 13.08 0 4.14 2.82 6.6 6.24 6.6 5.58 0 8.339-5.04 13.319-14.58a50.677 50.677 0 0112.78 3.84c-2.76 5.82-7.5 11.1-14.58 12.84a.511.511 0 00-.48.3.885.885 0 00.42.42 11.27 11.27 0 013.12 2.7 1.05 1.05 0 00.84.42c.24 0 9.96-1.8 15.78-14.22a74.512 74.512 0 018.759 5.64.853.853 0 00.36.12c.84 0 2.94-4.8 2.94-5.4 0-.72-6-3.96-10.02-5.82a33.869 33.869 0 001.02-4.56 2.254 2.254 0 011.32-1.92 2.252 2.252 0 001.2-1.44c0-1.26-6.539-3.12-7.319-3.12a.389.389 0 00-.48.36 11.561 11.561 0 01.06 1.44 27.565 27.565 0 01-1.02 7.02 61.52 61.52 0 00-12.3-3.3c3.3-6.3 6.66-12.42 8.76-14.58.36-.36 1.5-.84 1.5-1.56 0-.78-3.9-3.6-4.74-3.6a.968.968 0 00-.54.18c-1.62.96-7.32 1.8-11.22 1.8a16.321 16.321 0 01-2.7-.18 1.171 1.171 0 00-.42-.06c-.36 0-.42.18-.42.54 0 .48.66 5.16 1.919 5.16a44.222 44.222 0 008.52-1.44 3.044 3.044 0 01.54-.12v.06zm-9.24 18.24c-4.2 7.8-5.639 9.48-7.439 9.48-.78 0-1.38-.6-1.38-1.92.002-2.88 2.222-7.08 8.821-7.56zm82.86 11.64c7.26-4.08 10.14-9.36 10.14-14.34 0-2.28-1.38-14.64-17.22-14.64a50.178 50.178 0 00-15.719 3c-4.74 1.62-10.14 3.96-12.659 4.44a.465.465 0 00-.48.42c0 .84 4.2 5.34 4.859 5.34a2.256 2.256 0 001.08-.42c12.36-6.9 20.279-7.26 22.679-7.26 8.64 0 10.86 5.58 10.86 8.88 0 5.82-6.6 12.42-25.739 14.1-.54.06-.84.12-.84.36a2 2 0 00.48.78c1.44 1.62 1.26.96 2.58 3.06a1.439 1.439 0 001.5.84c2.222 0 12.061-.96 18.481-4.56z" fill="#573001" fill-rule="evenodd"/></svg>