<svg xmlns="http://www.w3.org/2000/svg" width="50" height="50"><path d="M24.992 4.5c6.674 0 7.464.03 10.1.15a13.857 13.857 0 014.641.86 8.289 8.289 0 014.744 4.74 13.832 13.832 0 01.861 4.64c.12 2.64.146 3.43.146 10.11s-.026 7.46-.146 10.1a13.832 13.832 0 01-.861 4.64 7.737 7.737 0 01-1.87 2.87 7.631 7.631 0 01-2.874 1.87 13.857 13.857 0 01-4.641.86c-2.635.12-3.426.15-10.1.15s-7.466-.03-10.1-.15a13.857 13.857 0 01-4.641-.86 7.631 7.631 0 01-2.874-1.87 7.737 7.737 0 01-1.87-2.87 13.832 13.832 0 01-.861-4.64C4.526 32.46 4.5 31.67 4.5 25s.026-7.47.146-10.11a13.832 13.832 0 01.861-4.64 8.289 8.289 0 014.744-4.74 13.857 13.857 0 014.641-.86c2.636-.12 3.426-.15 10.1-.15m0-4.5c-6.789 0-7.64.03-10.306.15a18.264 18.264 0 00-6.068 1.16 12.759 12.759 0 00-7.31 7.31 18.353 18.353 0 00-1.162 6.07c-.122 2.66-.15 3.52-.15 10.31s.028 7.63.15 10.3a18.353 18.353 0 001.162 6.07 12.759 12.759 0 007.31 7.31 18.264 18.264 0 006.068 1.16c2.666.12 3.517.15 10.306.15s7.639-.03 10.305-.15a18.264 18.264 0 006.068-1.16 12.759 12.759 0 007.31-7.31 18.353 18.353 0 001.162-6.07c.122-2.67.15-3.52.15-10.3s-.028-7.65-.15-10.31a18.353 18.353 0 00-1.162-6.07 12.759 12.759 0 00-7.31-7.31A18.264 18.264 0 0035.297.15C32.631.03 31.78 0 24.992 0zm0 12.16A12.835 12.835 0 1037.827 25a12.839 12.839 0 00-12.835-12.84zm0 21.17A8.335 8.335 0 1133.324 25a8.332 8.332 0 01-8.332 8.33zm16.342-21.68a3 3 0 11-3-3 3 3 0 013 3z" fill="#fff" fill-rule="evenodd"/></svg>