<svg xmlns="http://www.w3.org/2000/svg" width="214.656" height="230.531" viewBox="0 0 214.656 230.531"><path id="logo.svg" d="M224.358 242.109c-.191-.613-.183-1.916-.6-2.412-1.525-1.812-1.512-2.369-5.853-2.57-2.417-.112-4.787-.648-7.206-.724-3.354-.1-7.5-.879-10.766-.148-1.63.364-1.04 4.543-1.062 5.868a2.073 2.073 0 00.536 1.746 2.27 2.27 0 001.6.257l11.667-1a4.419 4.419 0 012.618.311 2.637 2.637 0 011.193 2.164 5.843 5.843 0 01-.551 2.478 12.12 12.12 0 01-1.952 3.282c-.923 1.077-2.081 1.949-3.02 3.014a5.009 5.009 0 00-1.486 3.811c.282 2.122 2.537 3.507 3.2 5.547a4.1 4.1 0 01-1.365 4.388c-.062.049-.129.092-.194.14a5.1 5.1 0 00-1.491-.905c-.449-.159-.853.8-1.123 1.447s5.556 4.131 5.556 4.131v-.067c.081.042.158.088.242.128a2.288 2.288 0 002.074.172 2.659 2.659 0 00.885-.987 22.2 22.2 0 002.876-5.779 7.58 7.58 0 00-.721-6.206c-.537-.8-1.312-1.563-1.286-2.516a2.939 2.939 0 01.355-1.175A13.786 13.786 0 01221 252.9a19.982 19.982 0 002.789-2.993c.9-1.428.449-3.319.64-4.981a6.827 6.827 0 00-.071-2.817zM195.3 273.566a1.378 1.378 0 00.841.432c.783.063 1.319-.719 1.856-1.285 1.157-1.22 2.9-1.668 4.352-2.526a2.372 2.372 0 00.952-.879 1.9 1.9 0 00-.21-1.843 8.157 8.157 0 00-1.332-1.419 12.341 12.341 0 01-2.7-3.82 10.939 10.939 0 00-1.42-2.752 3.1 3.1 0 00-3.755-.59 3.659 3.659 0 00-.36.208c-1.135.6-1.345 1.429-1.4 2.679-.171 3.94.456 8.071 2.76 11.291a3.8 3.8 0 00.416.504zm31.243-2.251a1.652 1.652 0 00.138.227c.67.932 2.143 1 3.339.839a23.151 23.151 0 005.505-1.451 1.051 1.051 0 00.585-.419.973.973 0 00.056-.554c-.248-2.376-1.575-4.49-2.868-6.509a19.626 19.626 0 00-4.638-5.573 1.428 1.428 0 00-1.064-.37 1.51 1.51 0 00-.721.479c-1.438 1.426-2.6 1.871-1.7 3.929.915 2.094 1.951 4.131 1.514 6.49-.189.976-.602 2.025-.151 2.912zm5.779 9.331c-1.2-.755-2.049-1.9-3.218-2.671-1.748-1.159-2.568.2-3.466 1.5a6.221 6.221 0 01-1.518 1.639 3.442 3.442 0 00-.783.615.651.651 0 00-.135.605 1.867 1.867 0 00.925.836 8.842 8.842 0 002.412.927 39.961 39.961 0 014.368 1.3 18.382 18.382 0 003.106.7c1.389.219 2.482.582 3.161-.915.348-.767.662-1.762.07-2.366a2.3 2.3 0 00-1.051-.494 14.928 14.928 0 01-3.876-1.676zm3.012 34.7c.493-1.336 1.634-2.365 2.266-3.659.607-1.243.961-2.6 1.483-3.908l.27-.791a12.131 12.131 0 00.394-9.539c-1.74-5.556-3.666-5.763-6.734-7.169a13.437 13.437 0 00-6.89-1.353 11.892 11.892 0 00-3.645 1.478 21.621 21.621 0 00-3.216 1.634c-1.353.969-2.931 1.59-3.692 3.434a1.026 1.026 0 00.063.868l1.67 3.139a2.654 2.654 0 00.769 1.009 1.924 1.924 0 001.961-.057 8.653 8.653 0 001.574-1.316 8.411 8.411 0 015.738-2.328c2.119.043 4.272.25 5.217 3.038a12.761 12.761 0 01.576 5.64c-.294 1.726-.024 1.939-.545 3.595l-.322 1.072-.023.076a38.2 38.2 0 01-1.588 4.2s-.634.658.757.933 2.041.567 2.367.6a1.118 1.118 0 001.545-.596zm-10.563-91.064q-.165.99-.38 1.971c-.119.544-.2 1.1-.315 1.639a5.032 5.032 0 01-.2.58.855.855 0 01-.071.184.708.708 0 01-.309.184 2.764 2.764 0 01-.455.185 8.589 8.589 0 01-.93.155c-.269.046-.532.127-.8.173-.483.082-.265.972-.164 1.828.087.733 4.089 1.071 5.245 1.153.152.017.3.033.416.044.828.076 2.544.107 3.083-.5a6.058 6.058 0 001.075-2.161 32.7 32.7 0 001.676-6.015 18.607 18.607 0 00.332-2.45c.1-1.914.424-3.813.444-5.732a28.216 28.216 0 00-.3-4.736c-.047-.364-.676-1.5-.789-1.852-.332-1.023-1.771-1.932-2.637-2.5a15.038 15.038 0 00-3.578-1.687 28.379 28.379 0 00-7.923-1.2l1.743-10.155c.076-2.651-1.5-1.825-3.684-1.76a2.237 2.237 0 00-1.1.111c-.559.279-1.892-.161-2.118.389-.668 1.628-.73 4.2-.842 5.941a18.291 18.291 0 01-.455 4.539c-.091.28-.224.965-.276 1.252-1.591.056-3.18.211-4.765.37a22.705 22.705 0 00-5.367.795c-1.9.6-1.547 1.285-1.671 3.249-.068 1.088.335 2.721 1.379 3.132a1.761 1.761 0 001.255 0 8.494 8.494 0 001.933-.254c.492-.128.979-.272 1.476-.385a17.451 17.451 0 014.487-.329l-1.756 12.756c-.125.908-.384 1.785-.469 2.715-.113 1.22 2.195 1.523 3.747 1.649l.634.048c.905.069 1.749-.162 1.909-1.093.916-5.335 2.059-10.9 2.974-16.232.3 0 .605.031.948.022 1.237-.029 3.166-.374 4.377.22a5.9 5.9 0 012.776 2.94 6.578 6.578 0 01.366 2.777 72.348 72.348 0 01-.926 8.04zm10.218-20.105l.052.051a1.135 1.135 0 00.4.277 1.808 1.808 0 00.686.058l2.057-.082a1.843 1.843 0 001.255-.366.929.929 0 00.086-.957c-.459-1.453-1.23-2.813-1.675-4.269a9.615 9.615 0 01-.782-3.368 4.272 4.272 0 00-.569-2.555c-.335-.471-1.393-.124-2.064.1s-1.774.424-2.427.682c-.885.348-3.3.653-3.423 1.63a.843.843 0 00.08.4 16.865 16.865 0 003.306 5.34c.416.458.858.9 1.3 1.34zm21.278-7.817a5.327 5.327 0 01.754-.129l1.958-.232a3.11 3.11 0 001.2-.312 1.031 1.031 0 00.56-1.019c-.33-1.727-4.23-.416-5.254-.217-2.142.415-4.278.874-6.444 1.147a11.7 11.7 0 00-2.625.526.983.983 0 00-.577.419.771.771 0 00.21.835 2.793 2.793 0 002.518.381l4.073-.7a13.442 13.442 0 01.023 2.056 2.573 2.573 0 01-.493 1.566c-.821.928-2.457.49-3.463 1.219a.672.672 0 00.031 1.185c.932.766 2.328.312 3.437-.173a34.126 34.126 0 01-.748 6.81c-.168.786-.266 1.8.442 2.2a1.306 1.306 0 001.59-.485 3.692 3.692 0 00.537-1.7l.658-4.563a1.02 1.02 0 01.84.4 9.374 9.374 0 005.539 2.443 1.741 1.741 0 00.932-.11.659.659 0 00.371-.775 1.025 1.025 0 00-.708-.48c-2.523-.8-5.093-2.015-6.5-4.235 1.23-.925 2.971-.64 4.468-1.026a2.11 2.11 0 001.04-.542.981.981 0 00.212-1.086c-.312-.6-1.181-.531-1.842-.38l-4.042.926a13.9 13.9 0 000-1.936 2.149 2.149 0 01.711-1.734 1.754 1.754 0 01.587-.279zm-2.374 25.578c.111-.326.438-.542.567-.861a1.111 1.111 0 00-.583-1.29 3.718 3.718 0 00-1.508-.341 2.771 2.771 0 01-1.47-.444c-.431-.336-.816-.954-1.34-.8a1.089 1.089 0 00-.52.47l-2.369 3.369a1.916 1.916 0 00-.409.856 1.08 1.08 0 00.736 1.085 1.342 1.342 0 001.317-.324 1.072 1.072 0 01.393-.309.793.793 0 01.452.043l1.355.4a.806.806 0 01-.852 1.116l-2.039-.008a1.075 1.075 0 00-1.035.4.858.858 0 00.424.974 2.318 2.318 0 002.1.278 6.426 6.426 0 01-.843 1.854 1.48 1.48 0 00.233 1.858 1.215 1.215 0 001.39-.163 2.816 2.816 0 00.774-1.25 4.314 4.314 0 011.157-2.109 1.465 1.465 0 00.322-.273 1.032 1.032 0 00.136-.307l.744-2.344a16.055 16.055 0 002.5.286l-1.11 3.327a3 3 0 00-.218 1.076 1.033 1.033 0 00.537.906 1.112 1.112 0 001.264-.435 4.974 4.974 0 00.588-1.3.36.36 0 01.179-.23.376.376 0 01.283.053l1.742.839a2.7 2.7 0 001.76.391 1.083 1.083 0 00.743-.757.64.64 0 00-.151-.629 1.545 1.545 0 00-.883-.307 5.277 5.277 0 01-1.319-.388 2.349 2.349 0 01-1.273-1.11 1.232 1.232 0 01-.1-.429l.086.022a.323.323 0 00.085.018.32.32 0 00.094-.025c.1-.03.1-.022.2-.052s.1-.036.2-.066a.326.326 0 00.191-.158.322.322 0 00.032-.248c-.035-.108-.045-.1-.08-.212s-.033-.109-.068-.217c-.023-.071-.03-.1-.041-.144a2.244 2.244 0 01.446-.073l1.083-.083a3.208 3.208 0 001.673-.442 1.075 1.075 0 00.309-1.508c-.454-.5-1.272-.24-1.9.02s-1.5.413-1.843-.167a3.524 3.524 0 01-.166-.413 1.168 1.168 0 00-1.444-.645.933.933 0 00-.351 1.436c-.356.19-2.534.81-2.185-.216zm-2.063-.772c-.589 1.368-.794 1.023-2.1.553a.382.382 0 01-.158-.09c-.13-.148.039-.365.195-.487a1.5 1.5 0 01.719-.372 1.522 1.522 0 01.46.045l.8.16a.15.15 0 01.1.049.148.148 0 01-.021.142zm-1.9 11.128l-.185-.57a.393.393 0 00-.238-.245l-.845-.305a.4.4 0 00-.194-.018.708.708 0 00-.77.586 7.208 7.208 0 00-.169 2.375 2.712 2.712 0 00.128.7c.3.842 1.529 1.468 2.187.644a.379.379 0 00.078-.31l-.215-1.117.238-1.563a.376.376 0 00-.02-.177zm4.239.306a2.635 2.635 0 00-.4-1.357 1.389 1.389 0 00-1.64-.4.523.523 0 00-.24.192.645.645 0 00-.038.4l.2 1.592c.089.718 1.39 2.944 2.191 1.424a1.072 1.072 0 00.057-.616l-.034-.329c-.038-.298-.065-.606-.101-.906zm6.589-11.786a2 2 0 001.024.272 1.016 1.016 0 00.887-.872.375.375 0 00-.032-.225.474.474 0 00-.244-.179l-1.1-.49c-.5-.221-2.425-.263-1.757.825a.812.812 0 00.373.272c.074.036.149.07.224.1zm-3.3 10.957l-.8-.449a.4.4 0 00-.31-.031l-.516.163a.387.387 0 00-.252.488 12.126 12.126 0 01.539 2.645.388.388 0 00.132.253l.659.57a.4.4 0 00.257.095.406.406 0 00.149-.028l.7-.286a.385.385 0 00.241-.357v-1.323a.385.385 0 00-.03-.149l-.6-1.405a.38.38 0 00-.174-.186zm3.177-1.441c-.513.539.225 3.362.592 3.922a1.529 1.529 0 00.173.231 1.045 1.045 0 001.682.033 1.519 1.519 0 00.191-.853 3.714 3.714 0 00-.047-.473 7.725 7.725 0 00-.506-1.775 1.95 1.95 0 00-.267-.486 2.309 2.309 0 00-.9-.584.832.832 0 00-.923-.015zm1.547 29.99a.715.715 0 00.446-1.073 1.108 1.108 0 00-.5-.248 12.917 12.917 0 01-4.031-2.049l2.761-1.163a.8.8 0 00.281-.168c.274-.3-.07-.777-.45-.921a2.613 2.613 0 00-1.932.178c-.607.264-1.16.64-1.774.889a1.908 1.908 0 01-.61.158 2.4 2.4 0 01-.788-.134l-2.018-.577 3.227-.513a8.539 8.539 0 003.357-1.022.614.614 0 00.342-.452.847.847 0 00-.086-.295 2.829 2.829 0 01-.138-.97l-.074-2.982a1.716 1.716 0 00-.337-1.194 1.528 1.528 0 00-1.506-.191 3.571 3.571 0 01-1.556.285.721.721 0 01-.425-.208 1.281 1.281 0 01-.208-.472 2.171 2.171 0 00-1.707-1.427c.375-.121.3-.838.69-.877a.554.554 0 01.31.1l3.136 1.768a13.829 13.829 0 013.156 2.187 4.209 4.209 0 00.917.812 1.658 1.658 0 001.235.138.776.776 0 00.608-1.029.982.982 0 00-.3-.253l-6.63-4.2a4.19 4.19 0 01-.8-.6 1.654 1.654 0 01-.23-.3c-.2-.339-.269-.751-.5-1.073-1.032-1.432-2.41.993-2.876 1.629l-2.035 2.775-4.07 5.55a1.637 1.637 0 00-.436 1.65 1.121 1.121 0 001.45.318 3.006 3.006 0 001.108-1.169 15.871 15.871 0 012.346-3.228q-.183 4.02-.21 8.046c-.008 1.127.148 2.5 1.192 2.956 1 .438 2.11-.306 2.93-1.029a2.419 2.419 0 00.723-.88.852.852 0 00-.256-1.025c-.749-.465-1.55.818-2.429.71l.021-2.125q3.584 1.887 7.319 3.468a2.083 2.083 0 001.352.23zm-4.013-7.666a4.453 4.453 0 01-1.338.378l-1.435.412a2.483 2.483 0 01-.625.124c-.288.008-.652.138-.92.117-.48-.037-.166-1.047-.09-1.284a.269.269 0 01.045-.095.158.158 0 01.023-.022.339.339 0 01.185-.044 8.569 8.569 0 001.825-.257c.3-.076.6-.169.9-.27a1.388 1.388 0 01.825-.106 2.3 2.3 0 01.721.17.89.89 0 01-.121.877zm-2.951-2.876a1.433 1.433 0 01.307-.081c.078-.008.156 0 .234-.01a1.558 1.558 0 00.19-.038c.149-.035.3-.066.448-.1a2.929 2.929 0 011.491-.045.131.131 0 01.073.042.128.128 0 01.019.067c.079.983-1.009.514-1.535.729a1.147 1.147 0 01-.21.076l-.043.006c-.073 0-.146-.016-.219-.017a1.763 1.763 0 00-.4.093c-.244.053-.5-.013-.746.044a2.445 2.445 0 00-.428.177.692.692 0 01-.451.068.306.306 0 01-.236-.343.476.476 0 01.341-.262zm-2.886-.939a12.388 12.388 0 01.681-1.358c.167-.288.459-.479.637-.76a1.506 1.506 0 01.422.594.874.874 0 01.282.353.585.585 0 01-.01.246l-.079.433a.307.307 0 01-.039.116.126.126 0 01-.032.033.5.5 0 01-.179.032.766.766 0 00-.25.155 6.37 6.37 0 01-1.438.156zm10.934 28.661a2.3 2.3 0 00.654-.831 5.918 5.918 0 00.356-4.323 2.7 2.7 0 00-.3-.715 1.478 1.478 0 00-.226-.274 2.58 2.58 0 00-1.854-.433l.979-1.454a.928.928 0 00.226-.618 2.513 2.513 0 00-.752-.951 1.161 1.161 0 00-1.02-.062 1.524 1.524 0 00-.712.883 4.9 4.9 0 01-1.436 1.729.565.565 0 01-.563.147.482.482 0 01-.213-.369 4.349 4.349 0 01.155-1.381 1.425 1.425 0 00-.3-1.306 2.013 2.013 0 00-1.118-.289c-1.085-.087-.785 1.1-.712 1.825a1.919 1.919 0 01.015.363 1.788 1.788 0 01-.077.343l-.163.547a.413.413 0 01-.122.223.433.433 0 01-.17.065 1.863 1.863 0 01-1.3.116.513.513 0 01-.132-.251 7.208 7.208 0 00-.233-1.4 2.067 2.067 0 00-.485-.568 1.459 1.459 0 00-.324-.246 1.517 1.517 0 00-.579-.123.848.848 0 00-.661.134.824.824 0 00-.113.758c.048.262.433 1.547.061 1.646a2.681 2.681 0 01-.481-.014.991.991 0 00-.7.774 11.289 11.289 0 00-.715 2.565c-.033.286-.043.575-.1.858-.119.6-.44 1.148-.539 1.751a1.094 1.094 0 00.015.509 1.269 1.269 0 00.294.447 1.689 1.689 0 001.08.656c1.184.068.99-1.854 1.159-2.506l.674-2.587a.308.308 0 01.076-.158.319.319 0 01.177-.06l3.012-.379c.439-.054.878-.109 1.319-.14a24.074 24.074 0 013.166.055l1.059.066a.248.248 0 01.271.2 3.406 3.406 0 01.363 1.359c-.019 1.009-.928 1.945-.638 2.914a1.025 1.025 0 001.627.505zm-6.941 7.061c1.659.094 3.307.316 4.951.547a1.243 1.243 0 00.981-.138.72.72 0 00.175-.786.872.872 0 00-.077-.16 1.258 1.258 0 00-.507-.445 3.407 3.407 0 00-1.343-.267l-2.142-.13a.715.715 0 01-.708-1.075.609.609 0 01.283-.511.676.676 0 01.432.038 4.094 4.094 0 001.072.17 1.441 1.441 0 00.911-.222.629.629 0 00.188-.832.972.972 0 00-.291-.232 2.125 2.125 0 00-.841-.355 2.86 2.86 0 01-1.376-.075 1.2 1.2 0 01-.2-1.3.364.364 0 01.108-.213.377.377 0 01.21-.057l1.318-.087a1.205 1.205 0 00.378-.065 1.221 1.221 0 00.572-.966l.327-1.54a1.75 1.75 0 00-.1-1.406 1.462 1.462 0 00-1.092-.478 140.495 140.495 0 00-4.693-.255 1.428 1.428 0 00-.546.049 1.093 1.093 0 00-.6.956 10.286 10.286 0 01-.072 1.181 9.8 9.8 0 00-.438 1.326 1.3 1.3 0 001.5 1.294 1.158 1.158 0 01.927-.043.774.774 0 01.139.77l-.081.439a.255.255 0 01-.371.234l-.977-.155a1.722 1.722 0 00-1.182.093.821.821 0 00.077 1.281 4.283 4.283 0 002.069.3.294.294 0 01.2.064.283.283 0 01.043.231l-.065.649a.548.548 0 01-.118.347.571.571 0 01-.353.119 10.823 10.823 0 01-1.725.081 6.65 6.65 0 00-1.791-.046.768.768 0 00-.651.525c-.075.463.59.827.887 1.1.414.385 1.592.036 2.118.015.821-.037 1.649-.02 2.474.027zm-.742-7.7a.2.2 0 01-.035-.156 4.457 4.457 0 01.09-.65c.237-1.1 1.686-.623 2.5-.637a.421.421 0 01.428.151.326.326 0 01.009.17 1.775 1.775 0 01-.58 1.077l-.061.051a11.416 11.416 0 00-2.124 0 .23.23 0 01-.227-.009zM189.7 332.352c-.5-1.935-5.2.407-6.209.653l.156-.072c-1.658.408-3.312.827-4.941 1.3l.636-.182q-2.553.13-5.092.337l.5-.046c-1.311-.084-2.622-.14-3.932-.193a1.272 1.272 0 01-.422-.092l-.028-.012a2.139 2.139 0 01-.816-3.384l.48-.553a1.9 1.9 0 00.219-.3l2.827-4.694a1.708 1.708 0 00.08-.153l2.306-4.878a1.557 1.557 0 00.07-.175l1.744-5.156a1.72 1.72 0 00.073-.293l.863-5.358a1.53 1.53 0 00.016-.136c.206-2.7.454-7.68.518-10.519v-.093l-.227-5.377a1.608 1.608 0 00-.026-.228l-.953-5.328a1.681 1.681 0 00-.061-.242c-.891-2.7-2.269-7.171-3.11-10.088a1.885 1.885 0 00-.171-.413 249.686 249.686 0 00-5.532-9.4 2.087 2.087 0 00-.24-.314 158.538 158.538 0 00-11.678-11.413 1.953 1.953 0 00-.3-.219l-4.907-2.9a1.683 1.683 0 00-.307-.144l-5.361-1.924a1.737 1.737 0 00-.324-.085c-2.837-.468-7.7-1.385-10.661-2.015a1.836 1.836 0 00-.314-.041 264.688 264.688 0 00-11-.273 1.782 1.782 0 00-.253.016 286.848 286.848 0 00-10.816 1.622 1.838 1.838 0 00-.219.053c-.7.217-4.318 1.333-5.265 1.624a1.766 1.766 0 00-.244.1l-4.893 2.329-.088.046-4.684 2.66a1.705 1.705 0 00-.225.151l-4.249 3.324a1.638 1.638 0 00-.209.193l-3.5 3.813-3.708 3.757a1.853 1.853 0 00-.223.263l-1.843 2.7a2.125 2.125 0 01-1.27.87L73 273.585a1.724 1.724 0 01-.285.045l-5.48.43a1.589 1.589 0 00-.282.048c-1.776.454-3.986.517-5.594 1.387-4.6 2.489 6.265 12.387 8.531 14.193a1.355 1.355 0 001.539.364c.541-.4.211-1.251-.16-1.812-.987-1.5-6.04-7.142-5.791-8.769.379-2.466 6-.991 7.99-1.341l11.644-2.053a2.1 2.1 0 001.313-.8l2.952-3.891a1.8 1.8 0 01.219-.24l3.6-3.336 3.4-3.389a2.185 2.185 0 01.246-.21l3.559-2.621a2.14 2.14 0 01.269-.17l4.1-2.171.138-.068 4.264-1.887a2.155 2.155 0 01.282-.1l4.338-1.24a1.975 1.975 0 01.262-.057c2.425-.373 7.083-.976 9.648-1.241a1.7 1.7 0 01.247-.011c2.467.048 7.026.252 9.655.44a1.866 1.866 0 01.307.047c2.407.568 6.993 1.538 9.567 2.019a1.989 1.989 0 01.364.1l3.763 1.441a3.106 3.106 0 01.572.261l3.527 2.188a2.286 2.286 0 01.325.245c3.13 2.851 6.19 5.968 9.922 10.068a2.09 2.09 0 01.244.325 211.04 211.04 0 014.418 7.81 1.856 1.856 0 01.162.413 289.618 289.618 0 002.6 8.954 2.058 2.058 0 01.067.287l.686 4.262a2.17 2.17 0 01.026.289l.112 4.5v.138c-.095 2.4-.365 7.081-.558 9.616 0 .064-.012.123-.023.186l-.7 4.261a2.19 2.19 0 01-.088.348l-1.381 4.033a2.015 2.015 0 01-.094.23l-1.923 4.03a2.071 2.071 0 01-.1.191L163.158 325a2.2 2.2 0 01-.222.3l-2.193 2.5-1.161-1.009a1.718 1.718 0 00-.218-.163l-4.7-3a1.856 1.856 0 00-.365-.182l-5.369-1.988a1.938 1.938 0 00-.418-.1c-1.162-.151-4.426-.576-5.837-.761a2 2 0 00-.65.021l-6.331 1.246a2.073 2.073 0 00-1.253.778l-4.089 5.321a2.091 2.091 0 00-.392 1.717l1.272 6.037a2.088 2.088 0 00.8 1.254l4.681 3.475a2.018 2.018 0 00.745.347l5.377 1.281a2.06 2.06 0 00.611.053l5.788-.346h.046l5.835-.676a2 2 0 00.7-.213c.883-.453 2.983-1.533 4.336-2.23a2.143 2.143 0 012.149.1l.714.457a2.378 2.378 0 00.531.254c1.307.421 3.205 1 5.4 1.651a2.149 2.149 0 00.8.087c1.365-.109 3.151-.27 5.474-.5a2.368 2.368 0 00.335-.057c1.1-.28 3.031-.792 5.135-1.394a2.323 2.323 0 00.492-.2c1.394-.779 2.769-1.6 4.138-2.437l.157-.074c1.05-.486 4.325-2.508 4.278-3.89a1.441 1.441 0 00-.054-.307zm-41.265 1.13l-4.249.3a2.2 2.2 0 01-.632-.048l-2.316-.524a2.136 2.136 0 01-.793-.359l-1.381-1-.279-1.246.518-.692a2.166 2.166 0 011.291-.821l1.732-.362a2.132 2.132 0 01.7-.031l3.434.407a2.162 2.162 0 01.474.111l3.6 1.284a2.159 2.159 0 01.414.2l2.832 1.756-.967.493zm100.539 10.41l-1.576 7.547c0 .006-2.161 7.234-2.227 7.55l-2.433 7.466-3.144 7.187-3.745 7.042-4.816 6.456-5.209 5.933-5.492 5.723-6.226 5.195-6.606 4.794-7.405 3.922-7.832 3.107a226.448 226.448 0 01-24.112 5.149c-4.171.365-12.189.869-16.464 1.033-.194-.011-7.706-.444-8.323-.481l-8.326-.947a1737.365 1737.365 0 00-16.566-4.065c-7.4-3.052-15.617-6.688-23.225-10.712-3.431-2.644-9.764-7.732-13.156-10.579l-5.611-6.162-5.355-6.513-4.036-7.516-5.489-15.354c-.537-4.095-1.3-11.951-1.561-16.17l.248-8.082c.327-10.519 4.441-21.74 8.353-31.411a33.854 33.854 0 01-8.864 6.571 8.544 8.544 0 01-4.529 1.223 9.77 9.77 0 01-4.679-2.257c-2.044-1.494 1.352-6.087 2.511-7.611 2.107-2.775 3.987-3.135 7.075-4.073 2.748-.834 6.539-2.881 9.351-1.778 2.076.812 4.75.947 4.4 3.825-.909 7.418-2.957 14.66-4.068 22.05-.612 4.069-1.15 9.4-1.511 13.893l-.151 7.447.65 7.481.9 7.194 5.144 13.981 3.46 6.305 4.783 5.716 5.126 5.527a880.395 880.395 0 0011.953 9.538c6.318 3.366 13.709 6.69 21.17 9.811q7.671 1.865 15.321 3.8l7.479.873 7.631.455c3.952-.105 11.461-.479 15.394-.768a210.561 210.561 0 0022.53-4.51l6.948-2.648 6.576-3.37 6.019-4.239 5.786-4.7 5.182-5.249 5.006-5.542 4.432-5.768 3.486-6.331 3.022-6.642 2.339-6.833 2.233-7.043 1.637-7.23s3.535-11.661 2.063-18.223c-.002.002 6.007-11.908 4.533 19.013zm-78.054 36.031c-.724-7.484-4.4-13.2-9.538-18.917a.979.979 0 01-.13-.183q-1.192-2.135-2.491-4.226c-.192-.093.442-.972-.57-1.46 2.02-1.709-2.25-1.5-5.57-.409a.9.9 0 01-.235.046c-1.254.073-3.249.281-5.943.6a.793.793 0 00-.085.014l-7.669 1.743a1.087 1.087 0 00-.221.075c-1.706.8-4.241 2.042-7.064 3.443a1.026 1.026 0 00-.228.151c-.853.761-4.809 4.284-5.953 5.3a1.025 1.025 0 00-.313.506c-.358 1.309-1.781 6.5-2.053 7.5a1.023 1.023 0 00-.038.27l-.076 7.648a1.013 1.013 0 00.128.506l3.647 6.712a.95.95 0 00.241.294l6 4.982a1.012 1.012 0 00.449.217c.614.135 1.169.253 2.756.573a1.157 1.157 0 01.565.3 7.112 7.112 0 00.938.762 19.749 19.749 0 00-5.392 2.618c-1.139.319-.164 3.958 1.977 3.358 1.937-1.006 4.733-2.029 6.745-4.807a1.138 1.138 0 011.215-.456c.319.084.645.157 1.12.245a1.111 1.111 0 01.905 1.306c-.156.725-.141 2.069.735 5.094.074.629 2.691.928 3.638-.333a1.071 1.071 0 00.207-.8 6.231 6.231 0 00-.988-3.312 1.118 1.118 0 01.957-1.626l1.87-.055a1.1 1.1 0 01.821.327 17.082 17.082 0 005.824 3.98c.6.792 3.634-2.121 2.012-3.338a15.483 15.483 0 00-3.127-1.77c7-1.5 13.388-9.062 14.914-16.484a1.3 1.3 0 00.024-.394zm-15.047-19.568a9.155 9.155 0 01.117 2.868l.034.418c.323 2.037.453 4.915 1.006 8.033a.964.964 0 01.016.185l-.019 7.4a1.061 1.061 0 01-.043.3c-.568 1.945-1.079 3.9-1.615 5.855a1.019 1.019 0 01-.144.312c-.627.909-2.336 3.526-3.334 5.075a1.039 1.039 0 01-.2.23 17.926 17.926 0 00-2.887 2.4 1.152 1.152 0 01-.753.353l-1.77-2.865c.184-.317.385-.658.607-1.031a1.109 1.109 0 00.079-.158c.742-1.871 1.833-4.7 2.891-7.585a1.073 1.073 0 00.049-.185 153.645 153.645 0 015.291-20.365zM138.293 392c-.168-.6-.706-1.868-1.219-3.126a1.1 1.1 0 01-.078-.33 239.257 239.257 0 00-.6-6.708 1.108 1.108 0 01.014-.325c.424-2.159.879-4.313 1.267-6.48a1.076 1.076 0 01.139-.367l3.524-5.842a1.094 1.094 0 01.125-.17c1.947-2.173 3.918-4.326 5.842-6.52a1.054 1.054 0 01.224-.192 89.142 89.142 0 005.166-3.549c.186-.038.085-.007.737-.142.462-.232.028-.011 1.1-.585-.413.575-.719 1-1.874 2.753a1.286 1.286 0 00-.1.177 98.207 98.207 0 00-6.778 20.258 1.041 1.041 0 01-.041.142q-1.347 3.58-2.6 7.192a31.6 31.6 0 00-2.17 4.6 1.111 1.111 0 01-1.382.748l-1.02-.3a10.643 10.643 0 00-.276-1.234zm-9-4.8l-2.684-5.455a1.124 1.124 0 01-.113-.541l.28-6.256a1.087 1.087 0 01.048-.277l1.8-5.875a1.119 1.119 0 01.33-.51l4.66-4.1a1.082 1.082 0 01.248-.165c2.032-.987 4.064-1.972 6.077-2.994a1.029 1.029 0 01.228-.086l5.679-1.418c-.091.046-.016 0-.387.192-1.75 1.66-4.306 4.18-6.962 6.778a.883.883 0 00-.125.148l-4.431 6.544a1.045 1.045 0 00-.16.357c-.453 1.908-1.009 4.619-1.667 7.734a1.149 1.149 0 00-.021.336c.18 1.923.493 4.748.885 7.9a1.063 1.063 0 00.09.318l.729 1.57-4.258-3.873a1.13 1.13 0 01-.247-.322zm30.674 3.437a1.121 1.121 0 01-.41.287q-1.967.786-3.923 1.593c1.566-2.24 1.464-2.03 3.542-5.121a1.187 1.187 0 00.165-.362c.438-1.725 1.115-4.224 1.795-7.036a1.057 1.057 0 00.029-.312l-.466-8.239a.768.768 0 00-.028-.179c-.479-1.871-1.177-4.7-1.95-7.609a1.063 1.063 0 01-.034-.337q.071-1.162.1-2.329c.774 2.145 2.407 4.074 4.309 6.976a1.27 1.27 0 01.065.113l2.918 5.716a1.124 1.124 0 01.11.347l.811 5.665a1.107 1.107 0 01-.095.631l-2.423 5.153a1.067 1.067 0 01-.188.277c-1.463 1.571-2.887 3.178-4.328 4.771zm60.159-59.125a10.818 10.818 0 015.177 1.84.559.559 0 00.919-.451 14.373 14.373 0 01.15-3.776.542.542 0 00-.321-.626l-2.754-1.191a.551.551 0 00-.657.164 24.817 24.817 0 01-2.814 3.076.551.551 0 00.299.969zm9.3 10.519c-.856-2.964-3.048-5.347-5.357-7.4a5 5 0 00-1.586-1.066 5.234 5.234 0 00-1.376-.228c-1.845-.14-4.183-.721-6-.49-1.754.223-3.879 1.819-5.443 2.639a8.2 8.2 0 00-1.774 1.141 8.339 8.339 0 00-1.348 1.779 32.777 32.777 0 00-2.857 5.26c-.527 1.342-.875 2.749-1.407 4.089a29.129 29.129 0 01-4.563 7.2q-2.454 3.086-5.06 6.046a6.957 6.957 0 00-1.192 1.649 6.8 6.8 0 00-.454 1.917q-.264 1.929-.526 3.86a7.486 7.486 0 00.528 4.784q.675 1.813 1.348 3.627a5.169 5.169 0 002.332 3.1l3.062 2.271a11.463 11.463 0 001.888 1.217 9.2 9.2 0 002.155.651 22.109 22.109 0 0013.3-1.391 7.226 7.226 0 001.371-.762 8.937 8.937 0 001.6-1.7 16.866 16.866 0 004.466-9.325l1.96-9.632a16.8 16.8 0 011.22-4.143c.416-.846.972-1.616 1.459-2.424a19.1 19.1 0 002.437-6.745c.095-.571.166-1.15.2-1.731a12.117 12.117 0 00-.388-4.188zM198 377.654a.584.584 0 01-.5.677l-.127.009a.616.616 0 01-.607-.473c-2.179-10.653 3.117-14.566 6.69-18.221 1.764-1.805 3.288-3.364 3.822-5.366 4.8-17.993 10.252-18.249 10.55-18.251a.634.634 0 01.633.576.6.6 0 01-.612.583c-.111.006-4.845.5-9.352 17.373-.611 2.284-2.31 4.023-4.11 5.864-3.565 3.646-8.454 7.142-6.387 17.229zm3.567 2.86a.63.63 0 01-.583.347l-.242-.048a.566.566 0 01-.325-.764l20.219-43.011a.648.648 0 01.825-.3.565.565 0 01.325.764zm18.879-27.973c-1.569 2.781-3.191 5.659-3.375 8.92-.89 15.695-11.013 20.448-11.48 20.625l-.247.043a.632.632 0 01-.571-.36.565.565 0 01.339-.757c.107-.041 9.86-4.686 10.7-19.614.2-3.514 1.885-6.5 3.516-9.4 2.339-4.145 5.934-7.289 3.961-12.589a.57.57 0 01.389-.737.643.643 0 01.8.362c2.147 5.778-1.678 9.327-4.035 13.507zM99.126 278.7a6.425 6.425 0 106.421-6.169 6.3 6.3 0 00-6.421 6.169zm11.019 79.21c-.3.172-.581.374-.872.555a2.228 2.228 0 01-1.868.4c.326.119-.374 1.688-.6 1.792a4.651 4.651 0 01-2.033-.468.867.867 0 01-.555-1.053 8.2 8.2 0 00.257-1.072l-2.819-1.582-.06.05a.881.881 0 00-.31.924l.575 1.984a.852.852 0 01-.527 1.046 6.928 6.928 0 01-2.2.7c-.871-.126-1.357-2.127-1.773-2.765a10.016 10.016 0 00-2.509-2.636.883.883 0 01-.317-1.022 2.153 2.153 0 00-.618-2.33 1.51 1.51 0 01-.687-.747 1.1 1.1 0 01.168-.669l3.174-6.394a11.3 11.3 0 012.911-3.5c.7-.6 1.337-1.73 2.371-2.051 1.267-.394 3.422 2.262 4.275 3.474a.891.891 0 001.031.312 27.886 27.886 0 003.7-1.12c1.182-.6 3.924-.651 5.03.185.983.743.534 1.081.424 2.1-.143 1.32.891 3.189.313 4.38-.744 1.536-1.3 3.182-1.937 4.762-.248.609-.483 1.23-.738 1.84a4.16 4.16 0 01-2.934 2.554 2.811 2.811 0 00-.872.351zm-15.922 8.99l.025-.046a2.349 2.349 0 01.776-.715l5.216-3.5c2.077-1.4 5.822-.23 8.185-.014a2.213 2.213 0 012.088 1.162q1.207 1.681 2.416 3.361a10.264 10.264 0 011.243 2.047 9.213 9.213 0 01.538 2.441 43.289 43.289 0 01-2.421 20.026 2.2 2.2 0 01-.5.879 2.247 2.247 0 01-.862.432l-4.335 1.447a1.872 1.872 0 01-2.089-.653 120.338 120.338 0 01-6.9-9.975 25.75 25.75 0 01-3.464-8.108 27.208 27.208 0 01-.125-7.886 2.443 2.443 0 01.209-.898zm4.194 14.388a23.912 23.912 0 005.111-.965c-.073-.421-.132-.838-.24-1.249-.954.037-6.184 1.022-5.313 2.091a.591.591 0 00.441.123zm-2.094-4.844c.449-.07 5.767-.99 6.491-1.3a7.83 7.83 0 00-.014-1.305c0 .019-5.021.663-5.469.864-.501.22-1.895.997-1.009 1.741zM187 353.616c-.382-3.3-2.625-5.633-5.863-5.633a5.838 5.838 0 00-5.619 4.026 2.279 2.279 0 01-1.284 1.4 6.055 6.055 0 00-3.77 5.555c.006 3.784 3.725 6.448 7.634 6 6.931-.8 9.185-8.898 8.902-11.348zm-6.7-1.448c-.658.85-1.59 1.253-2.082.9s-.355-1.324.3-2.174 1.59-1.253 2.081-.9.36 1.324-.299 2.174zm7.161 40.112a2.018 2.018 0 01-1.237-1.131 5.528 5.528 0 00-4.942-3.373 5.664 5.664 0 00-5.741 6.224c.49 5.873 7.805 8.056 10.052 7.9 3.03-.206 5.236-2.016 5.35-4.746a4.959 4.959 0 00-3.481-4.874zm-4.115-.43c-.318.37-1.138.223-1.832-.327s-1-1.3-.679-1.668 1.139-.224 1.832.327.999 1.297.68 1.668zm20.183-70.991c-1.871-1.55-4.224-1.721-5.918-.209a3.911 3.911 0 00-.9 4.732 1.547 1.547 0 01.038 1.335 4.2 4.2 0 00.839 4.668 4.848 4.848 0 007.028-.429c3.22-3.656.302-8.947-1.086-10.097zm-4.056 1.971a1.066 1.066 0 01-1.044.888 1.01 1.01 0 01-.233-1.321 1.07 1.07 0 011.044-.889 1.01 1.01 0 01.234 1.322zm-20.5-76.373a8.573 8.573 0 01.769 2.918 5.377 5.377 0 01-.461 2.1c-.563 1.516-3.862 6.608-3.225 8 .2.437.16.97.328 1.431.094.26.19.523.295.791a19.932 19.932 0 01.555 2.189c.1.388.195.789.312 1.173a1.42 1.42 0 01-.7 1 .361.361 0 01-.044.022.559.559 0 01-.661-.155 25.452 25.452 0 01-.711-.861 22.141 22.141 0 00-1.493-1.729 90.408 90.408 0 00-21.308-15.814 48.84 48.84 0 00-27.968-5.46c-.444.039-.89.066-1.322.092-.77.045-1.5.089-2.222.2-.449.067-.9.123-1.339.176-.766.093-1.489.181-2.2.331-1.163.246-2.281.549-3.363.843l-.123.033c-1.111.3-2.268.651-3.437 1.039-.756.251-1.46.56-2.141.86-.409.179-.8.349-1.182.5-.315.125-.623.244-.923.362-.871.337-1.694.659-2.4.99a34.035 34.035 0 00-3.153 1.683.9.9 0 01-.819 0 .477.477 0 01-.3-.421 6.363 6.363 0 011.4-3.11c.309-.439.6-1.11 1.023-1.775a2 2 0 00.118-2.007 11.718 11.718 0 01-.616-1.609 13.073 13.073 0 01-.755-3.522 11.558 11.558 0 01.341-2.764 35.78 35.78 0 00.269-1.43 13.911 13.911 0 01.755-2.992 15.005 15.005 0 014.364-6.136l.27-.254a16.475 16.475 0 012.709-2.205 21.028 21.028 0 013.523-1.666 17.244 17.244 0 012.873-.708c.3-.055.593-.111.892-.171l.35-.071a24.986 24.986 0 013.122-.5 21.466 21.466 0 013.5 0 18.089 18.089 0 013.44.553 7.926 7.926 0 012.1 1.1c.294.195.572.379.858.542a14.852 14.852 0 012.742 1.865 15.748 15.748 0 012.159 2.457 16.918 16.918 0 011.647 2.8.866.866 0 00.7.478 1.059 1.059 0 00.884-.3 15.321 15.321 0 012.769-2.239 14.07 14.07 0 013.207-1.631 14.336 14.336 0 013.529-.666 15.929 15.929 0 013.535.19 19.57 19.57 0 013.374.866 12.915 12.915 0 012.6 1.342l.389.239a12.194 12.194 0 012.59 2.062 10.96 10.96 0 011.852 2.687c.108.218.218.432.327.644a9.147 9.147 0 01.969 2.385 14.194 14.194 0 01.2 3.331c-.019.4-.548 1.532-.256 1.756a1.2 1.2 0 001.023.185 12.556 12.556 0 013.774-.426 10.994 10.994 0 013.594.925 11.207 11.207 0 013.106 1.883 17.631 17.631 0 013.984 5.599z" transform="translate(-49.938 -191.469)" fill="#5f3700" fill-rule="evenodd"/></svg>