<svg xmlns="http://www.w3.org/2000/svg" width="176.125" height="65.954" viewBox="0 0 352.25 131.907"><path data-name="50% main_visual_copy_sm.svg" d="M47.095 41.999c.78 0 1.44-.18 1.44-.66 0-1.02-4.259-5.159-4.559-5.159a.289.289 0 00-.24.12 29.876 29.876 0 01-10.079 5.519 21.329 21.329 0 01-3.48-4.979c1.86 0 4.2.06 5.52.06v.9c0 .42.24.6 2.1.6 3.48 0 3.6-.36 3.6-.66v-.359a61.747 61.747 0 01-.48-8.22c0-3.959 0-7.019.3-10.319 3.12 1.98 7.2 4.2 7.919 4.2a.938.938 0 00.72-.36c1.26-1.56 3.48-2.46 5.1-3.48a1.288 1.288 0 00.66-.66.859.859 0 00-.66-.36C44.877 15.243 35.638 9.243 31.078 4.444a1.528 1.528 0 001.2-1.02c0-1.32-6.359-3.42-6.539-3.42-.3 0-.36.24-.48.54-1.14 4.2-11.759 15.779-24.478 20.4a1.038 1.038 0 00-.78.54 1.058 1.058 0 00.78.54c1.44.6 3.9 1.56 4.919 2.76a.681.681 0 00.48.18c1.02 0 6.119-3.6 7.739-4.8a70.971 70.971 0 01.36 7.68c0 1.859-.06 3.779-.06 6.179 0 4.019 0 8.639-.24 13.558a92.912 92.912 0 01-11.339 1.68c-.66 0-.66 0-.66.24 0 .36 2.7 5.88 3.84 5.88.48 0 .96-.72 1.86-.96l22.078-5.64a.77.77 0 00.78-.84 11.438 11.438 0 01.18-1.919c7.2 7.379 18.6 9 19.438 9a.816.816 0 00.78-.42c1.02-1.5 3.42-3.06 4.8-4.02a1.411 1.411 0 00.6-.72c0-.12-.18-.24-.66-.24-7.98-.06-13.919-1.86-18.179-4.619 3.12-1.08 5.76-2.16 7.2-2.7a3.832 3.832 0 011.44-.3h.959zM24.238 13.022a27.338 27.338 0 01.6 5.4c-2.28 0-5.04-.06-8.4-.24a80.969 80.969 0 0011.1-10.678 65.708 65.708 0 0012.539 10.559c-3.359.179-7.139.239-10.019.3a6.47 6.47 0 01.36-1.979c.3-.78 1.14-1.62 1.14-2.22a.711.711 0 00-.72-.66 43.755 43.755 0 00-6.179-.96c-.36 0-.42.06-.42.24v.24zm4.8 31.137c-2.039.54-5.579 1.32-9.539 2.22-.06-4.14-.06-6.84-.06-9.479 1.2 0 3.3-.06 5.22-.06a30.807 30.807 0 004.378 7.319zm-9.6-14.579c2.1 0 6.96-.12 8.459-.12s6.06.12 7.98.12c0 1.08-.06 2.16-.06 3.36-1.98 0-6.66.12-7.98.12s-6.3-.12-8.4-.12v-3.36zm16.379-4.019c-1.98 0-6.66.06-7.98.06s-6.239-.06-8.339-.06c0-1.98.06-3.3.06-3.3s6.18-.06 8.279-.06 7.98.06 7.98.06v3.3zm80.218 19.738c1.08 0 4.08-4.8 4.08-5.22a.835.835 0 00-.78-.66c-10.979-3.839-24.178-14.7-27.657-17.1a10.588 10.588 0 00-5.94-2.16 7.3 7.3 0 00-4.859 1.92c-4.44 3.9-5.16 5.46-11.279 9.9a.539.539 0 00-.3.36c0 .66 4.8 4.38 5.939 4.38s1.2-1.68 2.22-2.82c6.659-7.439 7.259-7.919 8.579-7.919a5.148 5.148 0 012.7 1.08c2.28 1.5 16.678 14.038 26.517 18a3.477 3.477 0 00.78.239zm-11.279-21.9c.48 0 2.82-2.52 2.82-3.48 0-1.02-7.8-5.639-8.459-5.639-.6 0-2.46 2.34-2.58 2.52a.867.867 0 00-.12.42.52.52 0 00.24.42 65.108 65.108 0 017.559 5.459.829.829 0 00.54.302zm5.82-5.28c.78 0 2.879-2.7 2.879-3.539 0-1.14-8.1-5.58-8.459-5.58-.6 0-2.459 2.34-2.579 2.52a.867.867 0 00-.12.42.52.52 0 00.24.42 65.076 65.076 0 017.5 5.46.828.828 0 00.539.301zm47.522 6.24c-.24 0-.3-.06-.3-.18a.636.636 0 01.24-.36c4.139-3.96 8.639-8.039 10.378-9.719.36-.36 1.5-.9 1.5-1.56 0-.9-4.5-3.96-5.4-3.96a.721.721 0 00-.48.12c-1.8 1.02-11.159 2.46-16.618 2.46-.84 0-1.62-.06-2.28-.12h-.36a.456.456 0 00-.54.54 22.425 22.425 0 001.5 4.86.847.847 0 00.84.6 66.962 66.962 0 0013.378-2.64 2.7 2.7 0 01.48-.12.209.209 0 01.12.06c0 1.08-14.158 13.858-22.077 19.8a.467.467 0 00-.18.42c0 .66 4.259 3.9 4.619 3.9a.8.8 0 00.42-.18c2.1-1.979 3.18-3.059 6.659-6.059a17.372 17.372 0 0110.859-3.72c6.06 0 9.6 3.3 9.6 7.5 0 5.159-4.679 8.579-7.139 9.6-.42-6.12-5.279-8.519-9.9-8.519-5.7 0-7.859 3.539-7.859 6.359 0 4.559 4.979 8.1 12.119 8.1 11.158 0 18.658-7.8 18.658-15.538 0-6.24-4.92-12.059-13.859-12.059a24.285 24.285 0 00-4.2.42h-.18zm-.3 22.378h-.42c-3.72 0-6.48-1.56-6.48-3.24 0-.12 0-1.92 2.7-1.92 1.8 0 4.2 1.2 4.2 5.04v.12zm72.058 2.459c.72-.18.9-.36.9-3.3s-.18-3.72-.72-3.72a1.321 1.321 0 00-.48.06 68.848 68.848 0 01-15.479 2.34c-6.419 0-11.1-1.86-12.838-6.78a1 1 0 00-.84-.839 29.253 29.253 0 00-4.2 1.979.689.689 0 00-.36.66.652.652 0 00.06.3c2.58 7.919 10.019 10.919 19.738 10.919a72.782 72.782 0 0014.219-1.617zm-28.317-35.154c-1.02 0-1.74 4.679-1.74 5.219 0 .42.18.84 4.319.84 1.92 0 3.96-.12 6.48-.12a61.5 61.5 0 0114.038 1.62 2.6 2.6 0 01.3.06.584.584 0 00.6-.48 34.161 34.161 0 00.54-4.979c0-.72-.06-.84-.84-.96a86.3 86.3 0 00-13.378-1.14c-2.88 0-5.1.18-6.96.18a18 18 0 01-3.179-.24h-.18zm82.437 34.676c-.12-1.02-.3-3.839-.3-5.039 0-.54-.12-.72-.36-.72a1.821 1.821 0 00-.66.18 46.19 46.19 0 01-14.458 2.58c-6.84 0-10.439-3.3-10.439-6.6 0-2.819 2.7-6 9.719-8.339 1.739-.6 3.839-1.14 6-1.74 3.06-.84 7.019-1.919 8.639-2.459a1.131 1.131 0 001.02-1.2c0-1.02-.78-5.58-1.5-5.58a.652.652 0 00-.3.06c-1.74.66-6.239 2.64-10.439 3.9-1.02.3-1.92.6-2.759.9a17.2 17.2 0 01-.72-5.46c0-3.179.48-6.479.6-8.4.12-1.32 1.319-2.28 1.319-3 0-1.32-5.7-1.8-7.2-1.8-.54 0-.72.06-.72.48 0 .12.06.24.06.48a14.619 14.619 0 01.12 2.579c0 1.74-.06 4.02-.06 6.48 0 3.779.18 7.919 1.08 10.739-7.619 3.479-10.8 8.339-10.8 12.838 0 5.82 5.28 10.979 13.379 11.759 1.32.12 2.82.18 4.439.18.3 0 14.339-.24 14.339-2.64v-.18zM335.157 37.5a25.765 25.765 0 00-4.74-.42c-7.139 0-10.859 3.059-10.859 6.659 0 3.36 3.9 8.459 10.979 8.459 4.26 0 8.459-1.44 10.259-7.619a52.614 52.614 0 017.679 4.859.8.8 0 00.42.18c.84 0 3.36-4.5 3.36-4.919 0-.66-5.4-3.72-11.639-5.82-.18-2.4-.6-8.339-.6-14.1v-1.8c2.04-.12 4.14-.24 6.179-.24h1.32c.78 0 .9-.12.9-1.5 0-3.9-.18-4.259-1.02-4.259-.54 0-6.419.66-7.2.72.12-2.1.18-4.14.36-6.18.06-.84 1.02-1.74 1.02-2.4 0-1.319-4.86-1.379-5.46-1.379-1.319 0-1.8.06-1.8.6v.18a32.142 32.142 0 01.36 4.2l.12 5.639-7.68.96a54.094 54.094 0 01-7.019.54c-.54 0-.78.06-.78.42a36.848 36.848 0 001.26 4.2 1.124 1.124 0 001.08.72h.18c2.1-.18 7.079-1.08 13.019-1.74.06 4.679.12 9.179.3 13.139v.9zm-23.518.359a2.636 2.636 0 01-.6 1.14c-.06 0-.66-.72-.66-4.559a70.384 70.384 0 013.78-20.758c.42-1.26 1.86-1.98 1.86-2.64 0-1.08-6.42-3.059-7.14-3.059-.18 0-.24.18-.24.659a53.064 53.064 0 01-.96 6.6c-1.319 6.719-2.459 13.438-2.459 19.738 0 11.159 4.019 17.4 4.739 17.4.06 0 4.5-.6 4.5-1.68a.761.761 0 00-.06-.36 8.09 8.09 0 01-.72-3.419c0-2.04.54-5.16 2.34-10.139a1.907 1.907 0 00.18-.54.434.434 0 00-.24-.36 6.368 6.368 0 01-2.1-2.52 2.345 2.345 0 00-.3-.24.329.329 0 00-.24.3zm23.878 4.62c-.42 2.88-2.1 4.5-5.46 4.5-2.82 0-4.859-1.5-4.859-2.94 0-.96.78-2.34 5.279-2.34a18.364 18.364 0 015.04.78zm-304.56 57.842c5.28 0 10.079.06 17.218.48.54 0 .72-.18.72-2.94s-.24-2.939-.72-2.939c-7.859.48-11.758.54-17.158.54v-5.82c.06-3.959.18-3.779.9-5.039a6.571 6.571 0 00.96-1.74c0-1.14-5.519-2.1-7.679-2.22-.36 0-.48.06-.48.36v.24a60.04 60.04 0 01.6 9c0 .48.06 2.4.06 5.22-1.38 0-2.34.06-3.48.06s-2.52-.06-4.8-.12l1.439-3.9a5.6 5.6 0 011.62-2.34 2.348 2.348 0 001.14-1.44 1.332 1.332 0 00-1.14-.9c-2.1-.719-5.279-1.919-5.7-1.919-.36 0-.54.12-.54.42 0 3.419-4.44 17.338-12 23.817a.434.434 0 00-.24.36.717.717 0 00.66.3 15.7 15.7 0 015.22 1.68.867.867 0 00.42.12c.72 0 3.9-4.56 7.02-11.279 1.92-.12 3.359-.12 4.619-.12 2.04 0 3.6.06 5.76.12 0 2.82.06 6 .06 9.239-3.18-.06-6.84-.18-12.3-.54-.78 0-.84 0-.84 2.94 0 2.82.12 2.82.84 2.82 5.4-.36 9.059-.48 12.3-.54 0 4.079-.06 8.1-.06 11.279-1.56 0-3.12.06-4.8.06-4.139 0-9-.12-16.378-.6-.66 0-.78 0-.78 3.059 0 2.46 0 2.82.78 2.82 11.279-.48 17.158-.54 23.517-.54 6.9 0 12.719.06 24.6.54.54 0 .72-.18.72-2.94 0-2.579-.18-2.939-.78-2.939-10.5.42-15.478.54-21.238.54 0-3.18-.06-7.2-.06-11.279 3.48 0 7.439.12 12.779.54.66 0 .72-.18.72-2.88 0-2.22-.12-2.88-.72-2.88-5.7.36-9.239.48-12.779.54v-9.239zm79.259.66c-.48-1.32-2.46-4.02-3-4.02a1.526 1.526 0 00-.42.12 63.528 63.528 0 01-8.039 2.94 67.57 67.57 0 01-1.8-4.379c6.6-1.86 7.079-2.4 7.079-2.94v-.18c-.36-1.14-2.159-3.84-2.7-3.84a.761.761 0 00-.36.06c-1.8.78-3.66 1.44-5.52 2.04a32.4 32.4 0 01-.72-4.2c0-.839.24-1.5.24-1.979 0-.6-.24-.84-2.16-.84-1.739 0-4.5.24-4.5.66a44.083 44.083 0 002.16 7.619 30.837 30.837 0 01-5.28.42 32.021 32.021 0 01-7.679-.96 1.351 1.351 0 00-.42-.06c-.24 0-.42.12-.42 2.34 0 1.86.18 3 .9 3.119a37.455 37.455 0 006.779.6 42.245 42.245 0 007.919-.72c.6 1.5 1.26 2.88 1.92 4.32a55.517 55.517 0 01-10.439 1.08 36.608 36.608 0 01-7.679-.72 1.689 1.689 0 00-.48-.06c-.18 0-.42 0-.42 1.26 0 1.98.06 4.259 1.08 4.379a46.668 46.668 0 006.539.42 70.615 70.615 0 0013.679-1.44c1.14 2.34 2.16 4.32 2.82 5.52-1.44 0-3.36-.06-5.46-.06-6.359 0-18.3.6-18.3 8.459 0 6 7.259 10.679 17.4 10.679a28.035 28.035 0 006.48-.72c1.2-.3 1.5-.66 1.68-1.5.36-1.38.78-3 1.2-4.139a3.044 3.044 0 00.12-.54.159.159 0 00-.18-.18 2.694 2.694 0 00-.479.12 41.7 41.7 0 01-9.659 1.32c-4.8 0-10.319-1.26-10.319-4.56 0-3.48 6.839-3.96 10.618-3.96 2.46 0 8.34.18 10.679 1.8a1.972 1.972 0 00.96.42c.42 0 4.5-1.38 4.5-2.1a.648.648 0 00-.18-.42 79.348 79.348 0 01-7.2-11.278 74.481 74.481 0 008.519-2.94.725.725 0 00.54-.78v-.18zm39.482 1.38c-.24 0-.3-.06-.3-.18a.636.636 0 01.24-.36c4.139-3.96 8.639-8.039 10.378-9.719.36-.36 1.5-.9 1.5-1.56 0-.9-4.5-3.96-5.4-3.96a.721.721 0 00-.48.12c-1.8 1.02-11.159 2.46-16.618 2.46-.84 0-1.62-.06-2.28-.12h-.36a.456.456 0 00-.54.54 22.425 22.425 0 001.5 4.86.847.847 0 00.84.6 66.962 66.962 0 0013.378-2.64 2.7 2.7 0 01.48-.12.209.209 0 01.12.06c0 1.08-14.158 13.858-22.077 19.8a.467.467 0 00-.18.42c0 .66 4.259 3.9 4.619 3.9a.8.8 0 00.42-.18c2.1-1.979 3.18-3.059 6.659-6.059a17.372 17.372 0 0110.859-3.72c6.06 0 9.6 3.3 9.6 7.5 0 5.159-4.679 8.579-7.139 9.6-.42-6.12-5.279-8.519-9.9-8.519-5.7 0-7.859 3.539-7.859 6.359 0 4.559 4.979 8.1 12.119 8.1 11.158 0 18.658-7.8 18.658-15.538 0-6.24-4.92-12.059-13.859-12.059a24.285 24.285 0 00-4.2.42h-.18zm-.3 22.378h-.42c-3.72 0-6.48-1.56-6.48-3.24 0-.12 0-1.92 2.7-1.92 1.8 0 4.2 1.2 4.2 5.04v.12zm73.258 2.459c.72-.18.9-.36.9-3.3s-.18-3.72-.72-3.72a1.321 1.321 0 00-.48.06 68.848 68.848 0 01-15.479 2.34c-6.419 0-11.1-1.86-12.838-6.78a1 1 0 00-.84-.839 29.253 29.253 0 00-4.2 1.979.689.689 0 00-.36.66.652.652 0 00.06.3c2.58 7.919 10.019 10.919 19.738 10.919a72.782 72.782 0 0014.219-1.619zm-28.317-35.156c-1.02 0-1.74 4.679-1.74 5.219 0 .42.18.84 4.319.84 1.92 0 3.96-.12 6.48-.12a61.5 61.5 0 0114.038 1.62 2.6 2.6 0 01.3.06.584.584 0 00.6-.48 34.161 34.161 0 00.54-4.979c0-.72-.06-.84-.84-.96a86.3 86.3 0 00-13.378-1.14c-2.88 0-5.1.18-6.96.18a18 18 0 01-3.179-.24h-.18zm83.637 34.676c-.12-1.02-.3-3.839-.3-5.039 0-.54-.12-.72-.36-.72a1.821 1.821 0 00-.66.18 46.2 46.2 0 01-14.458 2.58c-6.84 0-10.439-3.3-10.439-6.6 0-2.819 2.7-6 9.719-8.339 1.739-.6 3.839-1.14 6-1.74 3.06-.84 7.019-1.919 8.639-2.459a1.131 1.131 0 001.02-1.2c0-1.02-.78-5.58-1.5-5.58a.652.652 0 00-.3.06c-1.74.66-6.239 2.64-10.439 3.9-1.02.3-1.92.6-2.759.9a17.2 17.2 0 01-.72-5.46c0-3.179.48-6.479.6-8.4.12-1.32 1.319-2.28 1.319-3 0-1.32-5.7-1.8-7.2-1.8-.54 0-.72.06-.72.48 0 .12.06.24.06.48a14.619 14.619 0 01.12 2.579c0 1.74-.06 4.02-.06 6.48 0 3.779.18 7.919 1.08 10.739-7.619 3.479-10.8 8.339-10.8 12.838 0 5.82 5.28 10.979 13.379 11.759 1.32.12 2.82.18 4.439.18.3 0 14.339-.24 14.339-2.64v-.18zm28.263 5.2a8.91 8.91 0 10-8.939-8.939 8.91 8.91 0 008.939 8.943zm0-3.84a5.07 5.07 0 110-10.139 4.994 4.994 0 015.04 5.04 5.045 5.045 0 01-5.04 5.103z" fill="#573001" fill-rule="evenodd"/></svg>