<svg xmlns="http://www.w3.org/2000/svg" width="139.703" height="6.469" viewBox="0 0 279.406 12.938"><path data-name="50% main_visual_sub_copy_sm.svg" d="M3.099 12.423a.354.354 0 00.342.342h1.673a.354.354 0 00.342-.342V2.338h2.752a.342.342 0 00.342-.342V.521A.341.341 0 008.208.18H.348a.341.341 0 00-.342.341v1.475a.342.342 0 00.342.342H3.1v10.089zm9.129 0a.342.342 0 00.342.342h7.32a.342.342 0 00.342-.342v-1.475a.341.341 0 00-.342-.341h-5.324V7.459h4.443a.341.341 0 00.342-.341V5.625a.354.354 0 00-.342-.342h-4.443V2.338h5.324a.342.342 0 00.342-.342V.521A.342.342 0 0019.89.18h-7.32a.342.342 0 00-.342.341v11.906zm12.386 0a.353.353 0 00.341.342h1.637a.342.342 0 00.342-.342V4.69h.018l7.518 8.255h.432a.338.338 0 00.342-.324V.521a.354.354 0 00-.342-.341h-1.655a.341.341 0 00-.341.341v7.428h-.018L25.405 0h-.45a.338.338 0 00-.341.324v12.1zm15.716 0a.354.354 0 00.342.342h1.636a.342.342 0 00.342-.342V4.69h.018l7.519 8.255h.431a.338.338 0 00.342-.324V.521a.354.354 0 00-.342-.341h-1.654a.342.342 0 00-.342.341v7.428h-.018L41.121 0h-.449a.338.338 0 00-.342.324v12.1zm15.716 0a.342.342 0 00.342.342h7.32a.342.342 0 00.342-.342v-1.475a.341.341 0 00-.342-.341h-5.324V7.459h4.447a.341.341 0 00.342-.341V5.625a.354.354 0 00-.342-.342h-4.443V2.338h5.324a.342.342 0 00.342-.342V.521a.342.342 0 00-.342-.341h-7.32a.342.342 0 00-.342.341v11.906zm12.386 0a.354.354 0 00.342.342h1.636a.342.342 0 00.342-.342V4.69h.018l7.519 8.255h.431a.338.338 0 00.342-.324V.521A.354.354 0 0078.72.18h-1.654a.342.342 0 00-.342.341v7.428h-.018L69.223 0h-.449a.338.338 0 00-.342.324v12.1zm21.171-3.111h4.011a.327.327 0 00.342-.324v-1.2a.331.331 0 00-.342-.342h-4.011a.331.331 0 00-.342.342v1.2a.327.327 0 00.342.324zm13.9 2.23a5.786 5.786 0 003.957 1.4c2.536 0 4.137-1.709 4.137-3.561 0-2.32-2.014-3.363-3.759-4.065-1.457-.593-2.123-1.169-2.123-2.014a1.433 1.433 0 011.583-1.259 5.918 5.918 0 012.5.989.474.474 0 00.63-.216l.683-1.025a.444.444 0 00-.108-.593 6.326 6.326 0 00-3.6-1.2c-2.86 0-4.047 1.852-4.047 3.453 0 2.122 1.691 3.2 3.382 3.884 1.51.612 2.284 1.241 2.284 2.159a1.5 1.5 0 01-1.637 1.384 5.958 5.958 0 01-2.716-1.115.416.416 0 00-.611.126l-.648 1.115a.356.356 0 00.091.534zm14.615.881a.342.342 0 00.342.342h1.655a.354.354 0 00.342-.342V6.686l4.155-5.989a.333.333 0 00-.288-.521h-1.853a.358.358 0 00-.288.162l-2.878 4.136-2.878-4.136a.354.354 0 00-.287-.162h-1.835a.333.333 0 00-.288.521l4.1 6.007v5.719zm8.753-5.935a6.466 6.466 0 106.457-6.492 6.418 6.418 0 00-6.459 6.492zm2.338 0a4.128 4.128 0 114.119 4.119 4.161 4.161 0 01-4.121-4.119zm14.763 5.845a.426.426 0 00.432.432h1.583a.438.438 0 00.431-.432V6.848l4.7 5.791a.39.39 0 00.324.126h1.96a.4.4 0 00.324-.63l-5.036-6.024 4.694-5.288a.382.382 0 00-.288-.647h-1.8a.43.43 0 00-.342.18l-4.533 5.107V.607a.438.438 0 00-.431-.431h-1.583a.426.426 0 00-.432.431v11.731zm13.268-4.334a5.01 5.01 0 0010.019 0V.517a.354.354 0 00-.342-.341h-1.709a.341.341 0 00-.341.341v7.374a2.619 2.619 0 11-5.234-.018V.517a.342.342 0 00-.342-.341h-1.709a.354.354 0 00-.342.341v7.482zm14.924 4.424a.338.338 0 00.324.342h4.263a6.295 6.295 0 100-12.589h-4.263a.338.338 0 00-.324.341v11.906zm2.32-1.852V2.352h2.047a4.11 4.11 0 010 8.219h-2.051zm11.867-4.083a6.466 6.466 0 106.457-6.492 6.418 6.418 0 00-6.459 6.492zm2.338 0a4.128 4.128 0 114.119 4.119 4.161 4.161 0 01-4.121-4.119zm25.4 0a6.449 6.449 0 006.494 6.457 6.174 6.174 0 004.37-1.745.342.342 0 00.018-.485l-1.115-1.151a.33.33 0 00-.449 0 4.321 4.321 0 01-2.752 1.025 4.175 4.175 0 01-.018-8.345 4.26 4.26 0 012.77 1.061.287.287 0 00.449 0l1.1-1.133a.335.335 0 00-.018-.5A6.087 6.087 0 00220.586 0a6.478 6.478 0 00-6.496 6.488zm13.7 6.277h1.564a.542.542 0 00.522-.36l.881-1.942h5.379l.881 1.942a.517.517 0 00.522.36h1.564a.318.318 0 00.306-.468l-5.54-12.1a.306.306 0 00-.306-.2h-.179a.323.323 0 00-.306.2l-5.594 12.1a.318.318 0 00.308.468zm3.849-4.3l1.763-3.956h.053l1.8 3.956h-3.615zm11.218 3.957a.341.341 0 00.341.342h1.655a.354.354 0 00.342-.342v-4.55h4.443a.354.354 0 00.341-.342V6.056a.354.354 0 00-.341-.342h-4.443V2.338h5.324a.342.342 0 00.342-.342V.521a.342.342 0 00-.342-.341h-7.321a.341.341 0 00-.341.341v11.906zm11.773-4.424a5.01 5.01 0 0010.019 0V.516a.354.354 0 00-.342-.341h-1.709a.341.341 0 00-.341.341V7.89a2.619 2.619 0 11-5.234-.018V.516a.342.342 0 00-.342-.341h-1.709a.354.354 0 00-.342.341v7.482zm14.744 0a5.01 5.01 0 0010.019 0V.516a.354.354 0 00-.342-.341h-1.708a.342.342 0 00-.342.341V7.89a2.619 2.619 0 11-5.234-.018V.516a.342.342 0 00-.342-.341h-1.709a.354.354 0 00-.342.341v7.482z" fill="#f2a64b" fill-rule="evenodd"/></svg>