<svg xmlns="http://www.w3.org/2000/svg" width="58.844" height="9.4" viewBox="0 0 117.687 18.8"><path id="_50_menu_label_takeout_sm.svg" data-name="50% menu_label_takeout_sm.svg" d="M316.684 10393.7c-.216 0-.24.1-.24 1.3s0 1.3.312 1.3c2.568-.2 5.04-.3 7.512-.3a9.849 9.849 0 01-6.912 8.6.5.5 0 00-.264.3.411.411 0 00.288.1 7.6 7.6 0 012.088 1.1.726.726 0 00.456.1h.312a13.391 13.391 0 006.673-10.2c2.04 0 4.056.1 6.168.2.216 0 .216-.2.216-.9 0-1.5 0-1.7-.24-1.7-2.76.2-6.1.4-9.937.4-1.944 0-4.032-.1-6.336-.3h-.1zm2.784-4.5c-.144 0-.216.1-.216 1.4 0 1 .024 1.1.312 1.1 2.3-.2 3.888-.2 6.1-.2a46.1 46.1 0 014.7.2c.072 0 .216 0 .216-.1.024-.3.048-.7.048-1.1a10.461 10.461 0 00-.048-1.1.234.234 0 00-.216-.2 49.1 49.1 0 01-6.1.2c-1.128 0-2.352 0-4.7-.2h-.1zm26.228 17.3c0 .3.288.3 1.584.3 1.248 0 1.32-.1 1.32-.2-.312-4-.24-8.6-.288-12.6.672-.8 1.248-1.5 1.7-2a5.073 5.073 0 011.176-1.1 1.128 1.128 0 00.768-.5c0-.5-2.5-1.9-2.688-1.9a.283.283 0 00-.168.2 8.5 8.5 0 01-1.08 1.9c-1.728 2.2-5.521 7-11.4 9.5a.342.342 0 00-.216.1.76.76 0 00.288.2 7.9 7.9 0 012.328 1.1.279.279 0 00.264.1c.336 0 3.192-1.7 6.721-5.2-.024 3.4 0 6.6-.312 10.1zm20.726-15.3l.168-.2a2.075 2.075 0 01.792-.7 1.031 1.031 0 00.576-.6c0-.4-2.448-1.7-2.784-1.7a.264.264 0 00-.192.2c-.84 2.7-4.44 7.2-8.137 9.3a.125.125 0 00-.1.1.268.268 0 00.144.2 8.918 8.918 0 011.68.8.346.346 0 00.312.1c.673 0 3.193-2 6.025-5.6 1.56 0 3.672-.1 4.392-.1.144 0 .216 0 .216.1 0 .2-4.152 8.8-12.913 11.5a.412.412 0 00-.288.2c0 .1.072.1.24.2a11.913 11.913 0 012.04 1.3.222.222 0 00.216.1c.1 0 7.345-1.9 13.49-13 .312-.6.888-.8.888-1.1 0-.4-1.872-1.5-2.112-1.5a.538.538 0 00-.337.1 12.748 12.748 0 01-3.5.3h-.816zm13.154 1.1c3.384-.4 12.025-.5 12.529-.5.144 0 .24 0 .24.1a16.5 16.5 0 01-4.248 4.5.3.3 0 00-.12.2.174.174 0 00.12.1 9.256 9.256 0 011.368.9.307.307 0 00.576 0 22.941 22.941 0 005.184-5.6c.384-.5.984-.6.984-1a5.584 5.584 0 00-2.016-1.8 1.3 1.3 0 00-.336.2c-.36.2-2.256.4-7.849.4a47.9 47.9 0 01-6.552-.3h-.072c-.264 0-.288.3-.288.8 0 1.6.048 2 .408 2h.072zm5.472 1.8c0 5.4-3.7 9.2-6.84 10.9-.12.1-.192.1-.192.2s.072.1.192.2a8.889 8.889 0 012.3 1 .658.658 0 00.36.2c.552 0 5.448-4.1 6.648-10.7a1.686 1.686 0 01.649-1 .814.814 0 00.5-.6.469.469 0 00-.432-.4 22.009 22.009 0 00-2.977-.6c-.216 0-.216.1-.216.3v.5zm16.97 5.7a.26.26 0 00.288.3 8.894 8.894 0 002.088-.4c.24 0 .312-.1.312-.2s-.024-.1-.024-.2c-.192-1.5-.456-3.6-.528-4.7 0-.2.072-.2.144-.2.937 0 2.761-.2 8.4-.2a.159.159 0 01.144.2 14.932 14.932 0 01-9.577 10.6.361.361 0 00-.24.1.222.222 0 00.24.2 13.148 13.148 0 012.113 1.1.536.536 0 00.336.2c.312 0 7.1-3 9.792-12a11.415 11.415 0 00.744-1.4 4.69 4.69 0 00-2.112-1.3h-.238a.93.93 0 01-.6.3c-1.272.1-2.52.1-3.744.2a11.681 11.681 0 01.144-2.1c.1-.4.48-.9.48-1.1a.412.412 0 00-.312-.4 20.253 20.253 0 00-2.88-.5.125.125 0 00-.1.1.572.572 0 00.024.2 21.623 21.623 0 01.312 3.8h-1.776a23.507 23.507 0 01-3.721-.2.686.686 0 00-.336.4 50.085 50.085 0 01.624 6.8v.4zm25.191 6.6c-.24-4.2-.24-9-.24-9a5.649 5.649 0 01-.024-.6c.024 0 .072.1.1.1a26.144 26.144 0 016.025 2.5c.024.1.072.1.1.1.312 0 .96-2.2.96-2.3a.262.262 0 00-.1-.2 30.391 30.391 0 00-6.217-2.1.32.32 0 00-.264.2 10.721 10.721 0 00-.6 1.3c0-1.4 0-4 .168-5.8.048-.6.72-1.1.72-1.4s-.24-.3-3.216-.7h-.048c-.168 0-.216.1-.216.3.336 3 .336 8.6.336 8.6s-.024 4.9-.264 9q0 .3.216.3c.24 0 .7.1 1.152.1 1.272 0 1.416-.1 1.416-.4z" transform="translate(-316.438 -10388)" fill="#603700" fill-rule="evenodd"/></svg>