<svg xmlns="http://www.w3.org/2000/svg" width="90.484" height="16.85" viewBox="0 0 180.968 33.7"><path data-name="50% menu_label_concept_sm.svg" d="M22.68 30.5c.48-.1.6-.2.6-2.2 0-1.9-.12-2.4-.48-2.4h-.32a47.329 47.329 0 01-10.318 1.6c-4.279 0-7.4-1.3-8.559-4.6a.669.669 0 00-.56-.5 19.315 19.315 0 00-2.8 1.3.42.42 0 00-.24.4.223.223 0 00.04.2c1.72 5.3 6.679 7.3 13.158 7.3a47.126 47.126 0 009.479-1.1zM3.803 7.1c-.68 0-1.16 3.1-1.16 3.5 0 .3.12.5 2.88.5h4.319a41.152 41.152 0 019.359 1 .923.923 0 01.2.1.373.373 0 00.4-.3 24.534 24.534 0 00.36-3.4c0-.4-.04-.5-.56-.6a58.559 58.559 0 00-8.919-.8c-1.92 0-3.4.2-4.639.2a14.124 14.124 0 01-2.12-.2h-.12zM25.919 7c0-.8-4.079-4.7-4.359-4.7-.08 0-2.04 1-2.04 1.5a.351.351 0 00.08.2 44.575 44.575 0 013.719 4.5.433.433 0 00.36.3c.4 0 2.24-1.3 2.24-1.8zm4.439-2.3c0-.4-3.8-4.7-4.319-4.7-.08 0-2.04 1-2.04 1.5a.351.351 0 00.08.2 37.1 37.1 0 013.72 4.6.325.325 0 00.36.2c.24 0 2.197-1.1 2.197-1.8zm26.883 2a15.92 15.92 0 00-.32-2.6.334.334 0 00-.36-.3.259.259 0 00-.24.1 43.943 43.943 0 01-7.159 2.3l.32-1.4c.2-.9 1.16-1.5 1.16-1.9 0-.9-4.24-1.5-4.64-1.5-.16 0-.2.1-.2.3v.7c0 .9-.2 2.5-.4 4.5-1.04.1-2.08.2-3.12.2a21.55 21.55 0 01-3.639-.4h-.2a.328.328 0 00-.36.4c0 3 .6 3.2.92 3.2a9.728 9.728 0 002.439.2c1.16 0 2.4-.1 3.6-.2-.16 1.5-.32 3.2-.44 4.8-3.72 1.8-8.879 5.3-8.879 11.4 0 2.2 1.08 4 3.48 4 .879 0 2.839-.2 6-2.4.439 2.1.6 2.3.839 2.3a.259.259 0 00.24-.1 19.931 19.931 0 002.76-1.4.5.5 0 00.32-.4s0-.1-.04-.1a14.191 14.191 0 01-1-2.9 38.029 38.029 0 006.679-9c5.639 1.1 5.639 5.4 5.639 5.7 0 3.5-3.359 7.5-12.238 8.5-.32 0-.4.1-.4.2l.16.2a9.736 9.736 0 012 2.2.7.7 0 00.72.4c3.2 0 13.957-3 13.957-11.4 0-3.1-1.839-7.3-8.4-8.8a2.031 2.031 0 00.92-1c0-.6-3.72-2-4.2-2-.2 0-.2.2-.24.4a18.151 18.151 0 01-.52 2.2 17.413 17.413 0 00-4.479.7c.16-1.4.36-2.8.56-4.1a51.361 51.361 0 008.2-2.1.829.829 0 00.56-.8v-.1zm-12.8 13.5c0 1.5.04 2.9.16 4.2-1.72 1.5-3.44 2.5-4.16 2.5a1.056 1.056 0 01-.919-1.3c0-3.4 2.919-5.4 4.919-6.7v1.3zm6.759-3.9a29.167 29.167 0 01-3.64 5.6c-.04-.6-.08-1.4-.08-2 0-.9.04-1.8.08-2.6a15.9 15.9 0 013.642-1zm34 14.3c3.16 0 5.319-4.3 5.319-5.7a1 1 0 00-.36-.7 10.889 10.889 0 01-1.839-2.5.908.908 0 00-.28-.4 1.472 1.472 0 00-.16.4c-1.32 3.6-2.16 4.5-2.92 4.5-.48 0-4.559-1.4-4.559-10.3 0-1.2.08-2.3.16-3.4.12-1.3.84-2 .84-2.5 0-.8-4.119-1-4.4-1-.44 0-.6.3-.6 5.1.004 16.4 8.642 16.5 8.802 16.5zm11.918-18.7a.718.718 0 00-.24.4.48.48 0 00.12.3c1.04 1.1 5 6.2 6.079 10.7a.434.434 0 00.4.4c.52 0 3.879-1.6 3.879-2.1 0-1.7-6.638-11-7.638-11a.657.657 0 00-.4.1zm34.761.7a34.968 34.968 0 003.479 5.9 37.321 37.321 0 00-4.079-.2 30.742 30.742 0 00-7.279.8c-3.519.9-5.279 3.2-5.279 5.6 0 4.4 5 7.8 12.238 7.8 4.559 0 4.959-.7 5.079-1.4.16-.7.64-2 .84-2.8a3.524 3.524 0 00.08-.5c0-.1-.04-.1-.12-.1a.42.42 0 00-.28.1 24.236 24.236 0 01-5.919.8C126.2 28.6 123 27 123 24.9c0-2.7 3.84-3.2 7.079-3.2a24.478 24.478 0 016 .8 6.026 6.026 0 012.12 1 .523.523 0 00.44.2c.4 0 3.279-1 3.279-1.5a.429.429 0 00-.08-.3 64.265 64.265 0 01-6.519-10.1c4.679-1.4 4.839-1.9 4.839-2.2 0-.5-1.519-3.3-1.879-3.3-.08 0-.16.1-.24.1a27.74 27.74 0 01-4.32 1.7 11.187 11.187 0 01-.8-3.6c0-.6.119-1 .119-1.4 0-.3-.08-.6-1.519-.6-.08 0-3.16 0-3.16.5a25.233 25.233 0 001.84 5.9 29.033 29.033 0 01-5.879.6 25.822 25.822 0 01-5.6-.6h-.28c-.2 0-.28 0-.28 1.4 0 2.6.28 2.8.68 2.9a32.977 32.977 0 004.519.3 41.394 41.394 0 008.523-.9zm42.319 14.6c4.84-2.7 6.759-6.2 6.759-9.5 0-1.6-.92-9.8-11.478-9.8a32.879 32.879 0 00-10.478 2c-3.16 1.1-6.759 2.6-8.439 3a.275.275 0 00-.32.2c0 .6 2.8 3.6 3.24 3.6a1.6 1.6 0 00.72-.3c8.238-4.6 13.517-4.8 15.117-4.8 5.759 0 7.239 3.7 7.239 5.9 0 3.9-4.4 8.3-17.157 9.4a.519.519 0 00-.56.2 1.723 1.723 0 00.32.6 7.239 7.239 0 011.72 2 .985.985 0 001 .6c1.482 0 8.041-.7 12.32-3.1z" fill="#573001" fill-rule="evenodd"/></svg>