<svg xmlns="http://www.w3.org/2000/svg" width="120.125" height="18.15" viewBox="0 0 240.25 36.3"><path data-name="50% menu_label_gallery_sm.svg" d="M10.842 14.8a31.039 31.039 0 004.719-1.9.578.578 0 00.32-.6c0-.1-.72-3-1.32-3a.259.259 0 00-.24.1 19.158 19.158 0 01-3.4 1.7c.04-.9.12-1.9.24-2.8s.72-1.5.72-2c0-.8-3.2-1-4.239-1h-.24c-.32 0-.4 0-.4.2a1.743 1.743 0 00.04.4c.24 1.4.44 5.8.44 6.2a31.275 31.275 0 01-4.039.4 20.148 20.148 0 01-2.56-.2h-.2c-.24 0-.28 0-.28.2a12.873 12.873 0 00.84 3.2c.2.4.6.5 1.72.5a20.748 20.748 0 004.6-.6c.04.9.04 1.7.04 2.7 0 .8 0 1.7-.04 2.6C.004 25 .004 28.2.004 28.6c0 3.1 5 5 7.159 5s3.959-1.2 3.959-4.5c0-.1 0-.6-.2-6a17.578 17.578 0 017.319-1.7c2.28 0 5.639.7 5.639 3.2s-3.2 4.9-5.439 4.9a2.822 2.822 0 01-2.919-2.6c-.08-.4-.12-.5-.2-.5a1.451 1.451 0 01-.24.1 20.34 20.34 0 01-2.16 1.7.652.652 0 00-.4.6c0 1 1.2 4.5 5.879 4.5 4.919 0 9.759-4.6 9.759-8.7 0-4.8-5.24-6.7-9.679-6.7a19.47 19.47 0 00-7.639 1.7v-4.8zm18.037 1c.48 0 1.68-3.2 1.68-3.5s-3.639-2.6-9.6-2.9a.323.323 0 00-.4.3 20.772 20.772 0 00-.96 2.8.28.28 0 00.32.3 16.228 16.228 0 018.758 2.9.231.231 0 00.202.1zM7.563 24.6c.04.8.04 1.6.04 2.4 0 2.7-.12 3.2-1.16 3.2-.72 0-2.52-.5-2.52-1.7a2.476 2.476 0 01.64-1.4 24.8 24.8 0 013-2.5zm56.518 10.5c0 .3.2.4 1.439.4 1.92 0 2.6-.1 2.6-.4 0-.1-.04-.2-.04-.3-.24-2.7-.24-4.7-.24-6.7 0-1.4.04-3.4.2-5.4v-.1a.377.377 0 00-.4-.4h-.12c-2.36.1-5.719.2-7.959.2 0-1.4-.04-3.1-.04-4.6 2.72 0 5.239.1 10.039.4a.373.373 0 00.4-.3c.04-.3.04-.9.04-1.5s0-1.2-.04-1.5a.35.35 0 00-.4-.4c-4.96.3-7.239.4-10.039.4v-.4c.08-2.5.16-2 .64-2.8a1.508 1.508 0 00.4-.9c0-.9-4.159-1.3-4.8-1.3-.24 0-.28 0-.28.2v.2a40.4 40.4 0 01.44 5.8v6.7c-2.44 0-5.439-.1-6.679-.1h-.28c-.24 0-.32 0-.32.1s.04.2.04.3c.16 1.9.16 3.9.16 6.3a50.46 50.46 0 01-.32 6.2v.2c0 .5.36.5 2 .5 2.079 0 2.079-.1 2.079-.6s-.039-1-.039-1.5c1.359-.1 4.919-.1 5.919-.1s4.359 0 5.639.1c0 .4 0 .8-.04 1.2v.1zm7.278-29.5a.367.367 0 00-.4-.3h-.08c-5.8.4-9.958.4-12.278.4a10.712 10.712 0 01.28-1.8c.2-.7.84-1.4.84-1.8a.583.583 0 00-.52-.5 24.906 24.906 0 00-4.719-.7c-.12 0-.2 0-.2.1s.04.1.04.2a25.4 25.4 0 01.44 4.5c-3.919-.1-9.438-.2-11.918-.4h-.2c-.2 0-.32 0-.32.2a.777.777 0 00.04.3 43.027 43.027 0 01.68 8.1c0 6.5-1.16 14.7-5.4 19.2a2.992 2.992 0 01-.2.3.275.275 0 00.32.2 12.981 12.981 0 013.4.9 1.045 1.045 0 00.44.2.481.481 0 00.4-.3c3.8-5.7 4.8-13.9 4.8-21.5 0-1.4-.04-2.8-.08-4.1h10.919c2.2 0 7.118 0 13.237.3a.379.379 0 00.44-.4c.04-.5.04-1.4.04-2.2v-.9zm-7.158 25.1H52.523v-1.8c0-1.4.04-3.4.04-3.4l5.879-.1c1.4 0 5.719.1 5.719.1s.04 2.2.04 3.3v1.9zM98.842 33c10.118-1 14.2-6.9 14.2-12.6 0-7.3-6.478-12-14.277-12-8.839 0-15.638 6.2-15.638 13.9 0 5.9 4.16 8.7 6.159 8.7a2.758 2.758 0 002.32-1.4c4.279-6.3 8.479-16.4 8.919-17.3.2-.4.279-.6.639-.6h.12c4.96 1.1 7.679 4.8 7.679 8.5 0 4.6-4.319 9.3-13.518 9.5-.24 0-.44 0-.44.2a.7.7 0 00.28.4 13.087 13.087 0 011.92 2 1.4 1.4 0 001.36.7h.28zm-2.48-21.3c-.68 2-3.919 9.8-7.039 14.2a.811.811 0 01-.52.4c-1 0-2-2.4-2-4.2.001-4.6 4.12-9.4 9.559-10.4zm49.8 20.6c.48-.1.6-.2.6-2.2 0-1.9-.12-2.4-.48-2.4h-.32a47.337 47.337 0 01-10.318 1.6c-4.28 0-7.4-1.3-8.559-4.6a.669.669 0 00-.56-.5 19.26 19.26 0 00-2.8 1.3.42.42 0 00-.24.4.223.223 0 00.04.2c1.719 5.3 6.678 7.3 13.157 7.3a47.132 47.132 0 009.479-1.1zM127.285 8.9c-.68 0-1.16 3.1-1.16 3.5 0 .3.12.5 2.88.5h4.319a41.144 41.144 0 019.358 1 .922.922 0 01.2.1.373.373 0 00.4-.3 24.519 24.519 0 00.36-3.4c0-.4-.04-.5-.56-.6a58.556 58.556 0 00-8.918-.8c-1.92 0-3.4.2-4.639.2a14.128 14.128 0 01-2.12-.2h-.12zm22.116-.1c0-.8-4.079-4.7-4.359-4.7-.08 0-2.04 1-2.04 1.5a.351.351 0 00.08.2 44.563 44.563 0 013.72 4.5.434.434 0 00.36.3c.399 0 2.238-1.3 2.238-1.8zm4.439-2.3c0-.4-3.8-4.7-4.319-4.7-.08 0-2.039 1-2.039 1.5a.351.351 0 00.08.2 37.164 37.164 0 013.719 4.6.325.325 0 00.36.2c.239 0 2.196-1.1 2.196-1.8zm33.362 11.4c3.319 0 4.839-.9 5.879-3.6 1.279-3.2 1.119-9.1 1.4-10.9 0-.1.04-.2.04-.3a.23.23 0 00-.28-.2h-.16a64.079 64.079 0 01-8.158.5c-1.44 0-5.839-.1-9.079-.4h-.12c-.36 0-.44.3-.44 1.6 0 2 .08 2.1.44 2.1 2.12-.2 4.08-.2 5.559-.3a11.716 11.716 0 01-7.518 10.3c-.24-.4-1.72-2.9-2.08-2.9-.32 0-2.36.8-2.36 1.1l1.2 2c-1.08.2-2.4.2-3.759.4 1.76-2.7 4.239-6.7 5.159-8.3a3.077 3.077 0 01.84-1 1.376 1.376 0 00.8-.8c0-.9-3.6-2.1-3.84-2.1s-.2.2-.24.4a35.7 35.7 0 01-2.759 6.2 18.572 18.572 0 00-1.84-1.5c1-1.7 2.44-4.3 3.04-5.6a3.461 3.461 0 01.72-1.1 1.793 1.793 0 00.759-1c0-.9-3.439-1.9-3.919-1.9-.24 0-.2.2-.24.4a26.58 26.58 0 01-2.839 7.6l-1-.5a8.818 8.818 0 00-1.8 2 .213.213 0 00.24.2 32.159 32.159 0 015.239 4.3c-.64 1.1-1.28 2.1-1.8 2.9h-3.439c-.44 0-.44.1-.44.2 0 .5.84 3.7 1.44 3.7.28 0 .64-.4 1.12-.5a34.575 34.575 0 013.959-.6c-.08 5.8 0 8.1-.48 15 0 .4.24.5 2 .5 1.8 0 2.159 0 2.159-.4-.439-6.6-.479-9.1-.519-14.3a.974.974 0 01.279-.8.651.651 0 00.32-.4.361.361 0 00-.04-.2l2.12-.3a13.006 13.006 0 01.6 1.6.466.466 0 00.28.3c.24 0 2.6-1.3 2.6-1.6a10.131 10.131 0 00-1.119-2.4 8 8 0 012.639 1.5.2.2 0 00.2.1c.16 0 .36-.2.48-.2a16.287 16.287 0 007.039-10.3 1.353 1.353 0 01.72-1.1.884.884 0 00.52-.6.589.589 0 00-.48-.3l-.32-.1h4.639c0 1.7-.28 5.2-.92 6.6a1.924 1.924 0 01-2.119 1.4 10.641 10.641 0 01-2.64-.4h-.2c-.08 0-.12 0-.12.1a.869.869 0 00.12.3 8.571 8.571 0 011.64 3.1.619.619 0 00.64.5h.24zm2.2 17c0 .4.28.4 1.64.4 2.2 0 2.28-.2 2.28-.4a2.174 2.174 0 01-.04-.3c-.24-2.6-.28-6.5-.28-7.6 0-1.2 0-3.3.2-5.8v-.1a.346.346 0 00-.36-.4h-.12c-2.6.2-5.159.2-7.119.2-2.04 0-5.519 0-7.2-.1h-.28c-.24 0-.28 0-.28.1s.04.2.04.3c.04.3.12 1.4.12 5.6 0 1.2 0 5.5-.28 8v.2c0 .3.12.5 1.88.5 1.84 0 2.04 0 2.04-.6 0-.4-.04-.8-.04-1.2 1-.1 3.2-.1 4.119-.1.88 0 2.8 0 3.719.1 0 .4-.04.8-.04 1.2zm.12-4.3h-7.958v-3.9c0-1.3.04-2.8.04-2.8s2.759-.1 4.079-.1 3.8.1 3.8.1.04 1.7.04 2.7v4zm-26.275 2.2c.68 0 1.839-5.5 2.159-7.2a2.508 2.508 0 01.4-1.1 3.129 3.129 0 00.52-.8c0-.4-3.359-1-3.639-1-.16 0-.2 0-.2.4a21.213 21.213 0 01-2.68 9.1.422.422 0 00-.08.2c0 .1.16.1.4.1h.76a7.407 7.407 0 012.24.3h.12zm13.677-2.1a.209.209 0 00-.08-.2 32.96 32.96 0 01-3-7.8c-.04-.2-.08-.2-.2-.2 0 0-2.52.4-2.52.8a60 60 0 002.32 8.2.353.353 0 00.32.3.113.113 0 00.12-.1 11.05 11.05 0 012.719-.8.422.422 0 00.319-.2zm43.96-24.9c5 6.8 14.238 12.8 14.918 12.8a.591.591 0 00.48-.3 14.8 14.8 0 013.559-2.6.762.762 0 00.4-.4.567.567 0 00-.4-.2 36.684 36.684 0 01-16.717-11.8 1.406 1.406 0 001.08-.8c0-.8-4.08-2.5-4.32-2.5-.2 0-.2.2-.28.4-.559 2.5-7.278 12.1-17.477 16.6a.7.7 0 00-.4.2.5.5 0 00.44.3 12.324 12.324 0 013.8 2.4.294.294 0 00.28.1c.678 0 8.276-5.6 14.635-14.2zm-13.518 30.5c8.119-2.9 10.359-8.8 10.559-14 .04-1.2.16-5.5.6-6.1a1.845 1.845 0 00.44-1 .493.493 0 00-.36-.5 20.739 20.739 0 00-4.28-.7c-.2 0-.28 0-.28.2v.1a22.763 22.763 0 01.32 4.4c0 1.4-.08 2.8-.08 3.2-.16 4-2.239 9.6-10.878 10.8a.2.2 0 00-.2.2.886.886 0 00.12.2 10.838 10.838 0 013.52 3 .555.555 0 00.4.2h.12zm20.917-1a116.888 116.888 0 01-.8-14.6c0-2 .04-4.2.4-4.6a2.838 2.838 0 00.48-.9c0-.9-4.679-1.2-4.8-1.2-.16 0-.28 0-.28.1a.62.62 0 00.04.2c.32 1.2.44 2.6.44 9 0 2.4-.12 8.2-.44 11.9 0 .5 0 .6 2.439.6s2.52-.2 2.52-.5z" fill="#573001" fill-rule="evenodd"/></svg>