<svg xmlns="http://www.w3.org/2000/svg" width="75.063" height="7.2" viewBox="0 0 150.125 14.4"><path data-name="50% menu_sns_label_sub.svg" d="M.006 7.2A7.192 7.192 0 107.188 0 7.154 7.154 0 00.006 7.2zm2.6 0a4.591 4.591 0 119.182 0 4.591 4.591 0 11-9.182 0zm16.4 6.6a.4.4 0 00.38.4h1.841a.412.412 0 00.38-.4v-5h4.941a.412.412 0 00.38-.4V6.8a.412.412 0 00-.38-.4h-4.942V2.6h5.921a.4.4 0 00.38-.4V.6a.4.4 0 00-.38-.4h-8.142a.4.4 0 00-.38.4v13.2zm13.28 0a.4.4 0 00.38.4h1.84a.412.412 0 00.38-.4v-5h4.941a.412.412 0 00.38-.4V6.8a.412.412 0 00-.38-.4h-4.941V2.6h5.92a.4.4 0 00.38-.4V.6a.4.4 0 00-.38-.4h-8.142a.4.4 0 00-.38.4v13.2zm13.28 0a.412.412 0 00.38.4h1.86a.413.413 0 00.381-.4V.6a.413.413 0 00-.381-.4h-1.86a.412.412 0 00-.38.4v13.2zm7.24-6.6a7.187 7.187 0 007.221 7.2 6.913 6.913 0 004.861-1.9.457.457 0 00.02-.6l-1.24-1.2a.283.283 0 00-.5 0 5.262 5.262 0 01-3.061 1.1 4.513 4.513 0 01-4.481-4.6 4.583 4.583 0 014.461-4.7 4.975 4.975 0 013.081 1.2.283.283 0 00.5 0l1.22-1.3a.309.309 0 00-.02-.5A6.888 6.888 0 0060.027 0a7.187 7.187 0 00-7.221 7.2zm16.7 6.6a.412.412 0 00.38.4h1.86a.412.412 0 00.38-.4V.6a.412.412 0 00-.38-.4h-1.86a.412.412 0 00-.38.4v13.2zm6.779.4h1.74a.6.6 0 00.58-.4l.981-2.1h5.981l.98 2.1a.553.553 0 00.58.4h1.741a.333.333 0 00.34-.5L83.046.2a.355.355 0 00-.34-.2h-.2a.377.377 0 00-.34.2l-6.221 13.5a.333.333 0 00.338.5zm4.281-4.8l1.96-4.4h.06l2 4.4h-4.021zm12.459 4.4a.4.4 0 00.38.4h7.322a.4.4 0 00.38-.4v-1.6a.4.4 0 00-.38-.4h-5.1V.6a.412.412 0 00-.38-.4h-1.841a.4.4 0 00-.38.4v13.2zm17.8-.9a6.954 6.954 0 004.4 1.5c2.82 0 4.6-1.9 4.6-3.9 0-2.6-2.241-3.8-4.181-4.6-1.621-.6-2.361-1.3-2.361-2.2a1.62 1.62 0 011.761-1.4 6.58 6.58 0 012.78 1.1.51.51 0 00.7-.2l.76-1.2a.418.418 0 00-.12-.6 6.956 6.956 0 00-4-1.4c-3.181 0-4.5 2.1-4.5 3.9 0 2.3 1.88 3.5 3.76 4.3 1.681.7 2.541 1.4 2.541 2.4a1.681 1.681 0 01-1.82 1.5 7.512 7.512 0 01-3.021-1.2.409.409 0 00-.68.1l-.72 1.3a.4.4 0 00.099.6zm13.56.9a.412.412 0 00.38.4h1.82a.4.4 0 00.38-.4V5.2h.02l8.362 9.2h.48a.33.33 0 00.38-.3V.6a.412.412 0 00-.38-.4h-1.84a.4.4 0 00-.38.4v8.3h-.02L125.265 0h-.5a.412.412 0 00-.38.4v13.4zm16.739-.9a6.96 6.96 0 004.4 1.5c2.821 0 4.6-1.9 4.6-3.9 0-2.6-2.24-3.8-4.181-4.6-1.62-.6-2.36-1.3-2.36-2.2a1.62 1.62 0 011.76-1.4 6.579 6.579 0 012.781 1.1.51.51 0 00.7-.2l.76-1.2a.419.419 0 00-.12-.6 6.957 6.957 0 00-4-1.4c-3.18 0-4.5 2.1-4.5 3.9 0 2.3 1.881 3.5 3.761 4.3 1.681.7 2.541 1.4 2.541 2.4a1.681 1.681 0 01-1.821 1.5 7.512 7.512 0 01-3.02-1.2.409.409 0 00-.68.1l-.721 1.3a.4.4 0 00.098.6z" fill="#f2a64b" fill-rule="evenodd"/></svg>