<svg xmlns="http://www.w3.org/2000/svg" width="99.25" height="17.5" viewBox="0 0 198.5 35"><path data-name="50% menu_label_toppage_sm.svg" d="M4.747 34.2c-.4-7-.4-15-.4-15a7.635 7.635 0 01-.04-.9c.04 0 .12.1.16.1a49.415 49.415 0 0110.038 4.2.151.151 0 00.16.1c.52 0 1.6-3.6 1.6-3.8a.379.379 0 00-.16-.3 55.618 55.618 0 00-10.358-3.5.449.449 0 00-.44.3 12.079 12.079 0 00-1 2.2c0-2.3 0-6.6.28-9.6.08-1.1 1.2-2 1.2-2.5 0-.3-.4-.5-5.359-1h-.08c-.28 0-.36.1-.36.3V5c.56 4.9.56 14.2.56 14.2s-.04 8.2-.44 15.1a.464.464 0 00.36.5h1.92c2.12 0 2.36 0 2.36-.5v-.1zm26.761-12.5c0-.4-2.24-5.7-3-5.7-.2 0-2.6.6-2.6 1.2a.429.429 0 00.08.3 23.9 23.9 0 012.159 5.5.36.36 0 00.36.3c.561 0 3.001-.9 3.001-1.6zm2.4 0a.406.406 0 00.4.4c.12 0 3.2-.7 3.2-1.4a24.7 24.7 0 00-2.36-5.7.5.5 0 00-.48-.3c-.4 0-2.6.4-2.6 1a.429.429 0 00.08.3 27.99 27.99 0 011.76 5.7zM31.668 35c.12 0 7.839-3.2 13.278-15.8a3.643 3.643 0 011.159-1.3 1.545 1.545 0 00.6-.7c0-.8-3.8-2.3-4.279-2.3-.16 0-.28.1-.36.5-.28 1.1-.52 2.2-.88 3.2-2.2 5.8-5.919 10.9-12.638 13.8a.737.737 0 00-.6.4 1.085 1.085 0 00.639.4 10.233 10.233 0 012.52 1.4.672.672 0 00.561.4zm24.761-22.3c1.92-.2 11.758-.8 17.837-.8.24 0 .32.1.32.2 0 .3-4.719 14.1-18.4 18.2a.479.479 0 00-.4.3.763.763 0 00.4.4 16.433 16.433 0 013.4 2.2.735.735 0 00.6.2.718.718 0 00.48-.1c8.638-4 14.717-11.2 18.677-21.1.439-1 1.519-1.5 1.519-2.1s-3-2.5-3.4-2.5a1.578 1.578 0 00-.52.2c-.96.6-6.279.7-9.358.7-3.8 0-7.559-.1-11.359-.4h-.12c-.359 0-.4.3-.4 1.2 0 3.1.12 3.4.6 3.4h.12zm31.2-8.1A4.5 4.5 0 1083.15 9a4.43 4.43 0 004.474-4.4zm-2.4 0a2.1 2.1 0 01-4.2 0 2.1 2.1 0 114.196 0zm33.76 25.8c.56 0 2.76-3 2.76-3.4a.784.784 0 00-.52-.5c-7.119-3.6-16.118-10.2-18.437-11.8a7.316 7.316 0 00-3.96-1.4 4.525 4.525 0 00-3.239 1.3c-2.96 2.6-3.439 3.6-7.519 6.6a.2.2 0 00-.2.2c0 .4 3.2 2.9 3.96 2.9s.8-1.1 1.479-1.9c4.44-4.9 4.84-5.2 5.719-5.2a3.4 3.4 0 011.8.7c1.52 1 11.278 8.5 17.677 12.4a.976.976 0 00.476.1zm-7.839-15a4.7 4.7 0 000-9.4 4.7 4.7 0 00-.004 9.4zm0-2.5a2.2 2.2 0 010-4.4 2.2 2.2 0 01-.004 4.4zm45.6 3.9a141.234 141.234 0 01-15.638.5c-2.2 0-5.8 0-11.358-.5h-.2c-.2 0-.28.2-.28 2.2 0 .8.04 1.5.04 2a.325.325 0 00.36.4h.08c3.4-.2 6.719-.4 14.918-.4 2.319 0 6.279 0 12.078.4a.3.3 0 00.36-.3c.04-.3.04-.9.04-1.5 0-.9 0-1.8-.04-2.4 0-.2-.04-.4-.28-.4h-.08zm37.6-7c0-.6-4.4-4.2-4.839-4.2a4.132 4.132 0 00-1.92 1.7c0 .1 0 .1.12.2a49.8 49.8 0 014.239 4.1.348.348 0 00.36.2c.396 0 2.036-1.4 2.036-2zm4.159-2.8c0-.6-4.359-4.2-4.839-4.2-.2 0-1.92 1.2-1.92 1.7 0 .1 0 .1.12.2a49.948 49.948 0 014.24 4.1.348.348 0 00.36.2 4.14 4.14 0 002.035-2zm-23.916 14.9c.4 0 2.28-2.9 2.28-3.3 0-.7-6.439-4.2-7.239-4.2a7.508 7.508 0 00-2.12 2.7.4.4 0 00.24.3 32.583 32.583 0 016.639 4.4c.076 0 .116.1.196.1zm22.476-3.6a.731.731 0 00.32-.6.772.772 0 00-.12-.4 9.428 9.428 0 01-1.119-3.2c-.04-.3-.08-.5-.2-.5a1.064 1.064 0 00-.32.2c-5.479 5.9-17.077 14.6-25.8 16.3-.32.1-.48.2-.48.4 0 .6 2.92 3.7 3.8 3.7.48 0 .88-.6 2.2-1.2a84.307 84.307 0 0021.712-14.7zm-17.077-3.6c.28 0 2.36-2.6 2.36-3.3 0-.5-6.279-4.4-7-4.4a6.964 6.964 0 00-2.2 2.6.4.4 0 00.24.3 32.715 32.715 0 016.4 4.7.2.2 0 00.196.1z" fill="#573001" fill-rule="evenodd"/></svg>