<svg xmlns="http://www.w3.org/2000/svg" width="47.859" height="10.7" viewBox="0 0 95.718 21.4"><path id="_50_menu_label_allday_sm.svg" data-name="50% menu_label_allday_sm.svg" d="M341.868 11710.2l.168-.3a2.157 2.157 0 01.648-.7.3.3 0 00.336-.3c0-.4-2.352-1.1-2.376-1.1-.048 0-.072 0-.1.1-.264 1.1-2.281 5.5-5.329 7.5a.125.125 0 00-.1.1c0 .1.048.1.12.1a4.929 4.929 0 011.56.9.191.191 0 00.336 0 16.664 16.664 0 002.256-2.5 12.944 12.944 0 001.417 2.2 12.589 12.589 0 01-5.569 4.1.334.334 0 00-.168.1.341.341 0 00.072.2c-1.056.2-1.224.2-1.224.4 0 0 .936 4.9 1.44 4.9.024 0 .048 0 .072-.1a14.082 14.082 0 011.608-.5.191.191 0 00.168-.1.155.155 0 00-.024-.1 19.386 19.386 0 01-1.632-4.3 3.514 3.514 0 011.464.8.147.147 0 00.168.1h.144a16.956 16.956 0 004.777-4 13.839 13.839 0 005.3 3.5.189.189 0 00.192-.1 7.552 7.552 0 011.824-1.5 2.087 2.087 0 00.168-.2.257.257 0 00-.192-.1 12.485 12.485 0 01-6.024-3.1 22.648 22.648 0 002.376-3.9 2.2 2.2 0 01.672-.9.352.352 0 00.312-.3 3.752 3.752 0 00-1.464-1.2 3.007 3.007 0 01-.648.2s-1.824.1-2.592.1h-.168zm-7.105 8.5a3.3 3.3 0 01.24.7.162.162 0 00.192.1 4.824 4.824 0 001.488-.9 11.669 11.669 0 00-1.92-3.3 4.309 4.309 0 00-1.416.6c0 .1.6 1.1.7 1.3l-2.16.2c1.128-1.6 2.736-3.9 3.336-4.8a1.137 1.137 0 01.5-.6.831.831 0 00.5-.5c0-.4-1.9-1.4-2.232-1.4-.1 0-.072.1-.12.3a21.344 21.344 0 01-1.872 3.7 11.587 11.587 0 00-1.128-.9c.6-1 1.536-2.6 1.9-3.4a1.2 1.2 0 01.432-.6 1.224 1.224 0 00.456-.6c0-.5-2.04-1.2-2.3-1.2-.144 0-.1.1-.12.2a16.534 16.534 0 01-1.848 4.6l-.6-.3a7.893 7.893 0 00-1.057 1.2.352.352 0 00.144.2 16.317 16.317 0 013.073 2.5 14.866 14.866 0 01-1.224 1.7h-1.969c-.264 0-.264.1-.264.1 0 .3.48 2.3.84 2.3a3.667 3.667 0 01.673-.3c.192-.1 1.272-.2 2.472-.4-.024 3.5 0 4.9-.288 9 0 .3.072.3 1.2.3 1.176 0 1.272 0 1.272-.2-.264-4-.288-5.5-.312-8.7a1.022 1.022 0 01.168-.4.363.363 0 00.192-.3.134.134 0 00-.072-.1zm11.281 8.3a1.135 1.135 0 00.072-.2c0-.6-6.265-3.5-6.793-3.5a.306.306 0 00-.192.2l-.888 1.3h-.024a.578.578 0 00.144.3 27.16 27.16 0 016.313 3.6c.048 0 .1.1.144.1a.283.283 0 00.168-.2zm-16.753-.3a.234.234 0 00.192-.2 23.887 23.887 0 001.08-4.1 2.025 2.025 0 01.24-.7 1.616 1.616 0 00.312-.5c0-.3-2.16-.6-2.184-.6-.072 0-.12.1-.12.3a13.357 13.357 0 01-1.585 5.5c-.024 0-.024 0-.024.1s.072.1.672.1a5.482 5.482 0 011.345.1h.072zm15.625-4.9c0-.6-3.7-1.7-3.96-1.7a4.512 4.512 0 00-.793 1.6.229.229 0 00.217.1 22.85 22.85 0 013.408 1.7 1.866 1.866 0 01.216.1c.336 0 .912-1.8.912-1.8zm-2.976-10h1.7a14.382 14.382 0 01-1.608 2.8 10.383 10.383 0 01-1.392-2.4 3.825 3.825 0 00.264-.4h1.032zm26.774 15.9c-.312-4.6-.312-7.7-.312-9.3 0-1.7.024-3.9.192-8.4 0-.2-.048-.3-.192-.3h-.072c-1.632.1-3.1.2-6.144.2-2.256 0-4.225-.1-6.313-.2-.24 0-.24 0-.24.1v.1c.216 3.6.24 5.5.24 9.9 0 1.7-.048 4.6-.384 8 0 .4.264.4 1.344.4 1.128 0 1.392 0 1.392-.4-.024-.4-.024-.8-.024-1.2h7.849l-.048 1.1c0 .3.1.4 1.128.4h1.3c.144 0 .288-.1.288-.4zm-2.544-8.8c0 3.9 0 4.1-.048 5.6-.72 0-2.28.1-3.936.1-1.512 0-3.145-.1-4.057-.1 0-.3-.024-1.1-.024-5.6.912 0 2.569-.1 4.1-.1 1.709 0 3.269.1 3.965.1zm0-2h-8.065c0-3 .048-5 .048-5s1.9-.1 4.033-.1 3.936.1 3.936.1.048 2 .048 5zm22.078 8.3a5.308 5.308 0 01-1.9-3.2l.1-.4a.65.65 0 01.312-.4.7.7 0 00.48-.5c0-.3-2.328-.9-2.5-.9a.191.191 0 00-.168.2c0 .9-.936 5.7-4.152 7.7-.048 0-.1 0-.1.1a.179.179 0 00.144.1 7.439 7.439 0 011.92.7 1.543 1.543 0 01.264.1c.168 0 1.68-1.3 2.9-4.3 1.512 3.5 4.945 4 7.465 4 1.368 0 3.1-.1 3.192-.5a7.419 7.419 0 011.032-2 .255.255 0 00.072-.2h-.24a13.483 13.483 0 01-4.272.6 9.272 9.272 0 01-2.424-.2l-.072-3.3c.816 0 3.384.1 4.2.2.24 0 .288 0 .288-.9 0-.4 0-.8-.024-1a.291.291 0 00-.264-.2c-1.1.1-3.456.2-4.2.2 0-2 .024-2.1.168-2.2a.436.436 0 00.312-.2c1.344 0 2.832.1 5.064.2.192 0 .264 0 .264-1.1 0-.8-.048-1-.264-1-2.856.2-4.56.2-6.528.2-1.681 0-3.169 0-5.9-.2-.192 0-.288 0-.288 1 0 .9.024 1.1.288 1.1a43.736 43.736 0 014.728-.2 21.544 21.544 0 01.1 2.5v4zm-7.489.2c-.048-1.9-.1-4.4-.1-6.2 1.848-.9 2.064-1 2.064-1.2v-.1a10.462 10.462 0 01-.048-1.5c0-.2 0-.3-.048-.3a.746.746 0 01-.144.1c-.384.2-1.056.5-1.824.8v-2.5l2.28.1c.216 0 .264 0 .264-.9 0-.4 0-.9-.024-1.1a.261.261 0 00-.24-.2c-.888.1-1.536.1-2.256.2a21.517 21.517 0 01.216-3.3 9.8 9.8 0 00.36-1.1c0-.5-2.76-.7-2.76-.7a.191.191 0 00-.168.2v.1a37.881 37.881 0 01.264 4.8c-.888-.1-1.752-.1-2.641-.2a.261.261 0 00-.24.2c-.024.2-.024.7-.024 1.1 0 .9.048.9.264.9a23.734 23.734 0 002.665-.1v3.2a17.7 17.7 0 01-3.337 1c-.144 0-.264 0-.264.1s1.08 2.2 1.464 2.2a3.608 3.608 0 00.745-.4c.312-.1.816-.4 1.392-.6 0 1.6-.024 3.5-.072 4.9-.024.7-.072 1-.936 1a7.051 7.051 0 01-1.321-.1h-.02c-.072 0-.1 0-.1.1a.134.134 0 00.072.1 6.73 6.73 0 011.105 2.1.383.383 0 00.36.2h.072c2.736-.2 2.976-1.5 2.976-2.7v-.2zm12.985-9.5c-.1-1.6-.144-3.4-.144-3.8 0-.6.024-2.7.12-3.7 0-.2-.048-.2-.216-.2h-.072c-1.512 0-2.9.1-4.128.1-1.273 0-3.337 0-4.321-.1h-.192c-.12 0-.144 0-.144.1l.024.1c.072.9.1 3.1.1 3.8 0 .5-.048 2-.192 3.8v.1c0 .2.1.2.384.3h.672c1.032 0 1.08-.1 1.08-.4v-.4h4.921l-.024.4c0 .3.144.3.912.3 1.2 0 1.224-.2 1.224-.3v-.1zm-2.04-3.2c0 .3 0 .8-.024 1.3h-4.993c0-.5-.024-1-.024-1.3.6 0 2.017-.1 2.593-.1s1.896.1 2.444.1zm.024-1.6h-5.065c0-.6.024-1.2.024-1.2h5.013s.028.6.028 1.2zm30.523 9.1c-1.56.1-2.832.2-3.936.2-.024-1.1-.024-3.1-.024-4.8.768 0 1.7.1 2.976.1.264 0 .288-.2.288-.9 0-1.2-.1-1.3-.264-1.3h-.048c-1.248.1-2.184.2-2.952.2 0-2.7 0-3.2.36-3.9a2.47 2.47 0 00.36-.7c0-.4-2.112-.8-3-.8-.144 0-.192 0-.192.1v.1a46.414 46.414 0 01.288 5.2H413.3c0-2.7 0-3.2.384-3.9a2.47 2.47 0 00.36-.7c0-.5-2.185-.8-2.977-.8-.144 0-.192 0-.192.1v.1a41.457 41.457 0 01.264 5.2c-.6 0-1.344-.1-2.328-.2h-.12c-.216 0-.24.2-.24 1.1 0 1.1.1 1.1.288 1.1h.072c1.032 0 1.776-.1 2.352-.1 0 1.8 0 3.7-.024 4.8-.864 0-1.9-.1-3.264-.2h-.168c-.1 0-.192 0-.192 1.1 0 1 .024 1.1.36 1.1 3.576-.2 4.489-.2 6.745-.2 1.992 0 4.272 0 7.656.2.264 0 .288-.1.288-1 0-1.2-.072-1.2-.24-1.2h-.072zm-18.337 7.9c0 .1.216.2 1.272.2h1.08a.215.215 0 00.216-.2c-.024-.3-.048-.6-.048-.9a4.672 4.672 0 011.8 1.1 2.433 2.433 0 00.24.1c.72 0 3.312-2.1 4.753-3.5a.975.975 0 01.624-.4.64.64 0 00.456-.4c0-.4-1.944-1.2-2.136-1.2a.207.207 0 00-.193.1 13.017 13.017 0 01-5.544 3.8c-.024-.6-.024-1.3-.024-2 0-3 .12-6.5.192-9.3a1.5 1.5 0 01.336-1.1.561.561 0 00.216-.4.4.4 0 00-.216-.3l-.336-.1a35.024 35.024 0 001.824-3.6.836.836 0 01.528-.4.591.591 0 00.456-.4c0-.4-2.16-1.3-2.592-1.3-.144 0-.168 0-.168.1-.144 1.5-2.472 6.8-6.1 10a.125.125 0 00-.1.1c0 .1.072.1.217.1a6.537 6.537 0 011.944.6h.144c.1 0 .216-.1.288-.1l1.44-1.8c-.1 3.6-.24 8.2-.576 11.1v.1zm18.985-1.2a.372.372 0 00-.192-.2 15.82 15.82 0 01-5.3-3.7.322.322 0 00-.288-.1h-.168c-.24.1-1.272.5-1.416.6a.179.179 0 00-.144.1c0 .6 3.96 4.5 4.728 4.5h.168a8.75 8.75 0 012.376-1.1.3.3 0 00.237-.1zm-6.792-6.5h-2.76c-.024-1.1-.048-3.1-.048-4.9h2.808v4.9z" transform="translate(-327.188 -11707.4)" fill="#603700" fill-rule="evenodd"/></svg>