<svg xmlns="http://www.w3.org/2000/svg" width="73.031" height="7.2" viewBox="0 0 146.062 14.4"><path data-name="50% menu_label_sub_menu_sm.svg" d="M.006 7.2a7.188 7.188 0 007.222 7.2 6.913 6.913 0 004.861-1.9.457.457 0 00.02-.6l-1.24-1.2a.283.283 0 00-.5 0 5.26 5.26 0 01-3.061 1.1 4.512 4.512 0 01-4.481-4.6 4.582 4.582 0 014.461-4.7 4.974 4.974 0 013.081 1.2.283.283 0 00.5 0l1.22-1.3a.309.309 0 00-.02-.5A6.888 6.888 0 007.228 0 7.188 7.188 0 00.006 7.2zm15.22 7h1.74a.6.6 0 00.58-.4l.98-2.1h5.982l.98 2.1a.553.553 0 00.58.4h1.74a.333.333 0 00.34-.5L21.987.2a.355.355 0 00-.34-.2h-.197a.377.377 0 00-.34.2l-6.221 13.5a.333.333 0 00.337.5zm4.281-4.8l1.96-4.4h.06l2 4.4h-4.02zm12.459 4.4a.4.4 0 00.38.4h1.84a.412.412 0 00.38-.4v-5h4.941a.413.413 0 00.381-.4V6.8a.413.413 0 00-.381-.4h-4.941V2.6h5.922a.4.4 0 00.38-.4V.6a.4.4 0 00-.38-.4H32.35a.4.4 0 00-.38.4v13.2zm13.08-4.9a5.571 5.571 0 0011.142 0V.6a.412.412 0 00-.38-.4h-1.9a.4.4 0 00-.381.4v8.2a2.912 2.912 0 11-5.821 0V.6a.4.4 0 00-.38-.4h-1.9a.412.412 0 00-.38.4v8.3zm16.38 0a5.571 5.571 0 0011.142 0V.6a.412.412 0 00-.38-.4h-1.9a.4.4 0 00-.38.4v8.2a2.912 2.912 0 11-5.821 0V.6a.4.4 0 00-.38-.4h-1.9a.412.412 0 00-.38.4v8.3zm22.079 4.9a.351.351 0 00.38.4h1.8a.334.334 0 00.36-.3l1.16-7.6h.06l3.541 7.9a.377.377 0 00.34.2h.36a.355.355 0 00.34-.2l3.5-7.9h.06l1.18 7.6a.366.366 0 00.38.3h1.82a.328.328 0 00.36-.4L96.786.3a.39.39 0 00-.36-.3h-.32a.377.377 0 00-.34.2l-4.4 9.5h-.06l-4.4-9.5a.4.4 0 00-.34-.2h-.316a.39.39 0 00-.36.3zm20.38 0a.4.4 0 00.38.4h8.142a.4.4 0 00.38-.4v-1.6a.4.4 0 00-.38-.4h-5.921V8.3h4.941a.352.352 0 00.38-.4V6.3a.412.412 0 00-.38-.4h-4.941V2.6h5.921a.4.4 0 00.38-.4V.6a.4.4 0 00-.38-.4h-8.142a.4.4 0 00-.38.4v13.2zm13.76 0a.412.412 0 00.38.4h1.82a.4.4 0 00.381-.4V5.2h.024l8.361 9.2h.48a.331.331 0 00.381-.3V.6a.412.412 0 00-.381-.4h-1.841a.4.4 0 00-.38.4v8.3h-.02L118.528 0h-.5a.412.412 0 00-.38.4v13.4zm17.26-4.9a5.571 5.571 0 0011.142 0V.6a.412.412 0 00-.38-.4h-1.9a.4.4 0 00-.38.4v8.2a2.912 2.912 0 11-5.822 0V.6a.4.4 0 00-.38-.4h-1.9a.412.412 0 00-.38.4v8.3z" fill="#f2a64b" fill-rule="evenodd"/></svg>