<svg xmlns="http://www.w3.org/2000/svg" width="31.266" height="8.935" viewBox="0 0 62.532 17.87"><path id="_50_menu_label_lunch_sm.svg" data-name="50% menu_label_lunch_sm.svg" d="M344.216 4517.98c2.184-.24 7.945-.46 10.945-.46.144 0 .192.02.192.12 0 .53-2.76 7.06-10.657 8.76-.168.05-.264.07-.264.15a.378.378 0 00.24.24 10.457 10.457 0 011.968 1.39.28.28 0 00.24.12 1.1 1.1 0 00.288-.1c4.752-1.32 9.217-5.86 11.041-10.54.216-.6.84-.86.84-1.2 0-.43-1.944-1.36-2.016-1.36a.674.674 0 00-.288.12c-.528.31-4.1.38-5.881.38-2.256 0-4.464-.02-6.72-.24-.336 0-.336.02-.336 1.51 0 .82.024 1.11.36 1.11h.048zm2.04-7.06c-.168 0-.192.07-.192 2.18a.225.225 0 00.264.2 53.4 53.4 0 014.776-.22 44.926 44.926 0 014.849.22.212.212 0 00.192-.17c.024-.22.048-.63.048-1.03 0-1.08-.048-1.18-.24-1.18-1.632.14-2.928.22-5.449.22-.984 0-1.968-.03-4.176-.22h-.072zm24.677 7.1a6.045 6.045 0 001.44-2.23c0-.45-4.752-2.95-5.232-2.95a4.694 4.694 0 00-1.344 1.8.241.241 0 00.168.17 25.535 25.535 0 014.824 3.14.2.2 0 00.144.07zm11.067.99a.468.468 0 00.192-.36.4.4 0 00-.072-.22 6.808 6.808 0 01-.648-2.09c-.024-.19-.048-.28-.1-.28a.366.366 0 00-.216.14 37.432 37.432 0 01-12.529 8.28 14.715 14.715 0 01-2.808.77.26.26 0 00-.288.19c0 .36 1.8 2.38 2.4 2.38a7.6 7.6 0 001.272-.7 51.723 51.723 0 0012.797-8.11zm14.183-1.78c-2.28 0-4.368-.07-7.153-.31h-.12c-.144 0-.24 0-.24 1.3 0 1.15 0 1.29.336 1.29 2.737-.17 5.377-.29 7.993-.31-.36 2.69-1.9 6.03-7.1 8.02a.266.266 0 00-.216.14.331.331 0 00.24.15 8.143 8.143 0 012.3.98.479.479 0 00.288.1 1.034 1.034 0 00.384-.12c4.944-2.91 6.12-6.65 6.384-9.27 2.233 0 4.513.07 6.841.19.168 0 .216-.02.216-.89 0-1.51-.072-1.58-.264-1.58-2.352.14-4.536.22-6.721.26 0-.62-.024-.84-.024-1.2a2.587 2.587 0 01.24-1.27 1.694 1.694 0 00.408-.62c0-.17-.144-.27-.936-.43a26.415 26.415 0 002.785-.56 2.538 2.538 0 01.672-.12 3.128 3.128 0 01.552.08 1.286 1.286 0 00.264.02c.216 0 .312-.07.312-.22 0-.24-.984-2.13-1.3-2.13a.167.167 0 00-.1.02c-1.417.65-6.049 1.47-10.633 1.47h-.912c-.12 0-.168.02-.168.09a.383.383 0 00.072.17 7.106 7.106 0 01.864 1.7.307.307 0 00.24.24c.072 0 2.784-.24 5.256-.5a26.4 26.4 0 01.144 3.31h-.912z" transform="translate(-343.812 -4510.72)" fill="#603700" fill-rule="evenodd"/></svg>