<svg xmlns="http://www.w3.org/2000/svg" width="46.75" height="10.688" viewBox="0 0 93.5 21.375"><path id="_50_menu_label_dinner_sm.svg" data-name="50% menu_label_dinner_sm.svg" d="M332.7 982.185c0 .192.264.24 1.32.24 1.176 0 1.3-.1 1.3-.216-.024-.336-.048-.648-.048-.984a9.893 9.893 0 011.824 1.248.306.306 0 00.24.1 14.566 14.566 0 005.04-3.577 14.6 14.6 0 006.337 3.6.285.285 0 00.216-.121 8.56 8.56 0 012.088-1.7.312.312 0 00.12-.168.156.156 0 00-.144-.12 14.56 14.56 0 01-7.249-3 24.042 24.042 0 003.625-6.144 3.259 3.259 0 01.7-1.129.736.736 0 00.336-.48c0-.456-1.632-1.2-1.68-1.2a2.163 2.163 0 01-.72.288s-2.017.048-2.977.048h-.348l.12-.192a1.189 1.189 0 01.528-.5.589.589 0 00.336-.408c0-.408-2.184-1.032-2.424-1.032a.134.134 0 00-.144.12 18 18 0 01-5.832 8.5l.072-3.1a.8.8 0 01.36-.72.716.716 0 00.288-.432.318.318 0 00-.264-.289 2.927 2.927 0 00-.408-.12c.648-.744 1.176-1.368 1.464-1.752a1.229 1.229 0 01.552-.5.93.93 0 00.528-.456c0-.384-2.112-1.272-2.3-1.272-.072 0-.1.048-.12.144a17.078 17.078 0 01-6.673 6.625.205.205 0 00-.144.144.324.324 0 00.216.144 5.556 5.556 0 011.824.96.293.293 0 00.216.1 10.308 10.308 0 002.353-1.92c-.1 3.168-.144 5.976-.528 9.264v.024zm5.9-17.617c-2.04 0-4.128-.024-8.281-.24h-.1c-.192 0-.288.048-.288 1.176 0 1.1 0 1.2.384 1.2 3.409-.192 5.161-.24 9.529-.24 2.784 0 4.945 0 9.7.24a.255.255 0 00.288-.168c.024-.192.024-.528.024-.864 0-1.176-.024-1.344-.312-1.344-4.272.216-6.217.24-8.641.24a5.857 5.857 0 01.168-1.344 8.74 8.74 0 00.5-1.2.327.327 0 00-.312-.312 16.869 16.869 0 00-2.832-.5c-.1 0-.12.024-.12.1a.422.422 0 00.024.144 11.985 11.985 0 01.264 2.688v.432zm2.352 12.865a13.169 13.169 0 01-5.688 3.336c-.024-.72-.024-1.416-.024-2.136 0-.984 0-1.968.024-2.928a6.059 6.059 0 011.68.816.218.218 0 00.168.072c.432 0 1.752-1.68 2.088-2.112a14.043 14.043 0 001.752 2.952zm4.441-7.033a14.578 14.578 0 01-.816 2.065 11.628 11.628 0 00-2.617-.864 4.693 4.693 0 00-.84 1.44.255.255 0 00.216.192c.312.1 1.272.48 2.28.936a23.126 23.126 0 01-1.368 1.872 10.435 10.435 0 01-1.872-3.168 39.38 39.38 0 001.488-2.449c.36 0 .768-.024 1.056-.024h2.473zm24.093 10.033c.288-.072.36-.144.36-1.32s-.072-1.488-.288-1.488a.528.528 0 00-.192.024 27.542 27.542 0 01-6.192.936c-2.568 0-4.441-.744-5.137-2.712a.4.4 0 00-.336-.336 11.705 11.705 0 00-1.68.792.276.276 0 00-.144.264.261.261 0 00.024.12c1.032 3.168 4.008 4.368 7.9 4.368a29.116 29.116 0 005.685-.648zm-11.329-14.065c-.408 0-.7 1.872-.7 2.088 0 .168.072.336 1.728.336.768 0 1.585-.048 2.593-.048a24.6 24.6 0 015.616.648 1.039 1.039 0 01.12.024.234.234 0 00.24-.192 14.039 14.039 0 00.216-1.992c0-.288-.024-.336-.336-.384a34.53 34.53 0 00-5.352-.456c-1.152 0-2.041.072-2.785.072a7.2 7.2 0 01-1.272-.1h-.072zm13.273-.048c0-.48-2.448-2.832-2.616-2.832a2.754 2.754 0 00-1.224.888.155.155 0 00.048.12 24.887 24.887 0 012.232 2.736.244.244 0 00.216.168 2.592 2.592 0 001.344-1.08zm2.665-1.368a12.111 12.111 0 00-2.593-2.832 2.754 2.754 0 00-1.224.888.155.155 0 00.048.12 24.89 24.89 0 012.233 2.736.244.244 0 00.216.168 2.561 2.561 0 001.325-1.08zm16.83 10.8a10.306 10.306 0 00-1.9-.168c-2.856 0-4.344 1.224-4.344 2.664 0 1.344 1.56 3.384 4.392 3.384a3.844 3.844 0 004.1-3.048 21.01 21.01 0 013.073 1.944.319.319 0 00.168.072c.336 0 1.344-1.8 1.344-1.968 0-.264-2.16-1.488-4.657-2.328-.072-.96-.24-3.336-.24-5.641v-.72c.816-.048 1.657-.1 2.473-.1h.528c.312 0 .36-.048.36-.6 0-1.56-.072-1.7-.408-1.7-.216 0-2.569.264-2.881.288.048-.84.072-1.656.144-2.472.024-.336.408-.7.408-.96 0-.528-1.944-.552-2.184-.552-.528 0-.72.024-.72.24v.072a12.857 12.857 0 01.144 1.68l.048 2.256-3.072.384a21.648 21.648 0 01-2.808.216c-.216 0-.312.024-.312.168a14.739 14.739 0 00.5 1.68.45.45 0 00.432.288h.087c.84-.072 2.832-.432 5.208-.7.024 1.873.048 3.673.12 5.257v.36zm-9.409.144a1.054 1.054 0 01-.24.456c-.024 0-.264-.288-.264-1.824a28.139 28.139 0 011.513-8.3c.168-.5.744-.792.744-1.056 0-.432-2.569-1.224-2.857-1.224-.072 0-.1.072-.1.264a21.226 21.226 0 01-.384 2.64 42.029 42.029 0 00-.984 7.9c0 4.464 1.608 6.96 1.9 6.96.024 0 1.8-.24 1.8-.672a.3.3 0 00-.024-.144 3.234 3.234 0 01-.289-1.368 12.581 12.581 0 01.937-4.056.763.763 0 00.072-.216.174.174 0 00-.1-.144 2.555 2.555 0 01-.841-1.008.938.938 0 00-.12-.1.131.131 0 00-.1.12zm9.553 1.848a1.936 1.936 0 01-2.184 1.8c-1.128 0-1.944-.6-1.944-1.176 0-.384.312-.936 2.112-.936a7.346 7.346 0 012.016.313zm17.968-5.256c1.033-2.089 2.4-4.393 3.529-6.217.288-.456 1.128-.672 1.128-1.008 0-.552-2.688-1.152-2.832-1.152-.1 0-.1.072-.216.312-2.545 5.448-5.929 11.4-7.9 16.321a.181.181 0 00-.024.1c0 .432 1.944.648 2.424.648a.268.268 0 00.312-.192 37.121 37.121 0 011.68-4.752 3.681 3.681 0 013.1-2.376 1.142 1.142 0 011.176 1.44c0 .864-.072 1.8-.072 2.64 0 3.144 2.328 3.48 3.36 3.48 2.28 0 6.024-1.8 7.393-7.248a.664.664 0 00.024-.216.462.462 0 00-.192-.384 4.962 4.962 0 01-1.225-1.248.764.764 0 00-.264-.288.39.39 0 00-.192.36c-1.176 4.824-3.744 6.648-5.232 6.648-1.032 0-1.32-.72-1.32-1.992 0-.6.024-1.248.024-1.872 0-1.008-.024-3.36-2.856-3.36a5.135 5.135 0 00-1.825.357z" transform="translate(-328.625 -961.219)" fill="#603700" fill-rule="evenodd"/></svg>