<svg xmlns="http://www.w3.org/2000/svg" width="178.141" height="18.1" viewBox="0 0 356.281 36.2"><path data-name="50% menu_label_how_to_cook_sm.svg" d="M26.251 27.8c-.04-.3-.24-2.9-.24-5.9a22.705 22.705 0 01.12-2.7 33.13 33.13 0 007.918 4.3.518.518 0 00.48-.2 18.6 18.6 0 013.24-1.9.394.394 0 00.32-.4.484.484 0 00-.28-.3 27.311 27.311 0 01-11.718-5.1c2.439 0 5.279.2 8.838.3a.3.3 0 00.36-.3 8.934 8.934 0 00.08-1.2c0-1.5-.2-1.6-.44-1.6-6.839.4-10.558.4-14.4.4-.04-.6-.08-1.3-.08-2 2.32 0 3.679.1 9.118.4a.252.252 0 00.28-.3 8.571 8.571 0 00.08-1.1c0-1.2-.08-1.4-.4-1.4-5.639.3-6.639.3-9.079.3 0-1.2.2-1.4.44-1.5a.589.589 0 00.32-.4c2.68 0 5.04.2 10.759.4a.28.28 0 00.32-.3 8.571 8.571 0 00.08-1.1c0-1.4-.08-1.5-.44-1.5-3.88.2-6.079.3-7.959.3a8.664 8.664 0 00.72-1 2.108 2.108 0 011.16-1 1.624 1.624 0 00.839-.7c0-.9-3.879-2.3-4.079-2.3-.08 0-.12.1-.16.3a13.471 13.471 0 01-2.32 4.7h-4.236c1-.7 1.12-.8 1.12-1 0-.9-2.919-3.8-3.24-3.8h-.16c-.4.2-2.44 1.3-2.44 1.6a.532.532 0 00.24.3 16.55 16.55 0 012.2 2.9c-1.92 0-4.2-.1-8.2-.3-.44 0-.44 0-.44 1.4 0 .5.04.9.04 1.2a.3.3 0 00.36.3c6.439-.3 8.519-.4 11.638-.4.04.6.04 1.3.04 1.9-2.44 0-3.479 0-9.239-.3-.32 0-.4 0-.4 1.4 0 .4.04.8.04 1.1a.28.28 0 00.32.3c5.679-.3 6.839-.4 9.278-.4 0 .8-.04 1.4-.04 2-3.719 0-6.959 0-13.878-.4-.48 0-.48 0-.48 1.6 0 .4.04.9.04 1.2a.368.368 0 00.44.3c3.919-.1 6.679-.3 9.039-.3l-.12.2c-1.92 2.1-6.439 4.9-11.758 6.6a.23.23 0 00-.28.2.468.468 0 00.32.3 12.128 12.128 0 013.039 1.8.2.2 0 00.2.1 30.919 30.919 0 007.839-4.5c.08 1.2.12 2.3.12 2.9v.9c0 1.8-.04 5.3-.12 7.6a69.746 69.746 0 01-7.719.9c-.28 0-.52 0-.52.2 0 .1 1.36 3.4 2.12 3.4a8.274 8.274 0 001.32-.6c.84-.2 6.679-1.2 12.238-2.4.48-.2.56-.3.56-.5a8.236 8.236 0 01.32-1.8c4.239 4.4 11.358 5.3 12.278 5.3a.811.811 0 00.639-.3 18.67 18.67 0 013.28-2.5.632.632 0 00.4-.4c0-.1-.16-.2-.48-.2a34.408 34.408 0 01-9.718-1.3c1.4-.5 2.559-.9 3.279-1.1a2.379 2.379 0 011.16-.2.954.954 0 001.04-.5 7.9 7.9 0 00-2.64-2.8.151.151 0 00-.16.1 15.228 15.228 0 01-5.839 3 9.792 9.792 0 01-2.16-2.1h2v.2c0 .2.08.3 1.68.3 1.24 0 1.76 0 1.76-.3v-.3zm-4.6-12.2c1.16 1 2.36 2 3.68 3-1.56 0-3.44.1-5 .1a2.133 2.133 0 01.36-.9 2.1 2.1 0 00.52-.9c0-.3-.2-.3-4.119-.8h-.16c-.08 0-.08 0-.08.1v.1a9.907 9.907 0 01.44 2.4c-1.2 0-2.64-.1-3.8-.1.56-.5 1.08-1 1.48-1.4.68-.8.88-.9 1.08-.9.4-.1.64-.2.64-.4a.392.392 0 00-.32-.3h5.279zm-6.919 8.7c.92 0 2.959-.1 3.8-.1.88 0 3.4.1 4.359.1 0 .4-.04.9-.04 1.4-1 0-3.559.1-4.319.1-.72 0-2.88 0-3.8-.1v-1.4zm.04-3.4s2.56-.1 3.759-.1 4.319.1 4.319.1.04.6.04 1.3h-8.117v-1.3zm-.04 7h2.679a13.762 13.762 0 001.76 2.4c-.92.1-2.559.5-4.439.8v-3.2zm49.4-13.6c3.52 0 6.719.1 11.478.3.36 0 .48-.1.48-1.9 0-1.9-.16-2-.48-2-5.239.3-7.838.4-11.438.4V7.2c.04-2.6.12-2.5.6-3.4a3.715 3.715 0 00.64-1.1c0-.8-3.679-1.4-5.119-1.5-.24 0-.32 0-.32.2v.2a39.837 39.837 0 01.4 6c0 .3.04 1.6.04 3.5h-2.32c-.759 0-1.679 0-3.2-.1l.96-2.6a3.846 3.846 0 011.08-1.5 1.477 1.477 0 00.759-1 1.025 1.025 0 00-.759-.6c-1.4-.5-3.52-1.3-3.8-1.3a.3.3 0 00-.36.3c0 2.3-2.959 11.6-8 15.9a.568.568 0 00-.16.2c0 .1.16.2.44.2a9.7 9.7 0 013.479 1.2h.28c.48 0 2.6-3 4.679-7.5 1.28-.1 2.24-.1 3.08-.1 1.359 0 2.4.1 3.839.1 0 1.9.04 4 .04 6.2-2.12-.1-4.559-.1-8.2-.4-.52 0-.559 0-.559 2 0 1.9.079 1.9.559 1.9 3.6-.3 6.039-.4 8.2-.4 0 2.7-.04 5.4-.04 7.5-1.04 0-2.08.1-3.2.1-2.76 0-6-.1-10.919-.4-.44 0-.52 0-.52 2 0 1.6 0 1.9.52 1.9 7.519-.3 11.438-.4 15.678-.4 4.6 0 8.478.1 16.4.4.36 0 .48-.1.48-2 0-1.7-.12-1.9-.52-1.9-7 .2-10.318.3-14.158.3 0-2.1-.04-4.8-.04-7.5 2.32 0 4.96.1 8.519.4.44 0 .48-.2.48-2 0-1.4-.08-1.9-.48-1.9-3.8.3-6.159.3-8.519.4v-6.2zm47.08 17.9c.479-.1.6-.2.6-2.2 0-1.9-.12-2.4-.479-2.4h-.32a47.336 47.336 0 01-10.319 1.6c-4.279 0-7.4-1.3-8.558-4.6a.669.669 0 00-.56-.5 19.319 19.319 0 00-2.8 1.3.42.42 0 00-.24.4.223.223 0 00.04.2c1.72 5.3 6.679 7.3 13.158 7.3a47.132 47.132 0 009.477-1.1zM92.335 8.8c-.68 0-1.16 3.1-1.16 3.5 0 .3.12.5 2.879.5h4.32a41.149 41.149 0 019.358 1 .922.922 0 01.2.1.373.373 0 00.4-.3 24.519 24.519 0 00.36-3.4c0-.4-.04-.5-.56-.6a58.556 58.556 0 00-8.918-.8c-1.92 0-3.4.2-4.64.2a14.114 14.114 0 01-2.119-.2h-.12zm22.116-.1c0-.8-4.079-4.7-4.359-4.7-.08 0-2.04 1-2.04 1.5a.351.351 0 00.08.2 44.426 44.426 0 013.719 4.5.434.434 0 00.36.3c.399 0 2.239-1.3 2.239-1.8zm4.439-2.3c0-.4-3.8-4.7-4.319-4.7-.08 0-2.04 1-2.04 1.5a.351.351 0 00.08.2 37.075 37.075 0 013.72 4.6.325.325 0 00.36.2c.239 0 2.196-1.1 2.196-1.8zm26.443 18a16.992 16.992 0 00-3.16-.2c-4.759 0-7.238 2-7.238 4.4 0 2.2 2.6 5.6 7.318 5.6 2.84 0 5.639-.9 6.839-5a31.834 31.834 0 015.119 3.2.369.369 0 00.28.1c.56 0 2.24-3 2.24-3.3 0-.4-3.6-2.4-7.759-3.8-.12-1.6-.4-5.6-.4-9.4v-1.2c1.36-.1 2.76-.2 4.12-.2h.879c.52 0 .6-.1.6-1 0-2.6-.12-2.8-.68-2.8-.36 0-4.279.4-4.8.4.08-1.4.12-2.7.24-4.1.04-.5.68-1.1.68-1.6 0-.9-3.239-.9-3.639-.9-.88 0-1.2 0-1.2.4v.1a22.04 22.04 0 01.24 2.8l.08 3.8-5.119.6a28.365 28.365 0 01-4.68.4c-.359 0-.519 0-.519.3a24.587 24.587 0 00.839 2.8.824.824 0 00.72.4h.12c1.4-.1 4.719-.7 8.679-1.1.04 3.1.08 6.1.2 8.7v.6zm-15.678.3a1.229 1.229 0 01-.4.7c-.04 0-.439-.4-.439-3a46.273 46.273 0 012.519-13.8c.28-.9 1.24-1.4 1.24-1.8 0-.7-4.279-2-4.759-2-.12 0-.16.1-.16.4a35.925 35.925 0 01-.64 4.4 70.641 70.641 0 00-1.64 13.2c0 7.4 2.68 11.6 3.16 11.6.04 0 3-.4 3-1.2a.6.6 0 00-.04-.2 5.668 5.668 0 01-.48-2.3 20.915 20.915 0 011.56-6.7c.04-.2.12-.3.12-.4a.169.169 0 00-.16-.2 4.7 4.7 0 01-1.4-1.7 1.674 1.674 0 00-.2-.2.246.246 0 00-.16.2zm15.918 3.1c-.28 1.9-1.4 3-3.64 3-1.879 0-3.239-1-3.239-2 0-.6.52-1.6 3.519-1.6a9.933 9.933 0 013.359.6zm29.562-8.8c1.719-3.5 4-7.3 5.879-10.4.479-.7 1.879-1.1 1.879-1.6 0-1-4.479-2-4.719-2a.85.85 0 00-.36.6c-4.239 9-9.878 19-13.158 27.2-.04 0-.04.1-.04.1 0 .7 3.24 1.1 4.04 1.1a.417.417 0 00.52-.3 58.472 58.472 0 012.8-7.9 6.152 6.152 0 015.159-4c1.96 0 1.96 1.5 1.96 2.4 0 1.4-.12 3-.12 4.4 0 5.2 3.879 5.8 5.6 5.8 3.8 0 10.038-3 12.318-12.1a.777.777 0 00.04-.3.756.756 0 00-.32-.7 6.949 6.949 0 01-2.04-2.1 1.628 1.628 0 00-.44-.4.65.65 0 00-.32.6c-1.959 8-6.239 11-8.718 11-1.72 0-2.2-1.2-2.2-3.3 0-1 .04-2.1.04-3.1 0-1.7-.04-5.6-4.759-5.6a8.54 8.54 0 00-3.042.6zm46.759 13.9c10.118-1 14.2-6.9 14.2-12.6 0-7.3-6.479-12-14.277-12-8.839 0-15.638 6.2-15.638 13.9 0 5.9 4.16 8.7 6.159 8.7a2.758 2.758 0 002.32-1.4c4.279-6.3 8.478-16.4 8.918-17.3.2-.4.28-.6.64-.6h.12c4.959 1.1 7.679 4.8 7.679 8.5 0 4.6-4.319 9.3-13.518 9.5-.24 0-.44 0-.44.2a.7.7 0 00.28.4 13.087 13.087 0 011.92 2 1.4 1.4 0 001.36.7h.28zm-2.48-21.3c-.68 2-3.919 9.8-7.039 14.2a.811.811 0 01-.52.4c-1 0-2-2.4-2-4.2 0-4.6 4.119-9.4 9.558-10.4zm49.838-3c0-.3-.08-.4-.759-.4-2.8 0-3.6.1-3.6.6a.223.223 0 00.04.2 20.431 20.431 0 011.2 6.8c0 7.1-3.519 14.7-9.479 14.7-2.479 0-5-1.7-5-6.1 0-5.3 3.8-13 8.239-14.8.36-.1 1.28-.2 1.28-.8 0 0 0-.1-.8-2.3a.727.727 0 00-.6-.4h-.2a12.55 12.55 0 01-4.879.9 6.242 6.242 0 01-3.92-1 1.108 1.108 0 00-.359-.2c-.4 0-1.52 2.7-1.56 3.2v.1c0 .7 1.04 1.1 3.479 1.1h1.44a.568.568 0 01-.16.2 22.873 22.873 0 00-5.559 14.2c0 6.2 3.8 9.8 8.519 9.8 3.239 0 11.638-2.2 12.6-14.9a.7.7 0 01.12-.5 1.876 1.876 0 01.24.4c.84 2.1 3 6.2 3.96 6.2 1.04 0 3.359-1.8 3.359-2.2a1.169 1.169 0 00-.36-.5c-4.6-4.1-7.239-10.9-7.239-13.8v-.5zm32.2.4l-.12.3c-.68 1.2-2.44 4.9-4.4 8.6-9.958.1-10.918 7.1-10.918 8.7a4.077 4.077 0 004.16 4.4c3.719 0 5.559-3.3 8.878-9.7a36.694 36.694 0 018.519 2.6c-1.84 3.9-5 7.4-9.719 8.5a1.807 1.807 0 00-.32.2.484.484 0 00.28.3 8.237 8.237 0 012.08 1.8.621.621 0 00.56.3c.16 0 6.639-1.2 10.518-9.5a45.356 45.356 0 015.839 3.8c.08 0 .16.1.24.1.56 0 1.96-3.2 1.96-3.6 0-.5-4-2.7-6.679-3.9a21.975 21.975 0 00.68-3.1 1.413 1.413 0 01.88-1.2 1.517 1.517 0 00.8-1c0-.8-4.359-2.1-4.879-2.1a.28.28 0 00-.32.3 6.777 6.777 0 01.04.9 17.917 17.917 0 01-.68 4.7 43.871 43.871 0 00-8.2-2.2c2.2-4.2 4.439-8.3 5.839-9.7.24-.3 1-.6 1-1.1s-2.6-2.4-3.16-2.4a.658.658 0 00-.36.2c-1.08.6-4.879 1.2-7.479 1.2a8.31 8.31 0 01-1.8-.2h-.28c-.24 0-.28.1-.28.4s.44 3.4 1.28 3.4a24.348 24.348 0 005.679-1h.36zm-6.159 12.2c-2.8 5.2-3.76 6.3-4.959 6.3-.52 0-.92-.4-.92-1.3.002-1.9 1.481-4.7 5.881-5zm54.238 7.7c4.839-2.7 6.758-6.2 6.758-9.5 0-1.6-.919-9.8-11.478-9.8a32.879 32.879 0 00-10.478 2c-3.159 1.1-6.759 2.6-8.439 3a.274.274 0 00-.319.2c0 .6 2.8 3.6 3.239 3.6a1.6 1.6 0 00.72-.3c8.238-4.6 13.518-4.8 15.117-4.8 5.759 0 7.239 3.7 7.239 5.9 0 3.9-4.4 8.3-17.157 9.4a.519.519 0 00-.56.2 1.723 1.723 0 00.32.6 7.239 7.239 0 011.72 2 .987.987 0 001 .6c1.481 0 8.04-.7 12.32-3.1z" fill="#573001" fill-rule="evenodd"/></svg>