<svg xmlns="http://www.w3.org/2000/svg" width="41.594" height="7.2" viewBox="0 0 83.188 14.4"><path data-name="50% menu_label_sub_access_sm.svg" d="M.362 14.2h1.74a.6.6 0 00.58-.4l.98-2.1h5.981l.98 2.1a.553.553 0 00.58.4h1.74a.333.333 0 00.34-.5L7.122.2a.355.355 0 00-.34-.2h-.2a.377.377 0 00-.34.2L.021 13.7a.333.333 0 00.341.5zm4.281-4.8L6.603 5h.059l2 4.4H4.639zm11.339-2.2a7.188 7.188 0 007.222 7.2 6.915 6.915 0 004.861-1.9.457.457 0 00.02-.6l-1.241-1.2a.283.283 0 00-.5 0 5.259 5.259 0 01-3.06 1.1 4.512 4.512 0 01-4.481-4.6 4.582 4.582 0 014.461-4.7 4.973 4.973 0 013.08 1.2.283.283 0 00.5 0l1.221-1.3a.309.309 0 00-.02-.5A6.89 6.89 0 0023.204 0a7.188 7.188 0 00-7.226 7.2zm15.62 0a7.188 7.188 0 007.222 7.2 6.915 6.915 0 004.861-1.9.457.457 0 00.02-.6l-1.241-1.2a.283.283 0 00-.5 0 5.259 5.259 0 01-3.06 1.1 4.512 4.512 0 01-4.481-4.6 4.582 4.582 0 014.461-4.7 4.972 4.972 0 013.08 1.2.283.283 0 00.5 0l1.221-1.3a.309.309 0 00-.02-.5A6.89 6.89 0 0038.824 0a7.188 7.188 0 00-7.226 7.2zm16.7 6.6a.4.4 0 00.38.4h8.142a.4.4 0 00.38-.4v-1.6a.4.4 0 00-.38-.4h-5.921V8.3h4.941a.352.352 0 00.38-.4V6.3a.412.412 0 00-.38-.4h-4.941V2.6h5.921a.4.4 0 00.38-.4V.6a.4.4 0 00-.38-.4h-8.142a.4.4 0 00-.38.4v13.2zm13.04-.9a6.954 6.954 0 004.4 1.5c2.82 0 4.6-1.9 4.6-3.9 0-2.6-2.241-3.8-4.181-4.6C64.54 5.3 63.8 4.6 63.8 3.7a1.62 1.62 0 011.761-1.4 6.58 6.58 0 012.78 1.1.51.51 0 00.7-.2l.761-1.2a.419.419 0 00-.12-.6 6.96 6.96 0 00-4-1.4c-3.181 0-4.5 2.1-4.5 3.9 0 2.3 1.88 3.5 3.761 4.3 1.68.7 2.54 1.4 2.54 2.4a1.681 1.681 0 01-1.82 1.5 7.512 7.512 0 01-3.021-1.2.409.409 0 00-.68.1l-.72 1.3a.4.4 0 00.096.6zm12.84 0a6.954 6.954 0 004.4 1.5c2.82 0 4.6-1.9 4.6-3.9 0-2.6-2.241-3.8-4.181-4.6-1.621-.6-2.361-1.3-2.361-2.2a1.62 1.62 0 011.761-1.4 6.58 6.58 0 012.78 1.1.51.51 0 00.7-.2l.76-1.2a.419.419 0 00-.12-.6 6.956 6.956 0 00-4-1.4c-3.181 0-4.5 2.1-4.5 3.9 0 2.3 1.88 3.5 3.76 4.3 1.681.7 2.541 1.4 2.541 2.4a1.681 1.681 0 01-1.82 1.5 7.512 7.512 0 01-3.021-1.2.409.409 0 00-.68.1l-.72 1.3a.4.4 0 00.097.6z" fill="#f2a64b" fill-rule="evenodd"/></svg>