<svg xmlns="http://www.w3.org/2000/svg" width="138.266" height="15.45" viewBox="0 0 276.531 30.9"><path data-name="50% menu_label_menu_sm.svg" d="M8.843 24a.23.23 0 00-.28.2.223.223 0 00.04.2 20.468 20.468 0 01.84 2.6c.08.5.32 1.2 3.08 1.2 2.6 0 4.759-1.2 6.479-4.1 1.4-2.3 1.84-7 1.84-10.1 0-2.8-.2-6-4.279-6h-.16a21.261 21.261 0 00-3.479.2c.4-1.6.8-3.2 1.08-4.6.2-1 1.04-1.5 1.04-1.9 0-.9-4.759-1.5-4.839-1.5-.16 0-.2.1-.2.6a35.4 35.4 0 01-.96 7.8c-2.919.4-5.559.8-6.879.8h-.32a.35.35 0 00-.4.4 9.284 9.284 0 00.96 3 .7.7 0 00.76.4 43.968 43.968 0 004.879-1A35.791 35.791 0 01.126 26a.171.171 0 00-.12.2c0 .7 3.519 1.8 3.919 1.8a.348.348 0 00.36-.2 54.44 54.44 0 007.679-16.2 21.1 21.1 0 013.12-.3c1.2 0 1.96.1 1.96 3.5 0 9-3.639 9.4-5.679 9.4a10.407 10.407 0 01-2.36-.2h-.16zM22.681 8.5c-.08.1-.2.3-.2.3a.341.341 0 00.2.3c1.239.9 5.519 4.4 7.518 8.4a.488.488 0 00.36.3c.6 0 3.32-2.2 3.32-2.7 0-1.4-7.839-8.4-8.959-8.4a.929.929 0 00-.4.2zm25.922 17.3a.274.274 0 00-.319.2 1.6 1.6 0 00.16.4 8.184 8.184 0 011.519 2.3c.28.7.72.7 2.44.7 4.919 0 8.558-3.2 8.558-7.2a8.729 8.729 0 00-2.639-5.9c-1-1.1-2.32-2.4-3.2-3.3a2.348 2.348 0 01-.679-1.6 2.975 2.975 0 01.879-2 .273.273 0 00.12-.2.268.268 0 00-.28-.3 23 23 0 00-3.319-.8c-.44 0-1.56 1.5-1.56 3.3a5.269 5.269 0 001.76 3.7 43.909 43.909 0 013.119 3.3 6.055 6.055 0 011.6 3.8c0 2.2-2.12 3.8-6.119 3.8a13.624 13.624 0 01-1.92-.2h-.12zm13.758-10.6a20.618 20.618 0 017.279 7.6.4.4 0 00.28.2c.68 0 3.639-2.2 3.639-2.6 0-.5-3-4.4-8.118-7.5a.294.294 0 00-.28-.1 9.263 9.263 0 00-3 2.1.445.445 0 00.2.3zm-13.158 5a.223.223 0 00-.04-.2 17.005 17.005 0 01-.879-3c-.04-.2-.08-.3-.16-.3a.705.705 0 01-.24.1A38.672 38.672 0 0137.645 22a.674.674 0 00-.44.3s2.88 3.7 3.44 3.7c.48 0 .88-.7 1.36-1 6.678-4 7.198-4.5 7.198-4.8zm9.239-13.7c.32-.3 2.119-2.5 2.119-3.1 0-.9-8.478-3.4-9.838-3.4-.44 0-2.08 2.4-2.08 2.7a.28.28 0 00.32.3 29.266 29.266 0 018.879 3.6h.24a.5.5 0 00.36-.1zm34.36 4.9c.32 0 1.6-2.5 1.6-3.2 0-1-7.6-2.1-7.879-2.1-.64 0-1.52 2.3-1.52 2.8 0 .3.2.3.48.3a23.376 23.376 0 017 2 1.064 1.064 0 00.319.2zm-6.279 19.5c.4 0 9.638-2.3 9.638-10.7 0-3.1-.959-7.6-6.079-7.6-1.519 0-2.559.2-6.159 1.5a7.052 7.052 0 01-2.2.5c-.32.1-.48.2-.48.4 0 .5 2 3 2.639 3h.32a15.789 15.789 0 011.96-1.1 9.128 9.128 0 013.679-1.1c.88 0 2.8.3 2.8 4.2 0 4.3-3.8 7-8.4 8.2-.28 0-.44.1-.44.2a.767.767 0 00.32.5 13.535 13.535 0 011.84 1.7.621.621 0 00.562.3zm36.72-2.8c10.118-1 14.2-6.9 14.2-12.6 0-7.3-6.478-12-14.277-12-8.839 0-15.638 6.2-15.638 13.9 0 5.9 4.16 8.7 6.159 8.7a2.758 2.758 0 002.32-1.4c4.279-6.3 8.479-16.4 8.919-17.3.2-.4.279-.6.639-.6h.12c4.96 1.1 7.679 4.8 7.679 8.5 0 4.6-4.319 9.3-13.518 9.5-.24 0-.44 0-.44.2a.7.7 0 00.28.4 13.087 13.087 0 011.92 2 1.4 1.4 0 001.36.7h.28zm-2.48-21.3c-.68 2-3.919 9.8-7.039 14.2a.811.811 0 01-.52.4c-1 0-2-2.4-2-4.2.001-4.6 4.12-9.4 9.559-10.4zm42.64 9.9a47.569 47.569 0 015.039 4.5.259.259 0 00.24.1 9.353 9.353 0 002.96-3.1c0-.4-2.36-2.4-5.919-4.8 1.319-2.1 2.439-4.2 3.359-6a4.8 4.8 0 011.48-2.1 2.379 2.379 0 001.12-1.1c0-1.1-4.8-2.7-5.16-2.7-.16 0-.16.1-.2.3-.119 1-.519 3.6-3.919 9.4-3.6-2.2-6.079-3.3-6.439-3.3a6.044 6.044 0 00-2.4 2.3.308.308 0 00.2.3c1.519.8 3.959 2.2 6.518 3.9a33.275 33.275 0 01-13.4 11.4.391.391 0 00-.4.2c0 .1.12.2.48.3a12.237 12.237 0 013.639 1.9.744.744 0 00.44.2c.884 0 6.723-4 12.362-11.7zm45.679 8.2a.425.425 0 00.48-.4c.04-.3.04-1.1.04-1.9 0-.7 0-1.5-.04-1.9a.425.425 0 00-.48-.4h-.08c-6.679.4-9.479.4-13.238.4-3.72 0-6.2 0-13.038-.4h-.2c-.44 0-.52.1-.52 2 0 .8 0 1.7.04 2.1a.457.457 0 00.56.5h.12c5.879-.4 8.239-.4 13.038-.4 3.719 0 6.719 0 13.238.4h.08zM185.646 6.3c-.4 0-.4.3-.4 2.1 0 .7.04 1.4.04 1.8a.407.407 0 00.52.4 89.792 89.792 0 019.958-.4c2.959 0 4.879 0 10.118.4a.418.418 0 00.44-.3c.04-.4.08-1.1.08-1.9 0-2-.16-2.1-.52-2.1-4.839.4-8.678.4-11.278.4-2.08 0-4.159-.1-8.8-.4h-.16zm56.036 19.9c.32 0 .4 0 .4-1.7 0-1.8-.12-1.9-.48-1.9h-.08c-1.8.1-3.679.2-5.6.3.96-7.6 1.24-9.5 1.32-10v-.1a.876.876 0 00-.84-.8h-.08c-3.039.2-3.559.3-6.6.3-1.32 0-2.759-.1-5.759-.3h-.24c-.36 0-.36 0-.36 3.1a.438.438 0 00.44.5h.16a59.556 59.556 0 016.919-.3 16.794 16.794 0 012.24.1c.12 0 .12 0 .12.1-.08 1.2-.24 2.5-.36 3.6-.16 1.4-.4 2.7-.56 3.9h-2.8c-3.119 0-6.359-.1-9.4-.4h-.16c-.36 0-.44 0-.44 2.1 0 1.4 0 1.7.4 1.7h.12c3.359-.3 7.039-.4 10.718-.4 3.719 0 7.4 0 10.8.2h.12zm34.44-14.6a141.213 141.213 0 01-15.637.5c-2.2 0-5.8 0-11.358-.5h-.2c-.2 0-.28.2-.28 2.2 0 .8.04 1.5.04 2a.325.325 0 00.36.4h.08c3.4-.2 6.719-.4 14.917-.4 2.32 0 6.279 0 12.078.4a.3.3 0 00.36-.3c.04-.3.04-.9.04-1.5 0-.9 0-1.8-.04-2.4 0-.2-.04-.4-.28-.4h-.08z" fill="#573001" fill-rule="evenodd"/></svg>