<svg xmlns="http://www.w3.org/2000/svg" width="7.203" height="73.015" viewBox="0 0 14.407 146.03"><path id="_50_menu_sub_heading_sm.svg" data-name="50% menu_sub_heading_sm.svg" d="M189.467 4788.27a7.171 7.171 0 00-7.182 7.22 6.865 6.865 0 001.941 4.86.381.381 0 00.54.02l1.28-1.24a.368.368 0 000-.5 4.8 4.8 0 01-1.14-3.06 4.644 4.644 0 019.282-.02 4.732 4.732 0 01-1.18 3.08.32.32 0 000 .5l1.26 1.22a.372.372 0 00.56-.02 6.769 6.769 0 001.86-4.84 7.2 7.2 0 00-7.221-7.22zm-6.982 15.22v1.74a.6.6 0 00.4.58l2.16.98v5.98l-2.16.98a.575.575 0 00-.4.58v1.74a.354.354 0 00.521.34l13.462-6.16a.34.34 0 00.22-.34v-.2a.359.359 0 00-.22-.34l-13.462-6.22a.354.354 0 00-.521.34zm4.781 4.28l4.4 1.96v.06l-4.4 2v-4.02zm-4.4 12.46a.38.38 0 00-.381.38v1.84a.394.394 0 00.381.38h5.061v4.94a.393.393 0 00.38.38h1.64a.393.393 0 00.38-.38v-4.94h3.761v5.92a.38.38 0 00.38.38h1.64a.38.38 0 00.38-.38v-8.14a.38.38 0 00-.38-.38h-13.242zm4.921 13.08a5.57 5.57 0 000 11.14h8.321a.393.393 0 00.38-.38v-1.9a.38.38 0 00-.38-.38h-8.2a2.912 2.912 0 11.02-5.82h8.181a.38.38 0 00.38-.38v-1.9a.393.393 0 00-.38-.38h-8.321zm0 16.38a5.57 5.57 0 000 11.14h8.321a.393.393 0 00.38-.38v-1.9a.38.38 0 00-.38-.38h-8.2a2.912 2.912 0 11.02-5.82h8.181a.38.38 0 00.38-.38v-1.9a.393.393 0 00-.38-.38h-8.321zm-4.841 22.08a.367.367 0 00-.461.38v1.8a.387.387 0 00.3.36l7.582 1.16v.06l-7.862 3.54a.359.359 0 00-.22.34v.36a.34.34 0 00.22.34l7.862 3.5v.06l-7.582 1.18a.434.434 0 00-.3.38v1.82a.348.348 0 00.461.36l13.442-2.36a.337.337 0 00.3-.36v-.32a.345.345 0 00-.2-.34l-9.442-4.4v-.06l9.442-4.4a.365.365 0 00.2-.34v-.32a.337.337 0 00-.3-.36zm-.08 20.38a.38.38 0 00-.381.38v8.14a.38.38 0 00.381.38h1.64a.38.38 0 00.38-.38v-5.92h3.5v4.94a.38.38 0 00.38.38h1.66a.393.393 0 00.38-.38v-4.94h3.281v5.92a.38.38 0 00.38.38h1.64a.38.38 0 00.38-.38v-8.14a.38.38 0 00-.38-.38h-13.241zm0 13.76a.394.394 0 00-.381.38v1.82a.38.38 0 00.381.38h8.6v.02l-9.182 8.36v.48a.376.376 0 00.36.38h13.463a.393.393 0 00.38-.38v-1.84a.38.38 0 00-.38-.38h-8.261v-.02l8.841-8.32v-.5a.376.376 0 00-.36-.38h-13.461zm4.921 17.26a5.57 5.57 0 000 11.14h8.321a.393.393 0 00.38-.38v-1.9a.38.38 0 00-.38-.38h-8.2a2.912 2.912 0 11.02-5.82h8.181a.38.38 0 00.38-.38v-1.9a.393.393 0 00-.38-.38h-8.321z" transform="translate(-182.281 -4788.28)" fill="#f0af49" fill-rule="evenodd"/></svg>