<svg xmlns="http://www.w3.org/2000/svg" width="194.047" height="17.75" viewBox="0 0 388.094 35.5"><path data-name="50% menu_sns_label.svg" d="M26.244 14c4.279 4 7.358 5.6 7.558 5.6a.591.591 0 00.48-.3 15.629 15.629 0 013.6-2.7.8.8 0 00.4-.3.567.567 0 00-.4-.2A34.266 34.266 0 0121.404 3.2h.12a1.5 1.5 0 001.08-.9c0-.6-3.279-2-4.279-2.2a.2.2 0 00-.2-.1c-.16 0-.2.2-.24.4-.56 3-7.879 12.9-17.477 17.2a.567.567 0 00-.4.2.479.479 0 00.4.3 14.533 14.533 0 013.8 2.4.429.429 0 00.24.2c.52 0 4.6-3.2 7.759-6.4 0 .4-.04.9-.04 1.5 0 1.5.08 1.7.44 1.7a58.64 58.64 0 016.8-.3c1.36 0 3 0 6.479.3a.36.36 0 00.36-.3c.04-.3.04-.9.04-1.5 0-.7 0-1.3-.04-1.6V14zm-6.439 10.1c1.519 0 3.8.1 3.8.1a51.838 51.838 0 01-2.959 10.2c0 .1-.04.1-.04.1 0 .8 3.4 1 3.919 1a.545.545 0 00.64-.4c1.08-5 2-7.6 2.839-11.2a3.48 3.48 0 01.6-.8 1.4 1.4 0 00.32-.5c0-.5-2.8-2.3-3.079-2.3a2.614 2.614 0 00-.8.3c-2 .2-6.2.2-6.559.2-1.4 0-4.479-.1-9.439-.4a.378.378 0 00-.479.4v.9c0 2.5 0 2.8.4 2.8 6.2-.3 9.158-.4 10.158-.4h.68zm-.6-18.1a43.733 43.733 0 006.679 7.7 26.481 26.481 0 01-4.12.4c-.84 0-1.519-.1-2.359-.1a55.807 55.807 0 01-6.6-.3 58.921 58.921 0 006.4-7.7zm50.038 28c-.52-7.6-.52-12.9-.52-15.5 0-2.8.04-6.4.32-14 0-.4-.08-.5-.32-.5H68.6c-2.719.2-5.159.3-10.238.3-3.759 0-7.039 0-10.518-.2-.4 0-.4 0-.4.2v.1c.36 6 .4 9.2.4 16.4 0 3-.08 7.8-.64 13.4v.1c0 .5.44.6 2.24.6 1.879 0 2.319 0 2.319-.7-.04-.7-.04-1.3-.04-2 1.56 0 4.2-.1 6.679-.1 2.68 0 5.159.1 6.4.1l-.08 1.9c0 .5.16.6 1.88.6h2.159c.24 0 .48-.1.48-.6V34zM65 19.4c0 6.5 0 6.9-.08 9.3-1.2.1-3.8.1-6.559.1-2.519 0-5.239 0-6.759-.1 0-.4-.04-1.9-.04-9.3 1.52-.1 4.28-.1 6.839-.1 2.844 0 5.443.1 6.599.1zm0-3.4c-1.16 0-3.8.1-6.639.1-2.559 0-5.279 0-6.8-.1 0-4.9.08-8.3.08-8.3s3.16-.1 6.719-.1 6.559.1 6.559.1S65 11 65 16zm31.8 16.6c10.118-1 14.2-6.9 14.2-12.6 0-7.3-6.478-12-14.277-12-8.839 0-15.638 6.2-15.638 13.9 0 5.9 4.16 8.7 6.159 8.7a2.758 2.758 0 002.32-1.4c4.279-6.3 8.479-16.4 8.919-17.3.2-.4.279-.6.639-.6h.12c4.96 1.1 7.679 4.8 7.679 8.5 0 4.6-4.319 9.3-13.518 9.5-.24 0-.44 0-.44.2a.7.7 0 00.28.4 13.087 13.087 0 011.92 2 1.4 1.4 0 001.36.7h.28zm-2.48-21.3c-.68 2-3.919 9.8-7.039 14.2a.812.812 0 01-.519.4c-1 0-2-2.4-2-4.2.005-4.6 4.124-9.4 9.563-10.4zM144.839 34c-.52-7.6-.52-12.9-.52-15.5 0-2.8.04-6.4.32-14 0-.4-.08-.5-.32-.5h-.119c-2.72.2-5.16.3-10.239.3-3.759 0-7.038 0-10.518-.2-.4 0-.4 0-.4.2v.1c.36 6 .4 9.2.4 16.4 0 3-.08 7.8-.64 13.4v.1c0 .5.44.6 2.24.6 1.88 0 2.319 0 2.319-.7-.04-.7-.04-1.3-.04-2 1.56 0 4.2-.1 6.679-.1 2.68 0 5.159.1 6.4.1l-.08 1.9c0 .5.16.6 1.88.6h2.16c.24 0 .48-.1.48-.6V34zm-4.24-14.6c0 6.5 0 6.9-.08 9.3-1.2.1-3.8.1-6.559.1-2.519 0-5.239 0-6.759-.1 0-.4-.04-1.9-.04-9.3 1.52-.1 4.28-.1 6.839-.1 2.845 0 5.444.1 6.6.1zm0-3.4c-1.16 0-3.8.1-6.639.1-2.559 0-5.279 0-6.8-.1 0-4.9.08-8.3.08-8.3s3.16-.1 6.719-.1 6.559.1 6.559.1.082 3.3.082 8.3zm38.32 18.9c0 .3.16.4 1.56.4 1.52 0 2.319 0 2.319-.5 0-.1-.04-.2-.04-.4-.2-2.5-.24-5.8-.24-9.3 0-1 0-2.3.16-4.1v-.2a.264.264 0 00-.319-.3h-.159c-2.6.2-7.279.2-9.319.2-2.12 0-7.639-.1-9.318-.2h-.32c-.28 0-.36 0-.36.3v.2c.2 3.1.24 4.1.24 5.4 0 1-.04 5.3-.32 8.3v.2c0 .4.12.5 1.919.5 1.84 0 2-.1 2-.7 0-.3-.04-.6-.04-1h12.278c0 .4-.04.8-.04 1.1v.1zm1.84-27.2c1.68 0 3.279.1 5.639.2.36 0 .48 0 .48-1.3 0-.5 0-1.1-.04-1.4a.4.4 0 00-.44-.4 37.689 37.689 0 01-5.479.3c.04-.6.08-1.2.08-1.6a2.235 2.235 0 01.68-1.3 1.221 1.221 0 00.36-.7c0-.2-.16-.3-.48-.4a30.441 30.441 0 00-4.2-.7.391.391 0 00-.4.2 1.185 1.185 0 01.08.3 11.994 11.994 0 01.48 4.2q-1.558-.15-3.839-.3h-.12c-.28 0-.44.1-.44 1.6 0 1.3 0 1.5.56 1.5 1.4-.1 2.68-.2 3.8-.2a20.988 20.988 0 01-.28 2.6c-1.119 0-2.4-.1-3.839-.2h-.12c-.28 0-.44 0-.44 1.5 0 1.3 0 1.6.56 1.6 1.04-.1 2.08-.2 3.04-.2a10.639 10.639 0 01-6.039 5.4.391.391 0 00-.28.3 1.022 1.022 0 00.24.2c1.079.3 2.519.6 3.2 1.3a.294.294 0 00.28.1.5.5 0 00.36-.1 12.789 12.789 0 004.879-5.3c3.2 5 6.919 7 7.079 7a.327.327 0 00.32-.2 11.316 11.316 0 013.439-1.8.7.7 0 00.52-.3.469.469 0 00-.36-.3 17.3 17.3 0 01-8.878-6.4c2.119 0 5.119.1 7.358.3.36 0 .48-.1.48-1.4 0-.5 0-1.1-.04-1.4a.391.391 0 00-.44-.3c-2.479.2-6.038.3-8.118.3a26.735 26.735 0 00.36-2.7zm-23.4 2.4c-.24 0-.4.1-.4 1.5 0 1.3.08 1.6.52 1.6 1.639-.1 3.759-.2 5.439-.3-1 2.8-3.12 5.7-7.639 7.6a.391.391 0 00-.28.3.2.2 0 00.2.1 20.253 20.253 0 013.48 1.6c.079 0 .2.1.279.1.36 0 4.04-2 6.319-7.1 1.84 2.3 3.12 3.2 3.32 3.2a.549.549 0 00.36-.2 10.238 10.238 0 012.479-1.5.316.316 0 00.2-.2.632.632 0 00-.4-.4 18.5 18.5 0 01-4.679-3.5c1.4 0 2.84.2 4.879.3.36 0 .48-.1.48-1.4 0-.5 0-1.1-.04-1.4a.391.391 0 00-.44-.3c-1.879.2-3.279.2-4.639.3 0-.1.04-.4.24-2.7 1.2 0 2.4.1 4.239.2.36 0 .48 0 .48-1.3 0-.5 0-1.1-.04-1.4a.43.43 0 00-.48-.4 34.832 34.832 0 01-4.079.3c.04-.7.04-1.3.04-1.6a2.235 2.235 0 01.68-1.3 1.221 1.221 0 00.36-.7c0-.2-.16-.3-.48-.4a28.627 28.627 0 00-4.119-.7.368.368 0 00-.44.3.381.381 0 01.08.2 10.723 10.723 0 01.44 2.2c0 .4.04 1.2.04 2-1.36 0-3.04-.1-5.119-.3h-.12c-.28 0-.44.1-.44 1.6 0 1.3 0 1.5.56 1.5 1.839-.1 3.6-.2 5.079-.2 0 .4-.04.8-.04 1.1-.04.5-.08 1-.16 1.6-1.68-.1-3.92-.1-6.039-.3h-.12zm21.676 20.8c-1.4 0-5.359.1-6.239.1s-4.679-.1-6.159-.1v-2.4h12.4v2.4zm0-5.2c-1.4 0-5.359.1-6.239.1s-4.679-.1-6.159-.1c0-1 .04-2.1.04-2.1s4.759-.1 6.119-.1 6.2.1 6.2.1.048 1.1.048 2.1zm31.322 7.6a97.447 97.447 0 01-.6-10.8v-1.1c2.28-2.3 6.4-4.9 10.4-4.9 3.28 0 6.319 1.8 6.319 4.9 0 1.8-.92 6.6-12.358 8a.283.283 0 00-.2.1.48.48 0 00.12.3 8.423 8.423 0 011.68 2.3.651.651 0 00.72.5c6.4-.5 14.237-4.1 14.237-11 0-4.5-3.759-8.4-9.958-8.4a17.624 17.624 0 00-10.838 3.9v-.2l3-3.9a1.554 1.554 0 00.16-.5 5.245 5.245 0 00-1.839-2 4.18 4.18 0 00-.88.4c.16-1.2.36-2.5.6-3.7.2-1 1.16-1.9 1.16-2.4 0-.4-.4-.5-4.44-1h-.08c-.28 0-.36.1-.36.5-.08 2.6-.24 5.4-.44 8-2.159.8-4.559 1.7-5.839 2.1a.555.555 0 00-.479.4c0 .3 1.239 3 1.959 3a1.312 1.312 0 00.52-.2c1.48-.8 3.16-1.5 3.6-1.7a12.245 12.245 0 00-.08 1.3 31.009 31.009 0 01-5.36 8.7h.08c-.719.8-1.479 1.6-2.279 2.5a.505.505 0 00-.2.3c0 .5 2.879 2 3.4 2a.3.3 0 00.36-.2 42.255 42.255 0 013.8-5.5c-.04 2.4-.08 5.3-.08 8.5 0 .4.2.5 2.079.5 1.48 0 2.12 0 2.12-.5v-.2zm44-24.3c.44 6.1.44 6.5.44 7.4 0 8.7-3.479 13.3-11.4 15.7-.24 0-.44 0-.44.2l.36.3a18.008 18.008 0 012.4 2 .723.723 0 00.56.3.6.6 0 00.4-.1c9.2-3.3 12.2-9.5 12.2-18.1 0-1-.04-2-.12-3.1-.04-.3-.2-2.8-.2-5.1a9.832 9.832 0 01.12-1.6 13.535 13.535 0 00.6-1.7.619.619 0 00-.64-.5 21.333 21.333 0 00-4.04-.5c-.44 0-.52.1-.52.4v.2zm-7.478 13.8a7.561 7.561 0 01-.04-1 11.572 11.572 0 011.079-4.3.838.838 0 00.08-.3.78.78 0 00-.119-.4 11.627 11.627 0 01-.68-2.5.156.156 0 00-.12-.1c-.04 0-.12.1-.16.1-1.04 2.2-1.08 2.2-1.24 2.2s-.28-.6-.28-1.6a31.632 31.632 0 011.2-7.4c.2-.7 1.04-1 1.04-1.5 0-.7-4.08-1.8-4.4-1.8-.24 0-.4.1-.4.5-.04 1.9-.44 3.8-.64 5.8a54.634 54.634 0 00-.4 5.6c0 5.1 1.519 7.8 2.119 7.8.04 0 2.96-.3 2.96-1.1zm39.519 10.8c-.16-2.1-.2-12.7-.2-19 0-1.7 0-3.5.12-5.1v-.1a.264.264 0 00-.32-.3h-.08c-1.16 0-2.6.1-3.919.1 0-1.5.04-2.6.08-3.1a.744.744 0 01.16-.6l.2-.2a38.539 38.539 0 014.319.3.45.45 0 00.44-.3 10.153 10.153 0 00.04-1.2c0-.7 0-1.4-.04-1.7a.45.45 0 00-.44-.3c-1.68.1-3.639.3-9.039.3a71.467 71.467 0 01-7.158-.3h-.12c-.32 0-.4.4-.4 1.9 0 1.4.2 1.6.52 1.6a47.082 47.082 0 014.759-.3 7.561 7.561 0 01.04 1c0 .5 0 1.8-.04 2.9-1.64 0-3.28-.1-3.879-.1a2.173 2.173 0 01-.28-.1.193.193 0 00-.24.2c0 .1.04.2.04.3.16 3 .16 5.9.16 9.6 0 3 0 10.6-.32 15.6v.1c0 .5.4.6 1.759.6 1.64 0 1.68-.2 1.68-.7 0-.8-.04-1.6-.04-2.6h9c0 .7-.04 1.3-.04 1.8 0 .3.2.5 1.759.5 1.4 0 1.48-.2 1.48-.5v-.3zm16.477-15.7c-.16-2.6-.36-6.4-.36-9.7a46.589 46.589 0 01.24-5.2v-.1a.264.264 0 00-.32-.3h-.12c-2.4.2-4.2.3-5.479.3a69.02 69.02 0 01-7.878-.4h-.16c-.28 0-.32.2-.32 1.2 0 2.2 0 2.8.44 2.8a65.44 65.44 0 017.078-.4h2.84c.04 1.5.08 4.3.08 7.2a25.86 25.86 0 01-2.68.1 61.134 61.134 0 01-7.4-.4h-.16c-.08 0-.08 0-.08.1v.2a50.52 50.52 0 01.4 7c0 2.8-.12 7.8-.28 10.3v.3c0 3.8 4.839 4 8.078 4 6.6 0 8.679-1.1 8.919-6.3a.34.34 0 00-.2-.4 20.12 20.12 0 01-3.36-2.6.316.316 0 00-.28-.2c-.04 0-.08 0-.08.1.04.6.04 1.2.04 1.6 0 3.3-.8 3.8-1.639 3.9a17.012 17.012 0 01-3.2.3c-3.8 0-4.319-.5-4.359-1.4-.04-.8-.08-2.2-.08-3.8 0-3.2.08-7.4.2-9.4 1.68-.1 2.28-.1 3.479-.1a22.951 22.951 0 012.64.1v1.2c0 .5.12.6 2 .6 2 0 2-.2 2-.5v-.1zm-19.6 5.9c-1.04 0-3.92.1-4.56.1-.6 0-3.479-.1-4.559-.1v-2.3a5.937 5.937 0 011.32.7h.16c.32 0 2.2-2.6 2.319-10.3h1.44c0 2.2 0 4.3-.08 5.7v.5c0 2.1.8 2.5 2.96 2.5h1v3.2zm-.04 5.4c-1.08 0-3.92.1-4.52.1s-3.439 0-4.519-.1c0-.8-.04-1.7-.04-2.6 1.08 0 3.919-.1 4.6-.1.72 0 3.44.1 4.48.1v2.6zm0-17.3s.04 3.3.04 5.8a1.521 1.521 0 01-.64.1c-.64 0-.96-.1-.96-.9v-5h1.56zm-9.079 7.1c0-3.4.04-7.1.04-7.1h1.52a16.328 16.328 0 01-1.56 7.9V19zm3.839-9.7V6.2a.844.844 0 01.2-.7 1.577 1.577 0 00.24-.3h.92c.04.5.08.9.08 1.5 0 .8-.04 1.7-.04 2.6h-1.4zm62.2 25.3c0 .4.32.5 1.64.5 2.16 0 2.28-.3 2.28-.5 0-.1-.04-.2-.04-.3-.24-2.9-.24-4.7-.24-5.6 0-1 0-2.3.2-5.1v-.1a.346.346 0 00-.36-.4h-.12c-2.6.2-6.079.2-8.119.2-2.08 0-6.559 0-8.239-.2h-.24c-.28 0-.359.1-.359.2s.039.2.039.3c.16 2 .16 3 .16 4.9a57.5 57.5 0 01-.279 6v.2c0 .5.2.6 1.919.6 1.92 0 2 0 2-.7 0-.5-.04-.9-.04-1.4 1.16 0 4-.1 4.959-.1s3.759.1 4.879.1c0 .4-.04.9-.04 1.3v.1zm-23.076.3c0 .3.52.4 2.12.4 1.719 0 2.159-.1 2.159-.4-.08-1.6-.12-3.6-.12-5.8 0-5.1.2-11.1.32-15.8a2.384 2.384 0 01.56-1.8 1 1 0 00.36-.7c0-.3-.24-.5-1.44-.9a59.121 59.121 0 002.96-5.7c.24-.6.36-.4.88-.7a1.272 1.272 0 00.76-.8c0-.8-4.04-2.3-4.36-2.3-.24 0-.28.1-.28.3-.24 2.6-4.119 11.5-10.158 16.8a.568.568 0 00-.16.2c0 .1.12.1.36.2a9.315 9.315 0 013.28.9.259.259 0 00.24.1c.719 0 3.359-3.9 3.519-4.2-.16 6.4-.4 14.9-1 20.1v.1zm7.319-27.3c-.44 0-.44.4-.44 1.8 0 1.8.16 1.8.56 1.8 4.679-.4 9.518-.4 10.758-.4 1.2 0 7 0 11.478.4a.487.487 0 00.44-.3c.04-.4.08-1 .08-1.6 0-1.1-.08-1.7-.52-1.7-4.6.4-10.278.4-11.478.4-1.36 0-6.079 0-10.758-.4h-.12zm18.517-1.8c.4 0 .56-.1.56-1.7 0-1.4-.12-1.7-.56-1.7-3.16.2-5.639.2-9.279.2-1.559 0-3.559 0-5.959-.1-.56 0-.6 0-.6 1.7 0 1.5.08 1.6.52 1.6 3.32-.2 5.839-.3 7.719-.3 2.089 0 4.408.1 7.608.3zm-.12 10.4c.44 0 .56 0 .56-1.6 0-1.7-.2-1.7-.56-1.7-3.2.2-5.679.2-7.479.2-1.64 0-4.239 0-7.519-.2-.52 0-.6.2-.6 1.7 0 1.4.12 1.6.52 1.6 3.24-.2 5.759-.3 7.6-.3 2.048 0 4.367.1 7.487.3zm0 4.9c.48 0 .52-.1.52-1.2 0-.6 0-1.3-.04-1.6a.476.476 0 00-.48-.4c-3.2.2-5.679.2-7.479.2-1.64 0-4.239 0-7.519-.2-.48 0-.6.1-.6 1.4 0 1.5 0 1.8.52 1.8 3.24-.2 5.759-.2 7.6-.2 2.048 0 4.367 0 7.487.2zm-2.56 9c-1.12 0-4.039.1-4.919.1s-3.879 0-5-.1v-1.6c0-1.2.04-2.2.04-2.2s3.6-.1 4.959-.1 4.879.1 4.879.1.04 1.2.04 2.1v1.7zm47.8-6.6c-.24-3.4-.36-5.4-.36-7.7 0-2.6.04-4.1.24-7.5a.439.439 0 00-.4-.4h-.079c-2.72.2-8.359.4-12.438.4a22.8 22.8 0 01.4-4.9 13.865 13.865 0 00.8-1.8c0-.9-4.4-1.3-5.159-1.3a.28.28 0 00-.32.3v.2a51.081 51.081 0 01.52 7.5c-3.839 0-9.518-.1-12.158-.3a.42.42 0 00-.44.3c.24 3.6.28 4.6.32 7.5a66.936 66.936 0 01-.44 8.1c0 .4.52.5 2.08.5 1.88 0 2.12-.1 2.12-.5 0-.6-.04-1.2-.04-1.8 1.959 0 5.679-.1 8.478-.1-.08 4.1-.2 8.8-.44 12.8 0 .3.16.5 2.28.5a10.9 10.9 0 001.92-.1.3.3 0 00.36-.3c-.16-3.1-.24-8.4-.28-12.9 3.159 0 7.278.1 8.958.1 0 .6-.04 1-.08 1.5 0 .5.36.5 1.76.5 2.159 0 2.4 0 2.4-.5v-.1zm-13.117-12c3.8 0 9.078.1 9.078.1s.08 2.1.08 4.4c0 .6 0 1.6-.04 2.7-1.6.1-5.879.2-9.078.2 0-1.9-.04-3.5-.04-4.5v-2.9zm-3.68 7.4c-2.839 0-6.679-.1-8.638-.1-.04-1.3-.08-2.3-.08-2.9 0-2.3.04-4.3.04-4.3s5.119-.1 8.718-.1c0 1.2-.04 2.2-.04 2.9v4.5z" fill="#573001" fill-rule="evenodd"/></svg>