<svg xmlns="http://www.w3.org/2000/svg" width="80.265" height="7.2" viewBox="0 0 160.531 14.4"><path data-name="50% menu_label_sub_how_to_cook_sm.svg" d="M-.005 13.8a.412.412 0 00.38.4h1.86a.4.4 0 00.38-.4V8.3h6.521v5.5a.4.4 0 00.38.4h1.84a.412.412 0 00.38-.4V.6a.412.412 0 00-.38-.4H9.519a.4.4 0 00-.38.4v5.3h-6.52V.6a.4.4 0 00-.38-.4H.379a.412.412 0 00-.38.4v13.2zm16.38-6.6A7.192 7.192 0 1023.557 0a7.154 7.154 0 00-7.182 7.2zm2.6 0a4.591 4.591 0 119.182 0 4.591 4.591 0 11-9.182 0zm18.841 6.9a.36.36 0 00.36.3h.32a.355.355 0 00.34-.2l3.541-9.1h.1l3.58 9.1a.355.355 0 00.34.2h.32a.36.36 0 00.361-.3L50.858.7a.358.358 0 00-.36-.5h-1.84a.5.5 0 00-.36.3l-2.041 8h-.08l-3.2-8.3a.334.334 0 00-.34-.2h-.36a.335.335 0 00-.341.2l-3.18 8.3h-.08l-2.081-8a.5.5 0 00-.36-.3h-1.84a.358.358 0 00-.36.5zm25.739-.3a.412.412 0 00.38.4h1.861a.412.412 0 00.38-.4V2.6h3.06a.4.4 0 00.38-.4V.6a.4.4 0 00-.38-.4h-8.742a.4.4 0 00-.38.4v1.6a.4.4 0 00.38.4h3.061v11.2zm9-6.6A7.192 7.192 0 1079.737 0a7.154 7.154 0 00-7.183 7.2zm2.6 0a4.591 4.591 0 119.182 0 4.591 4.591 0 11-9.182 0zm21.8 0a7.188 7.188 0 007.222 7.2 6.915 6.915 0 004.861-1.9.457.457 0 00.02-.6l-1.241-1.2a.283.283 0 00-.5 0 5.259 5.259 0 01-3.06 1.1 4.512 4.512 0 01-4.481-4.6 4.582 4.582 0 014.461-4.7 4.972 4.972 0 013.08 1.2.283.283 0 00.5 0l1.221-1.3a.309.309 0 00-.02-.5 6.89 6.89 0 00-4.841-1.9 7.188 7.188 0 00-7.223 7.2zm15.64 0a7.192 7.192 0 107.182-7.2 7.154 7.154 0 00-7.183 7.2zm2.6 0a4.591 4.591 0 119.182 0 4.591 4.591 0 11-9.182 0zm15.4 0a7.192 7.192 0 107.181-7.2 7.154 7.154 0 00-7.182 7.2zm2.6 0a4.591 4.591 0 119.182 0 4.591 4.591 0 11-9.183 0zm16.4 6.5a.467.467 0 00.48.5h1.76a.479.479 0 00.48-.5V7.6l5.222 6.5a.992.992 0 00.36.1h2.18a.434.434 0 00.36-.7l-5.6-6.7 5.221-5.9a.412.412 0 00-.32-.7h-2a.48.48 0 00-.381.2l-5.041 5.7V.7a.479.479 0 00-.48-.5h-1.76a.467.467 0 00-.48.5v13z" fill="#f2a64b" fill-rule="evenodd"/></svg>