<svg xmlns="http://www.w3.org/2000/svg" width="52.531" height="7.2" viewBox="0 0 105.062 14.4"><path data-name="50% menu_label_sub_toppage_sm.svg" d="M3.438 13.8a.412.412 0 00.38.4h1.863a.412.412 0 00.38-.4V2.6h3.061a.4.4 0 00.38-.4V.6a.4.4 0 00-.38-.4H.381a.4.4 0 00-.38.4v1.6a.4.4 0 00.38.4h3.061v11.2zm9-6.6A7.192 7.192 0 1019.62 0a7.154 7.154 0 00-7.183 7.2zm2.6 0a4.591 4.591 0 119.182 0 4.591 4.591 0 11-9.182 0zm16.4 6.6a.4.4 0 00.38.4h1.84a.412.412 0 00.38-.4V9.1h2.5a4.45 4.45 0 10-.02-8.9h-4.7a.4.4 0 00-.38.4v13.2zm2.6-7.1v-4h2.321a1.963 1.963 0 012.06 1.9 2.066 2.066 0 01-2.06 2.1h-2.321zm17.66 7.1a.4.4 0 00.38.4h1.84a.412.412 0 00.38-.4V9.1h2.5a4.45 4.45 0 10-.02-8.9h-4.7a.4.4 0 00-.38.4v13.2zm2.6-7.1v-4h2.321a1.963 1.963 0 012.06 1.9 2.066 2.066 0 01-2.06 2.1h-2.321zm8.98 7.5h1.74a.6.6 0 00.58-.4l.98-2.1h5.982l.98 2.1a.553.553 0 00.58.4h1.74a.333.333 0 00.34-.5L70.039.2a.355.355 0 00-.34-.2h-.2a.377.377 0 00-.34.2l-6.222 13.5a.333.333 0 00.344.5zm4.28-4.8L69.519 5h.06l2 4.4h-4.021zm11.36-2.2a7.166 7.166 0 007.181 7.2 10.107 10.107 0 004.961-1.3.556.556 0 00.16-.3V7.7a.4.4 0 00-.36-.4h-3.841a.344.344 0 00-.38.4v1.5a.4.4 0 00.38.4h1.6v1.7a5.567 5.567 0 01-2.381.5 4.6 4.6 0 01-.02-9.2 4.793 4.793 0 013.021 1.1.3.3 0 00.52 0l1.24-1.3a.321.321 0 00-.02-.5A7.394 7.394 0 0086.098 0a7.166 7.166 0 00-7.181 7.2zm17.24 6.6a.4.4 0 00.38.4h8.143a.4.4 0 00.38-.4v-1.6a.4.4 0 00-.38-.4h-5.922V8.3h4.941a.352.352 0 00.38-.4V6.3a.412.412 0 00-.38-.4h-4.941V2.6h5.922a.4.4 0 00.38-.4V.6a.4.4 0 00-.38-.4h-8.142a.4.4 0 00-.38.4v13.2z" fill="#f2a64b" fill-rule="evenodd"/></svg>