<svg xmlns="http://www.w3.org/2000/svg" width="51.656" height="7.2" viewBox="0 0 103.312 14.4"><path data-name="50% menu_label_sub_concept_sm.svg" d="M.006 7.2a7.188 7.188 0 007.222 7.2 6.913 6.913 0 004.861-1.9.457.457 0 00.02-.6l-1.24-1.2a.283.283 0 00-.5 0 5.26 5.26 0 01-3.061 1.1 4.512 4.512 0 01-4.481-4.6 4.582 4.582 0 014.461-4.7 4.974 4.974 0 013.081 1.2.283.283 0 00.5 0l1.22-1.3a.309.309 0 00-.02-.5A6.888 6.888 0 007.228 0 7.188 7.188 0 00.006 7.2zm15.64 0A7.192 7.192 0 1022.828 0a7.154 7.154 0 00-7.178 7.2zm2.6 0a4.591 4.591 0 119.182 0 4.591 4.591 0 11-9.178 0zm16.4 6.6a.412.412 0 00.38.4h1.82a.4.4 0 00.38-.4V5.2h.024l8.362 9.2h.48a.33.33 0 00.38-.3V.6a.412.412 0 00-.38-.4H44.25a.4.4 0 00-.38.4v8.3h-.02L35.528 0h-.5a.412.412 0 00-.38.4v13.4zm16.44-6.6a7.187 7.187 0 007.221 7.2 6.913 6.913 0 004.861-1.9.457.457 0 00.02-.6l-1.24-1.2a.283.283 0 00-.5 0 5.262 5.262 0 01-3.061 1.1 4.513 4.513 0 01-4.481-4.6 4.583 4.583 0 014.461-4.7 4.975 4.975 0 013.081 1.2.283.283 0 00.5 0l1.22-1.3a.309.309 0 00-.02-.5A6.887 6.887 0 0058.307 0a7.187 7.187 0 00-7.221 7.2zm16.7 6.6a.4.4 0 00.38.4h8.141a.4.4 0 00.38-.4v-1.6a.4.4 0 00-.38-.4h-5.921V8.3h4.941a.352.352 0 00.38-.4V6.3a.412.412 0 00-.38-.4h-4.941V2.6h5.921a.4.4 0 00.38-.4V.6a.4.4 0 00-.38-.4h-8.141a.4.4 0 00-.38.4v13.2zm13.76 0a.4.4 0 00.38.4h1.84a.412.412 0 00.38-.4V9.1h2.5a4.45 4.45 0 10-.02-8.9h-4.7a.4.4 0 00-.38.4v13.2zm2.6-7.1v-4h2.321a1.963 1.963 0 012.06 1.9 2.066 2.066 0 01-2.06 2.1H84.15zm13.12 7.1a.412.412 0 00.38.4h1.86a.412.412 0 00.38-.4V2.6h3.064a.4.4 0 00.38-.4V.6a.4.4 0 00-.38-.4h-8.742a.4.4 0 00-.38.4v1.6a.4.4 0 00.38.4h3.061v11.2z" fill="#f2a64b" fill-rule="evenodd"/></svg>