<svg xmlns="http://www.w3.org/2000/svg" width="38.938" height="9.545" viewBox="0 0 77.875 19.09"><path id="_50_menu_label_drink_sm.svg" data-name="50% menu_label_drink_sm.svg" d="M340.344 5779.37c-.24-4.2-.24-8.98-.24-8.98a5.361 5.361 0 01-.024-.55c.024 0 .072.02.1.02a28.911 28.911 0 016.024 2.57.123.123 0 00.1.03c.312 0 .961-2.16.961-2.26a.188.188 0 00-.1-.17 32.138 32.138 0 00-6.217-2.13.344.344 0 00-.264.16 8.628 8.628 0 00-.6 1.37c0-1.39 0-4.01.168-5.81.048-.62.72-1.15.72-1.46 0-.22-.24-.29-3.216-.62h-.056a.18.18 0 00-.216.21v.1c.336 2.95.336 8.54.336 8.54s-.024 4.92-.264 9.03a.256.256 0 00.216.29c.264.02.72.04 1.176.04 1.176 0 1.392-.02 1.392-.31v-.07zm9.553-15.63c0-.48-2.76-2.56-3.024-2.56a2.657 2.657 0 00-1.153 1.05.152.152 0 00.072.15 24.875 24.875 0 012.641 2.44.289.289 0 00.216.15 2.655 2.655 0 001.251-1.23zm-3.745 3a2.58 2.58 0 001.225-1.24c0-.41-2.809-2.55-3.025-2.55a3.265 3.265 0 00-1.152 1.03.152.152 0 00.072.15 24.415 24.415 0 012.664 2.47.273.273 0 00.216.14zm18.259-5.44a17.819 17.819 0 01.192 2.32c0 .94.048 1.95.048 3.12 0 3.12-.24 9.44-6.552 11.84a.405.405 0 00-.24.14.4.4 0 00.288.19 12.2 12.2 0 012.5 1.11.466.466 0 00.264.07.5.5 0 00.288-.07c5.209-3.53 5.905-9.22 5.905-12.15 0-.24-.024-.45-.024-.67-.024-.86-.048-1.8-.048-2.45a3.526 3.526 0 01.408-2.16 1.539 1.539 0 00.312-.72.342.342 0 00-.312-.33 15.312 15.312 0 00-2.809-.51c-.168 0-.216.05-.216.17v.1zm-6.312 10.65c0 .24.264.27 1.368.27 1.224 0 1.344-.08 1.344-.24a57.807 57.807 0 01-.24-6.08 8.6 8.6 0 01.264-2.61 5.219 5.219 0 00.408-1.15.3.3 0 00-.264-.29 16 16 0 00-2.88-.48c-.072 0-.1.02-.1.09a.426.426 0 00.024.15 24.926 24.926 0 01.336 5.13 49.707 49.707 0 01-.264 5.16v.05zm23.225-2.93a6.045 6.045 0 001.44-2.23c0-.45-4.753-2.95-5.233-2.95a4.694 4.694 0 00-1.344 1.8.241.241 0 00.168.17 25.535 25.535 0 014.825 3.14.2.2 0 00.144.07zm11.065.99a.468.468 0 00.192-.36.4.4 0 00-.072-.22 6.808 6.808 0 01-.648-2.09c-.024-.19-.048-.28-.1-.28a.366.366 0 00-.216.14 37.442 37.442 0 01-12.529 8.28 14.747 14.747 0 01-2.809.77.26.26 0 00-.288.19c0 .36 1.8 2.38 2.4 2.38a7.6 7.6 0 001.272-.7 51.742 51.742 0 0012.798-8.11zm16.209-5.86l.168-.19a3.08 3.08 0 01.792-.7 1 1 0 00.576-.57c0-.43-2.448-1.68-2.784-1.68a.2.2 0 00-.192.19c-.841 2.71-4.441 7.18-8.137 9.26a.182.182 0 00-.1.15.231.231 0 00.144.17 9.59 9.59 0 011.68.86.582.582 0 00.312.07c.672 0 3.192-2.04 6.025-5.61 1.56-.03 3.672-.08 4.392-.08.144 0 .216.03.216.12 0 .15-4.152 8.77-12.913 11.48a.358.358 0 00-.288.19.419.419 0 00.24.22 9 9 0 012.04 1.29.307.307 0 00.216.1c.1 0 7.345-1.87 13.489-13.04a9.819 9.819 0 00.888-1.08c0-.36-1.872-1.53-2.112-1.53a.988.988 0 00-.336.12 12.874 12.874 0 01-3.5.26h-.814z" transform="translate(-337.5 -5761)" fill="#603700" fill-rule="evenodd"/></svg>