<svg xmlns="http://www.w3.org/2000/svg" width="27.359" height="220.86" viewBox="0 0 54.718 441.72"><path data-name="50% menu_heading.svg" d="M17.149 35.76c-.3 0-.42.06-.42.3a.652.652 0 00.06.3 28.561 28.561 0 011.26 3.84c.12.78.48 1.74 4.62 1.74 3.9 0 7.14-1.8 9.72-6.06 2.1-3.54 2.759-10.5 2.759-15.12 0-4.2-.3-9.12-6.419-9.12h-.24c-1.62 0-3.36.12-5.22.3.6-2.34 1.2-4.68 1.62-6.9.3-1.44 1.56-2.16 1.56-2.76 0-1.32-7.14-2.28-7.26-2.28-.24 0-.3.12-.3.84a53.929 53.929 0 01-1.44 11.82c-4.38.6-8.34 1.2-10.319 1.2h-.48a.494.494 0 00-.6.6 14.3 14.3 0 001.44 4.44 1.08 1.08 0 001.14.54c1.559-.12 4.2-.72 7.319-1.38-2.64 8.1-6.84 15.6-11.879 20.58a.519.519 0 00-.18.36c0 1.08 5.279 2.7 5.879 2.7a.635.635 0 00.54-.3c4.92-6.6 8.82-15.48 11.52-24.36 1.56-.18 3.84-.36 4.68-.36 1.8 0 2.94.06 2.94 5.22 0 13.5-5.46 14.1-8.52 14.1a26.9 26.9 0 01-3.54-.24h-.24zm20.763-23.28a1.505 1.505 0 00-.3.48.476.476 0 00.3.42c1.86 1.26 8.28 6.54 11.28 12.6a.68.68 0 00.54.42c.9 0 4.98-3.3 4.98-4.08 0-2.1-11.76-12.6-13.44-12.6a.935.935 0 00-.6.36zm-20.819 88.98c-.3 0-.48.06-.48.3a1.182 1.182 0 00.24.48 14.444 14.444 0 012.28 3.54c.42 1.02 1.08 1.08 3.66 1.08 7.38 0 12.839-4.8 12.839-10.86 0-2.82-1.2-5.88-3.959-8.88-1.5-1.62-3.48-3.54-4.8-4.92a3.552 3.552 0 01-1.02-2.46 4.14 4.14 0 011.32-2.88.648.648 0 00.18-.42.505.505 0 00-.42-.42 41.363 41.363 0 00-4.98-1.2c-.66 0-2.34 2.28-2.34 4.92a8.155 8.155 0 002.64 5.64c1.5 1.56 3.36 3.18 4.68 4.86a9.554 9.554 0 012.4 5.7c0 3.36-3.18 5.7-9.18 5.7a24.714 24.714 0 01-2.88-.18h-.18zM37.732 85.5c5.94 3.9 9.24 8.04 10.92 11.34a.424.424 0 00.42.3c1.02 0 5.46-3.24 5.46-3.78 0-.84-4.5-6.72-12.18-11.34a.506.506 0 00-.42-.12c-.84 0-4.5 2.82-4.5 3.12a.718.718 0 00.296.48zm-19.739 7.44a.541.541 0 00-.06-.3 24.334 24.334 0 01-1.32-4.38c-.06-.36-.12-.48-.24-.48a.928.928 0 00-.36.18 59.871 59.871 0 01-15.359 7.8.832.832 0 00-.66.42s4.32 5.52 5.16 5.52c.72 0 1.32-1.08 2.04-1.56 10.018-6 10.795-6.66 10.795-7.2zm13.86-20.52c.48-.36 3.179-3.78 3.179-4.68 0-1.32-12.719-5.04-14.759-5.04-.66 0-3.12 3.66-3.12 4.08a.465.465 0 00.48.42 44.1 44.1 0 0113.32 5.34.853.853 0 00.36.12 1.078 1.078 0 00.536-.24zm7.439 61.32c.48 0 2.4-3.66 2.4-4.74 0-1.5-11.4-3.18-11.819-3.18-.96 0-2.28 3.54-2.28 4.26 0 .36.3.36.72.42 5.1.78 8.819 2.04 10.5 3.06a1.2 1.2 0 00.475.18zm-9.419 29.34c.6 0 14.459-3.48 14.459-16.14 0-4.62-1.44-11.34-9.12-11.34-2.279 0-3.839.3-9.239 2.28a14.246 14.246 0 01-3.3.78c-.48.06-.72.18-.72.48 0 .84 3 4.62 3.96 4.62a.721.721 0 00.48-.12c.96-.48 1.92-1.14 2.94-1.62 3.54-1.68 5.279-1.68 5.519-1.68 1.32 0 4.2.48 4.2 6.36 0 6.48-5.7 10.56-12.6 12.24-.42.12-.66.18-.66.42a1.112 1.112 0 00.48.66 18.749 18.749 0 012.76 2.58.958.958 0 00.837.48zm-1.62 58.2c15.179-1.56 21.3-10.44 21.3-18.9 0-11.04-9.72-18.06-21.419-18.06-13.26 0-23.459 9.3-23.459 20.88 0 8.88 6.239 13.08 9.239 13.08a4.137 4.137 0 003.48-2.1c6.42-9.48 12.72-24.6 13.38-26.04a1 1 0 01.96-.78h.18c7.439 1.62 11.519 7.14 11.519 12.66 0 6.96-6.48 13.98-20.279 14.28-.36 0-.66.06-.66.3a1.153 1.153 0 00.42.6 14.183 14.183 0 012.88 3.06 2.176 2.176 0 002.04 1.02h.42zm-3.72-31.98c-1.02 2.94-5.88 14.7-10.56 21.36a1.022 1.022 0 01-.78.48c-1.5 0-3-3.48-3-6.24-.004-6.9 6.176-14.1 14.336-15.6zm5.46 76.08a60.064 60.064 0 017.559 6.72.519.519 0 00.36.18c.66 0 4.44-3.96 4.44-4.68 0-.66-3.54-3.6-8.88-7.26a94.014 94.014 0 005.04-9 7.279 7.279 0 012.22-3.12c.6-.48 1.68-1.02 1.68-1.68 0-1.56-7.2-4.02-7.74-4.02-.24 0-.24.18-.3.54-.18 1.44-.78 5.4-5.879 14.04-5.4-3.24-9.12-4.98-9.66-4.98-.72 0-3.6 2.94-3.6 3.42a.562.562 0 00.3.54 88.47 88.47 0 019.78 5.88c-4.92 6.9-11.58 13.32-20.1 16.98a1.011 1.011 0 00-.6.36.9.9 0 00.72.42 19.2 19.2 0 015.459 2.88.9.9 0 00.66.24c1.317 0 10.077-5.94 18.537-17.46zm17.219 67.44a.6.6 0 00.72-.54c.06-.54.06-1.68.06-2.82s0-2.34-.06-2.88a.68.68 0 00-.72-.66h-.12c-10.02.66-14.219.66-19.859.66-5.58 0-9.3 0-19.559-.66h-.3c-.66 0-.78.12-.78 3 0 1.26 0 2.64.06 3.24 0 .36.18.66.84.66h.18c8.819-.6 12.359-.6 19.559-.6 5.58 0 10.079 0 19.859.6h.12zm-35.159-27.9c-.6 0-.6.48-.6 3.18 0 1.02.06 2.1.06 2.76a.636.636 0 00.78.54c6.48-.54 9.66-.6 14.94-.6 4.44 0 7.319 0 15.179.6a.605.605 0 00.66-.42c.06-.6.12-1.74.12-2.82 0-3.12-.24-3.24-.78-3.24-7.26.6-13.019.6-16.919.6-3.12 0-6.24-.06-13.2-.6h-.24zm37.979 70.5c.48 0 .6-.12.6-2.58 0-2.76-.18-2.88-.72-2.88h-.12c-2.7.18-5.52.3-8.4.42 1.44-11.34 1.86-14.16 1.98-15v-.18a1.228 1.228 0 00-1.26-1.08h-.12c-4.56.3-5.34.36-9.9.36-1.98 0-4.14-.06-8.64-.36h-.36c-.54 0-.54 0-.54 4.56a.6.6 0 00.66.72h.24c4.74-.36 6.78-.36 10.379-.36 1.14 0 2.22 0 3.36.06.18 0 .18.06.18.24-.12 1.8-.36 3.72-.54 5.34-.24 2.1-.6 4.02-.84 5.82-.78 0-1.5.06-2.28.06h-1.919a137 137 0 01-14.1-.66h-.24c-.54 0-.66 0-.66 3.24 0 2.04 0 2.46.6 2.46h.18c5.04-.36 10.56-.6 16.079-.6 5.58 0 11.1.12 16.2.42h.18zm-19.32 65.04c-.54-5.52-.6-12.72-.6-15.84v-12.41c0-1.14 0-5.76.12-7.92.06-1.8 1.92-3.06 1.92-4.02 0-1.68-6.9-1.98-7.5-1.98-.66 0-.84 0-.84.36a2.067 2.067 0 00.06.54 109.945 109.945 0 01.66 13.02v12.41c0 2.28-.18 10.5-.6 15.72 0 .18-.06.36-.06.48 0 .66.06.9 3.54.9 3 0 3.3-.18 3.3-.9v-.36z" fill="#573001" fill-rule="evenodd"/></svg>