<svg xmlns="http://www.w3.org/2000/svg" width="111.219" height="18.15" viewBox="0 0 222.438 36.3"><path data-name="50% menu_label_access_sm.svg" d="M2.601 10.4c5.639-.6 20.037-.8 20.876-.8a.354.354 0 01.4.2 28.6 28.6 0 01-7.079 7.5.325.325 0 000 .6 6.646 6.646 0 012.28 1.4.534.534 0 00.96 0 37.173 37.173 0 008.639-9.4c.64-.8 1.64-1 1.64-1.6 0-.7-3-3-3.36-3a1.254 1.254 0 00-.56.3c-.6.3-3.759.7-13.077.7-3.639 0-7.279-.1-10.918-.4h-.12c-.44 0-.48.4-.48 1.3 0 2.5.08 3.2.68 3.2h.12zm9.118 3c0 9-6.159 15.5-11.4 18.2a.468.468 0 00-.32.3.439.439 0 00.32.4A14.011 14.011 0 014.158 34a1.42 1.42 0 00.6.2c.92 0 9.078-6.8 11.078-17.7a2.244 2.244 0 011.08-1.6 1.788 1.788 0 00.84-1.2.8.8 0 00-.72-.6 27.383 27.383 0 00-4.959-.9c-.36 0-.36.1-.36.4v.8zm39.08-4.9l.279-.3a3.536 3.536 0 011.32-1.1 2.043 2.043 0 00.96-1c0-.7-4.079-2.8-4.639-2.8a.353.353 0 00-.32.3c-1.4 4.5-7.4 12-13.558 15.5a.169.169 0 00-.16.2.4.4 0 00.24.3 12.136 12.136 0 012.8 1.4.841.841 0 00.52.1c1.119 0 5.319-3.4 10.038-9.3 2.6-.1 6.119-.1 7.319-.1.24 0 .36 0 .36.2S49.039 26.5 34.441 31a.682.682 0 00-.48.3.762.762 0 00.4.4 14.563 14.563 0 013.4 2.1.658.658 0 00.36.2c.16 0 12.238-3.1 22.476-21.7.52-1 1.48-1.4 1.48-1.8 0-.6-3.12-2.6-3.52-2.6a2.126 2.126 0 00-.56.2c-.6.4-3.2.4-5.839.4h-1.359zm44.758 19.7c0-.1-.04-.1-.12-.1h-.12a61.825 61.825 0 01-9.318.8c-4.8 0-4.919-1.4-4.919-3.5 0-1.7.08-4.3.2-6.8l9.878-2.7h.52c0 .4-1.6 3.4-5.359 7.3a.379.379 0 00-.16.3.23.23 0 00.28.2 15.057 15.057 0 012.959.6 1.438 1.438 0 00.48.2c.24 0 1.92-1.2 6.519-9.6.48-.8 1.24-1.2 1.24-1.6 0-.6-2.88-2.2-3.679-2.2a.928.928 0 00-.52.4c-.68.6-8.279 2.6-12.038 3.6.16-4.6.2-5 .76-5.7a2.985 2.985 0 00.919-1.4c0-1-4.719-1.7-5.559-1.7-.24 0-.32.1-.32.2s.04.2.04.3a37.05 37.05 0 01.28 4.7c0 1 0 2.7-.04 4.6-3.039.7-6.079 1.4-9.2 1.9a.3.3 0 00-.32.3c0 .3.76 3.8 1.68 3.8h.28c1.719-.6 4.839-1.6 7.478-2.4-.08 2.8-.16 5.6-.24 7.1v.4c0 5.5 5.24 5.5 10.079 5.5a57.6 57.6 0 006.959-.4.591.591 0 00.559-.5c.12-1.1.72-2.9.8-3.5v-.1zm14.965-14.8c4.159-.4 13.2-.5 13.517-.5.08 0 .12 0 .12.1a35.766 35.766 0 01-19.556 16.7.3.3 0 00-.04.6c1 .4 3 1.3 3.519 2.1a.555.555 0 00.4.2c.44 0 6.8-2.9 12.718-9.3 2.879 1.8 7.958 5.3 11.078 8.8a.3.3 0 00.32.2c.4 0 3.039-2.6 3.039-3.1 0-.7-6.2-5.5-12-8.7a73.7 73.7 0 005.4-7.7c.56-.9 1.56-1 1.56-1.5 0-.8-2.679-2.7-3.2-2.7a1.471 1.471 0 00-.48.3c-1.12.6-8.879.6-10.238.6a56.064 56.064 0 01-6.359-.2h-.08c-.24 0-.36.2-.36 1.6 0 2.2.24 2.5.6 2.5h.04zm60.717 18.1c0 .9-.64 1.2-1.84 1.2-.68 0-1.56-.1-2.56-.2-.08 0-.16-.1-.24-.1a.156.156 0 00-.12.1.171.171 0 00.12.2c.84 1 2.12 2.3 2.28 3.1a.588.588 0 00.52.5c4.439-.2 5.439-2 5.439-4.3 0-2.2-.28-3.3-.28-6.5a77.4 77.4 0 01.24-8v-.2c0-.2-.08-.3-.36-.3h-.12c-2.44.1-5.8.2-7.719.2-2 0-5.079-.1-7.318-.2h-.24c-.28 0-.32.1-.32.2v.3c.24 2.9.24 6.6.24 7.8a94.309 94.309 0 01-.44 10.4v.1c0 .2.12.4 1.919.4.6 0 1.88 0 1.88-.4-.04-2.3-.12-3.5-.12-6.7h4.359c.88 0 3.44 0 4.68.1v2.3zm-3.04-20.6a55 55 0 016.279.3c.32 0 .44-.1.44-1.3a12.071 12.071 0 00-.04-1.3.373.373 0 00-.4-.3c-3.039.2-4.719.3-6.279.3V6.7c2.32 0 4.919.1 9 .4a.36.36 0 00.36-.3 10.7 10.7 0 00.08-1.3c0-1.5-.08-1.6-.48-1.6-4.2.3-6.559.4-8.919.4a2.639 2.639 0 01.48-1.9 2.379 2.379 0 00.64-1.1c0-.7-3.719-1.3-4.639-1.3-.2 0-.32 0-.32.2 0 .1.04.1.04.2a19.707 19.707 0 01.44 3.9c-1.88 0-3.88-.1-8-.4-.48 0-.48 0-.48 1.7 0 1.3.08 1.5.48 1.5 4.159-.3 6.119-.4 8.039-.4v1.9c-1.36 0-2.96-.1-5.959-.3-.36 0-.48 0-.48 1.4 0 .4.04.9.04 1.2a.5.5 0 00.48.3 51.358 51.358 0 015.919-.3v2c-2.44-.1-6.039-.2-8.079-.3-.36-2.3-1.72-5.1-1.96-5.1a.554.554 0 01-.16.1s-2.439.3-2.439.7l.08.2a20.387 20.387 0 011.4 5.2.29.29 0 00.279.3h.08l1.08-.3c0 .5 0 1.2.04 1.7a.358.358 0 00.44.3c2.4 0 8.2-.3 10.838-.3 2.88 0 6.479 0 11.678.3a.488.488 0 00.4-.2c.04-.4.08-.9.08-1.4 0-1.5-.16-1.6-.52-1.6-4.359.3-7.318.4-9.958.4v-2zm-20.356 24.4c0 .3.08.4 2.4.4 2 0 2.08-.2 2.08-.4-.36-4.9-.52-16.3-.52-22.2a65.605 65.605 0 01.4-9.3 16.2 16.2 0 00.6-1.9.439.439 0 00-.4-.4 23.961 23.961 0 00-4.28-.7c-.119 0-.159 0-.159.1a.62.62 0 00.04.2 74.188 74.188 0 01.479 10.2c0 2.3-.04 4.2-.04 5.1 0 3.3-.04 12.4-.599 18.9zm-2.08-17.6c.48 0 .96-2.6 1.48-6.3a1.806 1.806 0 01.36-1.1 2.1 2.1 0 00.519-.9c0-.6-3.6-.9-3.919-.9-.12 0-.16 0-.16.1s.04.2.04.3c0 .2.04.5.04.7a17.788 17.788 0 01-2 7.7c-.04 0-.04 0-.04.1a.354.354 0 00.4.2c.24 0 .68-.1 1.12-.1a11.335 11.335 0 012.04.2h.12zm25.436 8.8c-1.28 0-3.88.1-4.64.1-.64 0-2.839 0-4.359-.1v-2c1.36-.1 3.56-.1 4.359-.1.88 0 3.4.1 4.64.1v2zm-.04-4.7c-1.32 0-3.88.1-4.64.1-.679 0-2.839 0-4.239-.1.04-1.1.04-2 .04-2h8.8zm37.72 12.9a5.264 5.264 0 011.8.8.259.259 0 00.24.1c.16 0 1.48-1 3.4-4.1a17.518 17.518 0 004.319 3.7.329.329 0 00.28.1.294.294 0 00.28-.1 16.821 16.821 0 013.039-2.1.505.505 0 00.2-.3.169.169 0 00-.16-.2 14.667 14.667 0 01-6.239-4.5 43.829 43.829 0 003.04-10.9 2.55 2.55 0 01.44-1.3 1.316 1.316 0 00.4-.6c0-.4-1.96-1.6-2.28-1.6a3.319 3.319 0 01-1 .3s-2.959.1-4.4.1h-3.719c0-3.2.04-8.1.04-8.1s1.959-.1 3.239-.1 3.639.1 3.639.1a12.435 12.435 0 01-.12 1.7c-.2 1.2-.44 1.6-1.319 1.6a10.621 10.621 0 01-2.08-.3h-.24c-.08 0-.12 0-.12.1a.886.886 0 00.12.2 9.166 9.166 0 011.72 3 .628.628 0 00.52.5c3.559-.1 4.719-1.7 5-4.3.16-1.6.08-2.8.28-5.2v-.2a.377.377 0 00-.4-.4h-.08c-2.96.2-4.919.2-6.839.2a54.855 54.855 0 01-6.559-.3h-.2c-.28 0-.36.1-.36.3a2.174 2.174 0 01.04.3c.16 1.6.4 5.3.4 19.3 0 4.6-.04 8.3-.32 13.2a.334.334 0 00.36.3h3.2a.449.449 0 00.479-.4zm-6.158-5.8c.319 0 .4-.3.4-1.5 0-.7 0-1.3-.04-1.6a.416.416 0 00-.439-.4c-2.36.3-3.72.3-5.32.4v-1.9a1.218 1.218 0 01.28-.9.767.767 0 00.32-.5v-.1c1.24.1 2.28.1 5.8.4a.4.4 0 00.4-.3 12.634 12.634 0 00.08-1.4c0-1.6-.16-1.8-.52-1.8l-4.479.3c.84-1.4 1.28-2.4 1.6-2.8.36-.5 1.12-.8 1.12-1.1 0-.7-3.88-1.8-4.04-1.8-.24 0-.2.2-.24.4a17.983 17.983 0 01-1.559 5.4h-.16a26.217 26.217 0 01-2.88-.1c1.8-.9 1.92-.9 1.92-1.2 0-.7-2.4-4.4-2.84-4.4-.04 0-.08.1-.12.1 0 0-1.919.7-2.319.9-.2.1-.24.1-.24.2a.556.556 0 00.16.3 18.285 18.285 0 012 4.1c-1.079-.1-2.439-.1-4.439-.3h-.16c-.28 0-.32.2-.32 1.8 0 1.5.04 1.7.48 1.7 3.76-.3 5.279-.4 6.8-.4v3.4c-1.52-.1-3.319-.2-5.6-.4-.44 0-.52.3-.52 1.7s0 1.8.52 1.8c2.24-.2 4.079-.3 5.6-.4-.04 1.7-.12 3.4-.36 7 0 .3.04.5 1.92.5 1.519 0 2.2 0 2.2-.5-.24-3.6-.32-5.3-.36-7a39.111 39.111 0 015.28.4h.08zm-.44-20.8c.28 0 .36-.2.36-1.6 0-.6 0-1.2-.04-1.5a.385.385 0 00-.4-.4c-2.28.3-3.44.3-4.88.4a3.354 3.354 0 01.52-2.2 7.42 7.42 0 00.6-1.1c0-.6-3.639-1.3-4.719-1.3-.2 0-.32 0-.32.2a.62.62 0 01.04.2 25.482 25.482 0 01.52 4.1c-1.32 0-2.8-.1-4.959-.3-.4 0-.52 0-.52 1.5 0 1.9 0 1.9.52 1.9 2.159-.1 3.679-.3 5.039-.3v3.1c-1.52 0-3.039-.1-6.879-.4h-.16c-.28 0-.32.2-.32 1.8 0 1.5.04 1.7.48 1.7a87.542 87.542 0 018.759-.4 68.452 68.452 0 017.8.4.4.4 0 00.4-.3 12.634 12.634 0 00.08-1.4c0-1.1-.04-1.8-.52-1.8a48.663 48.663 0 01-5.319.3c-.32 0-.68.1-1.08.1V7.7a35.045 35.045 0 014.92.4h.08zm9.718 9.6c-.12 0-2.6.1-2.6.6a29.5 29.5 0 002.92 10.1 20.536 20.536 0 01-3.519 4.5c-.24-6.3-.28-9.8-.28-15.9h3.879c1.28 0 2-.1 3.279-.1a31.492 31.492 0 01-1.679 7.8 22.035 22.035 0 01-1.56-6.7.251.251 0 00-.28-.3h-.16z" fill="#573001" fill-rule="evenodd"/></svg>