<svg xmlns="http://www.w3.org/2000/svg" width="75.063" height="7.205" viewBox="0 0 150.125 14.41"><path id="_50_sns_sub_heading_sm.svg" data-name="50% sns_sub_heading_sm.svg" d="M74.1 8566.34a7.192 7.192 0 107.182-7.22 7.137 7.137 0 00-7.182 7.22zm2.6 0a4.591 4.591 0 114.581 4.58 4.627 4.627 0 01-4.581-4.58zm16.4 6.6a.38.38 0 00.38.38h1.84a.393.393 0 00.38-.38v-5.06h4.941a.393.393 0 00.38-.38v-1.64a.393.393 0 00-.38-.38H95.7v-3.76h5.921a.38.38 0 00.38-.38v-1.64a.38.38 0 00-.38-.38h-8.143a.38.38 0 00-.38.38v13.24zm13.28 0a.38.38 0 00.38.38h1.84a.393.393 0 00.38-.38v-5.06h4.941a.393.393 0 00.38-.38v-1.64a.393.393 0 00-.38-.38h-4.941v-3.76h5.92a.38.38 0 00.38-.38v-1.64a.38.38 0 00-.38-.38h-8.142a.38.38 0 00-.38.38v13.24zm13.28 0a.393.393 0 00.38.38h1.86a.394.394 0 00.381-.38v-13.24a.394.394 0 00-.381-.38h-1.86a.393.393 0 00-.38.38v13.24zm7.24-6.6a7.17 7.17 0 007.221 7.18 6.867 6.867 0 004.861-1.94.381.381 0 00.02-.54l-1.24-1.28a.368.368 0 00-.5 0 4.8 4.8 0 01-3.061 1.14 4.643 4.643 0 01-.02-9.28 4.734 4.734 0 013.081 1.18.32.32 0 00.5 0l1.22-1.26a.372.372 0 00-.02-.56 6.771 6.771 0 00-4.841-1.86 7.2 7.2 0 00-7.221 7.22zm16.7 6.6a.393.393 0 00.38.38h1.86a.393.393 0 00.38-.38v-13.24a.393.393 0 00-.38-.38h-1.86a.393.393 0 00-.38.38v13.24zm6.779.38h1.74a.6.6 0 00.58-.4l.981-2.16h5.981l.98 2.16a.575.575 0 00.58.4h1.741a.353.353 0 00.34-.52l-6.162-13.46a.34.34 0 00-.34-.22h-.2a.359.359 0 00-.34.22l-6.221 13.46a.353.353 0 00.338.52zm4.281-4.78l1.96-4.4h.06l2 4.4h-4.021zm12.459 4.4a.38.38 0 00.38.38h7.322a.38.38 0 00.38-.38v-1.64a.38.38 0 00-.38-.38h-5.1v-11.22a.393.393 0 00-.38-.38H167.5a.38.38 0 00-.38.38v13.24zm17.8-.98a6.435 6.435 0 004.4 1.56c2.82 0 4.6-1.9 4.6-3.96 0-2.58-2.241-3.74-4.181-4.52-1.621-.66-2.361-1.3-2.361-2.24a1.593 1.593 0 011.761-1.4 6.58 6.58 0 012.78 1.1.526.526 0 00.7-.24l.76-1.14a.493.493 0 00-.12-.66 7.041 7.041 0 00-4-1.34c-3.181 0-4.5 2.06-4.5 3.84 0 2.36 1.88 3.56 3.76 4.32 1.681.68 2.541 1.38 2.541 2.4a1.67 1.67 0 01-1.82 1.54 6.623 6.623 0 01-3.021-1.24.463.463 0 00-.68.14l-.72 1.24a.4.4 0 00.099.6zm13.56.98a.393.393 0 00.38.38h1.82a.38.38 0 00.38-.38v-8.6h.02l8.362 9.18h.48a.376.376 0 00.38-.36v-13.46a.393.393 0 00-.38-.38h-1.84a.38.38 0 00-.38.38v8.26h-.02l-8.322-8.84h-.5a.376.376 0 00-.38.36v13.46zm16.739-.98a6.44 6.44 0 004.4 1.56c2.821 0 4.6-1.9 4.6-3.96 0-2.58-2.24-3.74-4.181-4.52-1.62-.66-2.36-1.3-2.36-2.24a1.593 1.593 0 011.76-1.4 6.579 6.579 0 012.781 1.1.526.526 0 00.7-.24l.76-1.14a.5.5 0 00-.12-.66 7.042 7.042 0 00-4-1.34c-3.18 0-4.5 2.06-4.5 3.84 0 2.36 1.881 3.56 3.761 4.32 1.681.68 2.541 1.38 2.541 2.4a1.67 1.67 0 01-1.821 1.54 6.623 6.623 0 01-3.02-1.24.463.463 0 00-.68.14l-.721 1.24a.4.4 0 00.098.6z" transform="translate(-74.094 -8559.12)" fill="#f0af49" fill-rule="evenodd"/></svg>