<svg xmlns="http://www.w3.org/2000/svg" width="194.469" height="64.515" viewBox="0 0 388.937 129.03"><path data-name="50% sns_heading_sm.svg" d="M39.362 21c6.42 5.94 11.04 8.34 11.34 8.34a.938.938 0 00.72-.36c1.32-1.68 4.2-3.3 5.4-4.08a1.35 1.35 0 00.6-.48c0-.18-.24-.18-.6-.3A52.071 52.071 0 0132.103 4.8c.06 0 .12-.06.18-.06.72-.24 1.62-.72 1.62-1.26 0-.96-4.92-3-6.42-3.42a.541.541 0 00-.3-.06c-.24 0-.3.24-.36.54-.84 4.5-11.82 19.44-26.219 25.8a.828.828 0 00-.6.36.841.841 0 00.6.42c1.32.54 4.5 2.22 5.7 3.66a.519.519 0 00.36.18c.78 0 6.9-4.74 11.639-9.48 0 .48-.06 1.32-.06 2.16 0 2.28.12 2.58.66 2.58a82.531 82.531 0 0110.2-.48 91.986 91.986 0 019.72.48.513.513 0 00.539-.42c.06-.48.06-1.44.06-2.34 0-.96 0-1.86-.06-2.34V21zm-9.659 15.12c2.28 0 5.7.12 5.7.12a78.538 78.538 0 01-4.44 15.36c0 .06-.06.12-.06.18 0 1.08 5.1 1.38 5.88 1.38a.808.808 0 00.96-.54c1.619-7.56 3-11.4 4.259-16.74a3.974 3.974 0 01.9-1.32 1.272 1.272 0 00.48-.72c0-.66-4.2-3.48-4.619-3.48a10 10 0 00-1.2.48c-3 .3-9.3.3-9.84.3-2.1 0-6.72-.06-14.159-.6a.594.594 0 00-.72.6v1.32c0 3.84 0 4.26.6 4.26 9.3-.42 13.74-.6 15.24-.6h1.02zM28.803 9a67.8 67.8 0 0010.02 11.52 34.847 34.847 0 01-6.18.54c-1.26 0-2.28-.06-3.54-.06a78.546 78.546 0 01-9.9-.48A92.647 92.647 0 0028.803 9zm75.06 41.94c-.78-11.4-.78-19.26-.78-23.16 0-4.26.06-9.72.48-21.06 0-.54-.12-.72-.48-.72h-.18c-4.08.24-7.74.48-15.36.48-5.639 0-10.559-.06-15.779-.42-.6 0-.6.06-.6.36v.12c.54 9.06.6 13.86.6 24.66 0 4.44-.12 11.64-.96 20.1v.12c0 .78.66.96 3.36.96 2.82 0 3.48 0 3.48-1.08-.06-1.02-.06-2.04-.06-3 2.34-.06 6.3-.12 10.019-.12 4.02 0 7.74.06 9.6.12l-.12 2.82c0 .72.24.9 2.82.9 1.14 0 2.4 0 3.24-.06a.675.675 0 00.72-.84v-.18zm-6.36-21.84c0 9.66 0 10.26-.12 13.98-1.8.06-5.7.12-9.84.12-3.779 0-7.859-.06-10.139-.12 0-.72-.06-2.88-.06-14.04 2.28-.06 6.42-.12 10.259-.12 4.26 0 8.16.12 9.9.18zm0-5.16c-1.74.06-5.7.18-9.96.18-3.839 0-7.919-.06-10.2-.12 0-7.44.12-12.48.12-12.48s4.74-.12 10.079-.12 9.84.12 9.84.12.121 4.98.121 12.42zm47.7 24.96c15.18-1.56 21.3-10.44 21.3-18.9 0-11.04-9.719-18.06-21.419-18.06-13.259 0-23.459 9.3-23.459 20.88 0 8.88 6.24 13.08 9.24 13.08a4.137 4.137 0 003.48-2.1c6.419-9.48 12.719-24.6 13.379-26.04a1 1 0 01.96-.78h.18c7.44 1.62 11.52 7.14 11.52 12.66 0 6.96-6.48 13.98-20.28 14.28-.36 0-.66.06-.66.3a1.153 1.153 0 00.42.6 14.183 14.183 0 012.88 3.06 2.176 2.176 0 002.04 1.02h.42zm-3.72-31.98c-1.02 2.94-5.879 14.7-10.559 21.36a1.022 1.022 0 01-.78.48c-1.5 0-3-3.48-3-6.24 0-6.9 6.18-14.1 14.339-15.6zm75.78 34.02c-.78-11.4-.78-19.26-.78-23.16 0-4.26.06-9.72.48-21.06 0-.54-.12-.72-.48-.72h-.18c-4.08.24-7.74.48-15.359.48-5.64 0-10.56-.06-15.78-.42-.6 0-.6.06-.6.36v.12c.54 9.06.6 13.86.6 24.66 0 4.44-.12 11.64-.96 20.1v.12c0 .78.66.96 3.36.96 2.82 0 3.48 0 3.48-1.08-.06-1.02-.06-2.04-.06-3 2.34-.06 6.3-.12 10.02-.12 4.02 0 7.739.06 9.6.12l-.12 2.82c0 .72.24.9 2.82.9 1.14 0 2.4 0 3.24-.06a.675.675 0 00.72-.84v-.18zm-6.36-21.84c0 9.66 0 10.26-.12 13.98-1.8.06-5.7.12-9.839.12-3.78 0-7.86-.06-10.14-.12 0-.72-.06-2.88-.06-14.04 2.28-.06 6.42-.12 10.26-.12 4.26 0 8.159.12 9.899.18zm0-5.16c-1.74.06-5.7.18-9.959.18-3.84 0-7.92-.06-10.2-.12 0-7.44.12-12.48.12-12.48s4.74-.12 10.08-.12 9.839.12 9.839.12.12 4.98.12 12.42zm57.48 28.32c0 .54.24.72 2.34.72 2.28 0 3.48-.06 3.48-.78 0-.18-.06-.36-.06-.6-.3-3.78-.36-8.76-.36-13.98 0-1.5 0-3.42.24-6.18v-.24a.4.4 0 00-.48-.48h-.24c-3.9.24-10.92.3-13.98.3-3.179 0-11.459-.12-13.979-.3h-.48c-.42 0-.54.06-.54.42v.3c.3 4.74.36 6.12.36 8.1 0 1.56-.06 8.04-.48 12.48v.24c0 .6.18.78 2.88.78 2.76 0 3-.06 3-.96 0-.48-.06-1.02-.06-1.5 2.22-.06 7.679-.12 9.179-.12s7.08.12 9.24.12c0 .54-.06 1.08-.06 1.56v.12zm2.76-40.8c2.52.06 4.92.18 8.46.42.54 0 .72-.06.72-2.04 0-.78 0-1.62-.06-2.1a.605.605 0 00-.66-.54 73.947 73.947 0 01-8.22.48c.06-.96.12-1.92.12-2.52a2.9 2.9 0 011.02-1.86 1.86 1.86 0 00.54-1.02.764.764 0 00-.72-.66 44.507 44.507 0 00-6.3-1.08.514.514 0 00-.6.36 1.209 1.209 0 01.12.36c.24.66.72 2.28.72 6.3q-2.34-.09-5.76-.36h-.18c-.42 0-.66.12-.66 2.34 0 1.98 0 2.34.84 2.34 2.1-.18 4.02-.3 5.7-.36a29.751 29.751 0 01-.42 3.9q-2.52-.09-5.76-.36h-.18c-.42 0-.66.12-.66 2.34 0 1.98 0 2.34.84 2.34 1.56-.12 3.12-.24 4.56-.3-1.38 3.06-3.96 6-9.059 8.16a.516.516 0 00-.42.36.388.388 0 00.36.3c1.62.48 3.779 1.02 4.8 2.04a.545.545 0 00.42.18.968.968 0 00.54-.18 19.036 19.036 0 007.32-8.04c4.8 7.62 10.38 10.56 10.62 10.56a.717.717 0 00.48-.24 15.748 15.748 0 015.159-2.7 1.053 1.053 0 00.78-.54.6.6 0 00-.54-.42 26.29 26.29 0 01-13.319-9.6c3.18.06 7.68.18 11.039.42.54 0 .72-.06.72-2.04 0-.78 0-1.62-.06-2.1a.605.605 0 00-.66-.54c-3.719.42-9.059.48-12.179.48.24-1.32.42-2.58.54-3.96v-.12zm-35.1 3.6c-.36 0-.6.18-.6 2.34 0 1.86.12 2.34.78 2.34 2.46-.18 5.64-.3 8.16-.36-1.5 4.2-4.68 8.52-11.46 11.4a.516.516 0 00-.419.36.32.32 0 00.3.24 28.364 28.364 0 015.22 2.28.648.648 0 00.42.18c.54 0 6.06-2.94 9.48-10.56 2.76 3.36 4.68 4.8 4.98 4.8a.9.9 0 00.54-.42 17.277 17.277 0 013.72-2.16.472.472 0 00.3-.3.837.837 0 00-.6-.6 27.7 27.7 0 01-7.02-5.28c2.1.06 4.26.24 7.32.42.539 0 .719-.06.719-2.04 0-.78 0-1.62-.06-2.1a.6.6 0 00-.659-.54c-2.82.3-4.92.42-6.96.48 0-.18.06-.54.36-4.08 1.8.06 3.6.24 6.36.42.539 0 .719-.06.719-2.04 0-.78 0-1.62-.06-2.1a.663.663 0 00-.719-.54c-2.58.3-4.38.36-6.12.42.06-1.08.06-1.98.06-2.46a2.9 2.9 0 011.02-1.86 1.86 1.86 0 00.54-1.02.764.764 0 00-.72-.66 44.37 44.37 0 00-6.18-1.08.535.535 0 00-.66.42 1.209 1.209 0 01.12.36 15.866 15.866 0 01.66 3.36c0 .6.06 1.68.06 2.94-2.04-.06-4.56-.12-7.68-.42h-.18c-.42 0-.66.12-.66 2.34 0 1.98 0 2.34.84 2.34 2.76-.18 5.4-.36 7.62-.42 0 .72-.06 1.26-.06 1.68-.06.72-.12 1.56-.24 2.4-2.52-.06-5.88-.18-9.06-.48h-.18zm32.519 31.2c-2.1.06-8.04.18-9.36.18s-7.019-.06-9.239-.12v-3.6c2.16 0 7.739-.06 9.239-.06 1.56 0 7.32.06 9.36.06v3.54zm0-7.68c-2.1 0-8.04.06-9.36.06s-7.019-.06-9.239-.06c0-1.62.06-3.24.06-3.24s7.14-.12 9.179-.12 9.3.12 9.3.12.061 1.74.061 3.24zm46.981 11.4a146.782 146.782 0 01-.9-16.26V32.1c3.42-3.54 9.6-7.38 15.6-7.38 4.92 0 9.48 2.76 9.48 7.32 0 2.7-1.38 9.96-18.539 12a.329.329 0 00-.3.24.8.8 0 00.18.42 11.469 11.469 0 012.519 3.42.977.977 0 001.08.78c9.6-.84 21.36-6.18 21.36-16.56 0-6.66-5.64-12.6-14.94-12.6a27.181 27.181 0 00-16.259 5.82v-.18l4.5-5.94a2.063 2.063 0 00.24-.78 8.466 8.466 0 00-2.76-2.88 7.125 7.125 0 00-1.32.48c.24-1.8.54-3.66.9-5.46.3-1.5 1.74-2.82 1.74-3.6 0-.66-.6-.78-6.66-1.56h-.12c-.42 0-.54.24-.54.72-.12 3.9-.36 8.1-.66 12-3.24 1.26-6.84 2.58-8.76 3.24-.54.18-.72.36-.72.6 0 .36 1.86 4.5 2.94 4.5a1.6 1.6 0 00.78-.3c2.22-1.2 4.74-2.34 5.4-2.64-.06.66-.12 1.32-.12 1.98-2.4 6.84-8.04 13.14-8.04 13.14l.12-.06c-1.08 1.2-2.22 2.46-3.42 3.72a.811.811 0 00-.3.54c0 .66 4.32 3 5.1 3a.525.525 0 00.54-.3 70.977 70.977 0 015.7-8.34 765.4 765.4 0 00-.12 12.72c0 .72.3.78 3.12.78 2.22 0 3.18 0 3.18-.78v-.18zm66-36.48c.66 9.18.66 9.66.66 11.1 0 12.96-5.22 19.98-17.1 23.46a.822.822 0 00-.66.3 1.344 1.344 0 00.54.54 17.811 17.811 0 013.6 3 1.048 1.048 0 00.84.42 2.132 2.132 0 00.6-.12c13.8-5.04 18.3-14.28 18.3-27.18 0-1.5-.06-3.06-.18-4.62-.06-.42-.3-4.2-.3-7.74a15.368 15.368 0 01.18-2.34c.18-.96.9-1.86.9-2.52 0-.36-.24-.6-.96-.78a34.934 34.934 0 00-6.059-.78c-.66 0-.78.24-.78.66v.24zm-11.22 20.64a11.09 11.09 0 01-.06-1.44 16.628 16.628 0 011.62-6.42 1.752 1.752 0 00.12-.54 1.341 1.341 0 00-.18-.6 18.761 18.761 0 01-1.02-3.66.192.192 0 00-.18-.18.322.322 0 00-.24.18c-1.56 3.18-1.62 3.24-1.86 3.24s-.42-.96-.42-2.46a48.244 48.244 0 011.8-11.1c.3-.96 1.56-1.5 1.56-2.16 0-1.14-6.12-2.7-6.6-2.7a.558.558 0 00-.6.66c-.06 2.88-.66 5.82-.96 8.7a82.565 82.565 0 00-.6 8.4c0 7.74 2.28 11.7 3.18 11.7.06 0 4.44-.36 4.44-1.56v-.06zM27.901 126.4c-.24-3.12-.3-19.02-.3-28.56 0-2.58 0-5.22.18-7.56v-.24a.416.416 0 00-.48-.48h-.12c-1.74.12-3.9.18-5.88.24 0-2.34.06-3.96.12-4.74a.887.887 0 01.24-.78l.3-.42c1.8.06 3.84.18 6.48.48a.649.649 0 00.66-.42 15.23 15.23 0 00.06-1.8c0-1.02 0-2.04-.06-2.52a.688.688 0 00-.66-.54 120.441 120.441 0 01-13.559.54 104.409 104.409 0 01-10.74-.54h-.18c-.48 0-.6.6-.6 2.88 0 2.16.3 2.4.78 2.4 2.88-.3 5.22-.42 7.14-.48a14.09 14.09 0 01.06 1.62c0 .66 0 2.58-.06 4.32-2.46-.06-4.92-.12-5.82-.24-.18 0-.3-.06-.42-.06-.3 0-.36.12-.36.3 0 .12.06.3.06.48.24 4.38.24 8.82.24 14.34 0 4.44 0 15.96-.48 23.34v.18c0 .72.6.9 2.64.9 2.46 0 2.52-.3 2.52-1.02 0-1.14-.06-2.46-.06-3.9 1.62-.06 5.82-.06 6.84-.06s5.04 0 6.66.06c0 1.08-.06 1.98-.06 2.64 0 .54.3.84 2.64.84 2.1 0 2.22-.36 2.22-.78v-.42zm24.719-23.58c-.24-3.84-.54-9.54-.54-14.58a69.089 69.089 0 01.36-7.74v-.24c0-.3-.12-.42-.48-.42h-.18a80.557 80.557 0 01-8.22.42c-6 0-10.859-.42-11.819-.54h-.24c-.42 0-.48.24-.48 1.86 0 3.24 0 4.08.66 4.08a98.187 98.187 0 0110.619-.6h4.26c.06 2.28.12 6.48.12 10.92-1.68.12-2.64.12-4.02.12a98.365 98.365 0 01-11.1-.66h-.24c-.12 0-.12 0-.12.18v.24a79.4 79.4 0 01.6 10.56c0 4.14-.18 11.64-.42 15.42v.42c0 5.76 7.26 6 12.119 6 9.9 0 13.02-1.56 13.38-9.42a.429.429 0 00-.3-.54 26.288 26.288 0 01-5.04-3.96.653.653 0 00-.42-.3c-.06 0-.12.06-.12.24.06.9.06 1.68.06 2.4 0 4.92-1.2 5.58-2.46 5.82a25.532 25.532 0 01-4.8.48c-5.7 0-6.479-.84-6.539-2.16-.06-1.14-.12-3.24-.12-5.64 0-4.86.12-11.1.3-14.1 2.519-.18 3.419-.24 5.219-.24 1.56 0 2.46 0 3.96.12v1.86c0 .72.18.9 3 .9 3 0 3-.3 3-.78v-.12zm-29.4 8.88c-1.56 0-5.88.06-6.84.06-.9 0-5.22-.06-6.84-.06v-3.42a5.068 5.068 0 011.98.96.29.29 0 00.24.06c.48 0 3.3-3.96 3.48-15.48h2.16c0 3.3 0 6.42-.12 8.58v.72c0 3.12 1.2 3.78 4.44 3.78a12.539 12.539 0 001.5-.06v4.86zm-.06 8.1c-1.62 0-5.88.12-6.78.12s-5.16-.06-6.78-.12c0-1.26-.06-2.58-.06-3.9 1.62 0 5.88-.12 6.9-.12 1.08 0 5.16.12 6.72.12v3.9zm0-25.92s.06 4.92.06 8.7a2.806 2.806 0 01-.96.12c-.96 0-1.44-.12-1.44-1.38v-7.44h2.34zM9.541 104.44c0-5.04.06-10.56.06-10.56h2.28c0 3.06-.12 7.8-2.34 11.76v-1.2zm5.76-14.58V85.3a1.241 1.241 0 01.3-1.08 1.221 1.221 0 00.36-.42h1.38c.06.66.12 1.38.12 2.28 0 1.2-.06 2.52-.06 3.78h-2.1zm93.3 37.98c0 .66.48.72 2.46.72 3.24 0 3.42-.36 3.42-.72 0-.12-.06-.24-.06-.48-.36-4.26-.36-6.96-.36-8.34 0-1.56 0-3.48.3-7.62v-.24a.437.437 0 00-.54-.48h-.18c-3.9.24-9.12.3-12.179.3-3.12 0-9.84-.12-12.36-.3h-.36c-.42 0-.54.06-.54.3 0 .12.06.24.06.42.24 2.94.24 4.5.24 7.32a87.841 87.841 0 01-.42 9.06v.24c0 .72.3.84 2.88.84 2.88 0 3 0 3-.96 0-.72-.06-1.44-.06-2.1 1.74-.06 6-.12 7.44-.12s5.639.06 7.319.12c0 .6-.06 1.26-.06 1.92v.12zm-34.618.42c0 .54.78.6 3.18.6 2.579 0 3.239-.12 3.239-.6-.12-2.4-.18-5.4-.18-8.7 0-7.56.3-16.56.48-23.58.06-1.32.06-1.8.84-2.7a1.8 1.8 0 00.54-1.14c0-.48-.36-.78-2.16-1.26a87.025 87.025 0 004.44-8.64c.36-.9.54-.6 1.32-1.02a1.734 1.734 0 001.14-1.2c0-1.14-6.06-3.42-6.54-3.42-.36 0-.42.12-.42.48-.36 3.84-6.179 17.22-15.239 25.08a.68.68 0 00-.24.36c0 .12.18.18.54.24a17.23 17.23 0 014.92 1.44.853.853 0 00.36.12c1.08 0 5.04-5.88 5.28-6.24-.24 9.48-.6 22.26-1.5 30.12v.06zm10.979-40.92c-.66 0-.66.66-.66 2.76 0 2.64.24 2.7.84 2.7 7.02-.6 14.28-.6 16.14-.6 1.8 0 10.5 0 17.219.6a.7.7 0 00.66-.42c.06-.6.12-1.62.12-2.52 0-1.56-.12-2.52-.78-2.52-6.9.6-15.419.6-17.219.6-2.04 0-9.12 0-16.14-.6h-.18zm27.779-2.7c.6 0 .84-.06.84-2.46 0-2.22-.18-2.64-.84-2.64-4.74.3-8.46.36-13.919.36-2.34 0-5.34 0-8.94-.24-.84 0-.9.06-.9 2.58 0 2.22.12 2.4.78 2.4 4.98-.3 8.76-.36 11.58-.36 3.12 0 6.6.06 11.4.36zm-.18 15.6c.66 0 .84 0 .84-2.34 0-2.52-.3-2.58-.84-2.58-4.8.3-8.52.36-11.219.36-2.46 0-6.36 0-11.28-.3-.78 0-.9.18-.9 2.46 0 2.1.18 2.4.78 2.4 4.86-.3 8.64-.36 11.4-.36 3.06 0 6.54.06 11.22.36zm0 7.44c.72 0 .78-.18.78-1.92 0-.9 0-1.86-.06-2.4a.754.754 0 00-.72-.54c-4.8.3-8.52.36-11.219.36-2.46 0-6.36 0-11.28-.3-.72 0-.9.06-.9 2.1 0 2.16 0 2.7.78 2.7 4.86-.3 8.64-.3 11.4-.3 3.06 0 6.54 0 11.22.3zm-3.84 13.5c-1.68 0-6.059.12-7.379.12s-5.82-.06-7.5-.12v-2.52c0-1.68.06-3.3.06-3.3s5.4-.12 7.44-.12 7.319.12 7.319.12.06 1.92.06 3.18v2.64zm71.7-9.9c-.36-5.16-.54-8.1-.54-11.64 0-3.84.06-6.06.36-11.16a.6.6 0 00-.6-.6h-.12c-4.08.3-12.539.48-18.659.54.12-3.9.24-6.42.6-7.38.48-1.26 1.2-2.1 1.2-2.7 0-1.26-6.6-1.92-7.74-1.92a.416.416 0 00-.48.48v.24a77.366 77.366 0 01.78 11.28c-5.76 0-14.279-.12-18.239-.42a.574.574 0 00-.66.48c.36 5.34.42 6.78.48 11.16a102.448 102.448 0 01-.66 12.24c0 .54.78.66 3.12.66 2.82 0 3.18-.06 3.18-.72 0-.96-.06-1.86-.06-2.7 2.939-.06 8.519-.12 12.719-.12-.12 6.06-.3 13.2-.66 19.14 0 .54.24.78 3.42.78a20.384 20.384 0 002.88-.12.536.536 0 00.54-.54c-.24-4.62-.36-12.48-.42-19.26 4.74 0 10.919.12 13.439.18 0 .78-.06 1.5-.12 2.22 0 .72.54.72 2.64.72 3.24 0 3.6-.06 3.6-.72v-.12zm-19.679-18.06c5.7 0 13.619.12 13.619.12s.12 3.12.12 6.6c0 .96 0 2.4-.06 4.14-2.4.06-8.819.18-13.619.18 0-2.76-.06-5.16-.06-6.66v-4.38zm-5.52 11.04c-4.26 0-10.02-.06-12.959-.12-.06-1.86-.12-3.36-.12-4.38 0-3.36.06-6.42.06-6.42s7.679-.12 13.079-.12c0 1.8-.06 3.36-.06 4.38v6.66z" fill="#573001" fill-rule="evenodd"/></svg>